STARTFONT 2.1
COMMENT
COMMENT Converted from OpenType font "Exo-Bold.otf" by "otf2bdf 3.0".
COMMENT
FONT -FreeType-Exo-Bold-R-Normal--44-320-100-100-P-214-ISO10646-1
SIZE 32 100 100
FONTBOUNDINGBOX 63 60 -3 -14
STARTPROPERTIES 19
FOUNDRY "FreeType"
FAMILY_NAME "Exo"
WEIGHT_NAME "Bold"
SLANT "R"
SETWIDTH_NAME "Normal"
ADD_STYLE_NAME ""
PIXEL_SIZE 44
POINT_SIZE 320
RESOLUTION_X 100
RESOLUTION_Y 100
SPACING "P"
AVERAGE_WIDTH 214
CHARSET_REGISTRY "ISO10646"
CHARSET_ENCODING "1"
FONT_ASCENT 44
FONT_DESCENT 12
COPYRIGHT "Copyright (c) 2011 Natanael Gama (exo@ndiscovered.com), with Reserved Font Name "Exo""
_OTF_FONTFILE "Exo-Bold.otf"
_OTF_PSNAME "Exo-Bold"
ENDPROPERTIES
CHARS 398
STARTCHAR 000D
ENCODING 13
SWIDTH 765 0
DWIDTH 34 0
BBX 0 0 0 0
BITMAP
ENDCHAR
STARTCHAR 0020
ENCODING 32
SWIDTH 247 0
DWIDTH 11 0
BBX 0 0 0 0
BITMAP
ENDCHAR
STARTCHAR 0021
ENCODING 33
SWIDTH 270 0
DWIDTH 12 0
BBX 6 33 3 -1
BITMAP
FC
FC
FC
FC
FC
FC
FC
FC
FC
FC
FC
FC
FC
FC
FC
FC
FC
FC
FC
FC
FC
FC
FC
FC
00
00
00
FC
FC
FC
FC
FC
FC
ENDCHAR
STARTCHAR 0022
ENCODING 34
SWIDTH 450 0
DWIDTH 20 0
BBX 14 9 3 25
BITMAP
FCFC
FCFC
FCFC
FCFC
FCFC
FCFC
FCFC
FCFC
F8F8
ENDCHAR
STARTCHAR 0023
ENCODING 35
SWIDTH 720 0
DWIDTH 32 0
BBX 30 35 1 -1
BITMAP
003E0F00
003C0F00
003C0F00
003C0F00
003C1F00
003C1F00
007C1E00
00781E00
00781E00
00781E00
3FFFFFFC
3FFFFFFC
7FFFFFFC
7FFFFFFC
00F03C00
00F03C00
00F03C00
00F07C00
01F07C00
01F07800
01E07800
FFFFFFF8
FFFFFFF8
FFFFFFF0
FFFFFFF0
03C0F000
03C0F000
03C0F000
03C1F000
03C1F000
07C1E000
0781E000
0781E000
0781E000
0783E000
ENDCHAR
STARTCHAR 0024
ENCODING 36
SWIDTH 562 0
DWIDTH 25 0
BBX 22 41 2 -4
BITMAP
007000
007000
007000
007000
03FE00
1FFFF0
3FFFF0
7FFFF0
7FFFF0
FFFFF0
FE0000
FC0000
FC0000
FC0000
FC0000
FC0000
FC0000
FF0000
FFFF80
7FFFE0
7FFFF0
3FFFF8
1FFFF8
07FFF8
0003F8
0001F8
0001FC
0001FC
0001FC
0001F8
0001F8
7F07F8
7FFFF8
7FFFF0
7FFFF0
7FFFE0
1FFF80
007000
007000
007000
007000
ENDCHAR
STARTCHAR 0025
ENCODING 37
SWIDTH 967 0
DWIDTH 43 0
BBX 40 34 1 0
BITMAP
1FFC000F00
3FFE001F00
7FFF001E00
7FFF803E00
FC1F807C00
F80F807800
F80F80F800
F80F80F000
F80F81F000
F80F81E000
F80F83E000
F80F87C000
F80F878000
7FFF8F8000
7FFF0F0000
7FFF1F0000
3FFE3E1FFC
00003C7FFE
00007C7FFF
000078FFFF
0000F8F83F
0000F0F00F
0001F0F00F
0003E0F00F
0003C0F00F
0007C0F00F
000780F00F
000F80F00F
000F00F00F
001F00F81F
003E00FFFF
003C007FFF
007C007FFE
0078001FF8
ENDCHAR
STARTCHAR 0026
ENCODING 38
SWIDTH 675 0
DWIDTH 30 0
BBX 28 33 1 -2
BITMAP
007E0000
03FFF800
07FFF800
0FFFF800
0FFFF800
1FFFF800
1FE00000
1FC00000
0FC00000
0FE00000
07F00000
07F00000
03F80000
01FC0000
03FE0000
07FE0000
0FFF0180
1FFF83C0
3FFFC7E0
7F9FCFC0
7F0FFF80
7E0FFF80
FC07FF00
FC03FF00
FC03FE00
FE07FE00
FF0FFF00
7FFFFF00
7FFFFF80
3FFF9FC0
1FFF1FE0
0FFE0FE0
03F807F0
ENDCHAR
STARTCHAR 0027
ENCODING 39
SWIDTH 225 0
DWIDTH 10 0
BBX 6 9 2 25
BITMAP
FC
FC
FC
FC
FC
FC
FC
FC
FC
ENDCHAR
STARTCHAR 0028
ENCODING 40
SWIDTH 382 0
DWIDTH 17 0
BBX 13 47 3 -9
BITMAP
01F8
03F0
07F0
07E0
0FE0
0FC0
1FC0
1F80
3F80
3F00
3F00
7F00
7E00
7E00
7E00
FE00
FC00
FC00
FC00
FC00
FC00
FC00
FC00
FC00
FC00
FC00
FC00
FC00
FC00
FC00
FC00
FE00
FE00
7E00
7E00
7F00
7F00
3F00
3F80
1F80
1F80
1FC0
0FC0
0FE0
07E0
03F0
01F8
ENDCHAR
STARTCHAR 0029
ENCODING 41
SWIDTH 382 0
DWIDTH 17 0
BBX 13 47 1 -9
BITMAP
FC00
7E00
7E00
3F00
3F80
1F80
1F80
0FC0
0FC0
0FE0
07E0
07E0
07F0
03F0
03F0
03F0
03F8
03F8
01F8
01F8
01F8
01F8
01F8
01F8
01F8
01F8
01F8
01F8
01F8
01F8
03F8
03F8
03F0
03F0
07F0
07F0
07E0
07E0
0FE0
0FC0
1FC0
1F80
3F80
3F00
7F00
7E00
FC00
ENDCHAR
STARTCHAR 002A
ENCODING 42
SWIDTH 427 0
DWIDTH 19 0
BBX 15 15 2 18
BITMAP
0100
0700
0380
03C0
03C0
FDEE
FD9E
FC7C
0078
1EB0
1EC0
1DE0
1DF8
3878
3818
ENDCHAR
STARTCHAR 002B
ENCODING 43
SWIDTH 472 0
DWIDTH 21 0
BBX 19 19 1 6
BITMAP
01F000
01F000
01F000
01F000
01F000
01F000
01F000
FFFFE0
FFFFE0
FFFFE0
FFFFE0
FFFFE0
01F000
01F000
01F000
01F000
01F000
01F000
01F000
ENDCHAR
STARTCHAR 002C
ENCODING 44
SWIDTH 270 0
DWIDTH 12 0
BBX 6 10 3 -6
BITMAP
FC
FC
FC
FC
FC
FC
7C
7C
F8
F8
ENDCHAR
STARTCHAR 002D
ENCODING 45
SWIDTH 360 0
DWIDTH 16 0
BBX 14 5 1 10
BITMAP
FFFC
FFFC
FFFC
FFFC
FFFC
ENDCHAR
STARTCHAR 002E
ENCODING 46
SWIDTH 270 0
DWIDTH 12 0
BBX 6 6 3 -1
BITMAP
FC
FC
FC
FC
FC
FC
ENDCHAR
STARTCHAR 002F
ENCODING 47
SWIDTH 450 0
DWIDTH 20 0
BBX 18 37 1 -3
BITMAP
000FC0
000FC0
001FC0
001F80
001F80
003F80
003F00
003F00
007F00
007E00
007E00
00FE00
00FC00
00FC00
01FC00
01F800
01F800
03F800
03F000
03F000
07F000
07E000
07E000
0FE000
0FC000
0FC000
1FC000
1F8000
1F8000
3F8000
3F0000
3F0000
7F0000
7E0000
7E0000
FE0000
FC0000
ENDCHAR
STARTCHAR 0030
ENCODING 48
SWIDTH 630 0
DWIDTH 28 0
BBX 24 35 2 -1
BITMAP
07FFE0
1FFFF8
3FFFFC
7FFFFE
7FFFFE
7FFFFE
FF007F
FE007F
FE007F
FE007F
FE007F
FE007F
FE007F
FE007F
FE007F
FE007F
FE007F
FE007F
FE007F
FE007F
FE007F
FE007F
FE007F
FE007F
FE007F
FE007F
FE007F
FE007F
FF007F
7FFFFE
7FFFFE
7FFFFE
3FFFFC
1FFFF8
07FFE0
ENDCHAR
STARTCHAR 0031
ENCODING 49
SWIDTH 360 0
DWIDTH 16 0
BBX 13 35 1 -1
BITMAP
03F8
0FF8
1FF8
7FF8
FFF8
FFF8
FFF8
E1F8
01F8
01F8
01F8
01F8
01F8
01F8
01F8
01F8
01F8
01F8
01F8
01F8
01F8
01F8
01F8
01F8
01F8
01F8
01F8
01F8
01F8
01F8
01F8
01F8
01F8
01F8
01F8
ENDCHAR
STARTCHAR 0032
ENCODING 50
SWIDTH 585 0
DWIDTH 26 0
BBX 23 33 1 -1
BITMAP
0FFF80
FFFFE0
FFFFF8
FFFFFC
FFFFFC
FFFFFE
0001FE
00007E
00007E
00007E
00007E
00007E
0000FE
0000FE
0001FC
0003FC
0003F8
0007F8
000FF0
001FE0
003FC0
00FFC0
01FF80
03FF00
07FE00
1FF800
3FF000
7FFFFE
7FFFFE
7FFFFE
7FFFFE
7FFFFE
7FFFFE
ENDCHAR
STARTCHAR 0033
ENCODING 51
SWIDTH 585 0
DWIDTH 26 0
BBX 22 34 1 0
BITMAP
3FFF80
FFFFE0
FFFFF0
FFFFF8
FFFFFC
FFFFFC
0001FC
0000FC
0000FC
0000FC
0000FC
0000FC
0000FC
0001FC
007FFC
1FFFF8
1FFFF0
1FFFF0
1FFFF8
1FFFFC
0003FC
0000FC
0000FC
0000FC
0000FC
0000FC
0000FC
0001FC
FFFFFC
FFFFFC
FFFFF8
FFFFF8
FFFFF0
1FFFC0
ENDCHAR
STARTCHAR 0034
ENCODING 52
SWIDTH 630 0
DWIDTH 28 0
BBX 26 33 1 1
BITMAP
001FC000
003F8000
003F8000
007F0000
007F0000
00FE0000
00FE0000
01FC0000
01FC0000
03FC3E00
03F87E00
07F87E00
07F0FE00
0FF0FE00
0FE0FE00
1FE0FE00
1FC0FE00
3FC0FE00
3F80FE00
7F80FE00
7FFFFFC0
FFFFFFC0
FFFFFFC0
FFFFFFC0
FFFFFFC0
7FFFFF00
0000FE00
0000FE00
0000FE00
0000FE00
0000FE00
0000FE00
0000FE00
ENDCHAR
STARTCHAR 0035
ENCODING 53
SWIDTH 585 0
DWIDTH 26 0
BBX 22 35 3 -1
BITMAP
7FFFF0
7FFFF0
FFFFF0
FFFFF0
FFFFF0
FFFFF0
FE0000
FE0000
FC0000
FC0000
FC0000
FC0000
FC0000
FDFF80
FFFFE0
FFFFF0
FFFFF0
FFFFF8
FFFFF8
FC01F8
FC01FC
0001FC
0001FC
0001FC
0001FC
0001FC
0001FC
0001FC
0003F8
FFFFF8
FFFFF8
FFFFF0
FFFFF0
FFFFC0
1FFF80
ENDCHAR
STARTCHAR 0036
ENCODING 54
SWIDTH 607 0
DWIDTH 27 0
BBX 23 33 2 -1
BITMAP
01FF00
07FFFC
0FFFFC
1FFFFC
3FFFFC
3FFFFC
7F8000
7F0000
7E0000
7E0000
7E0000
FE0000
FC0000
FC7FE0
FFFFF8
FFFFFC
FFFFFC
FFFFFE
FFFFFE
FC00FE
FC007E
FE007E
7E007E
7E007E
7E007E
7E007E
7F00FE
3FFFFE
3FFFFE
3FFFFC
1FFFFC
0FFFF8
03FFE0
ENDCHAR
STARTCHAR 0037
ENCODING 55
SWIDTH 562 0
DWIDTH 25 0
BBX 22 35 1 -1
BITMAP
FFFFF8
FFFFFC
FFFFFC
FFFFFC
FFFFFC
FFFFFC
0001F8
0003F8
0003F8
0003F0
0007F0
0007F0
0007E0
000FE0
000FE0
000FC0
001FC0
001FC0
001F80
003F80
003F80
003F00
007F00
007F00
007E00
00FE00
00FE00
00FC00
01FC00
01FC00
03F800
03F800
03F800
07F000
07F000
ENDCHAR
STARTCHAR 0038
ENCODING 56
SWIDTH 630 0
DWIDTH 28 0
BBX 22 35 3 -1
BITMAP
0FFFC0
3FFFF0
7FFFF8
FFFFF8
FFFFFC
FFFFFC
FC01FC
FC00FC
FC00FC
FC00FC
FC00FC
FC00FC
FC00FC
FC00FC
FE01F8
FFFFF8
7FFFE0
3FFFF8
3FFFF8
7FFFFC
FE01FC
FC00FC
FC00FC
FC00FC
FC00FC
FC00FC
FC00FC
FC00FC
FC01FC
FFFFFC
FFFFFC
FFFFF8
7FFFF8
3FFFF0
0FFFC0
ENDCHAR
STARTCHAR 0039
ENCODING 57
SWIDTH 607 0
DWIDTH 27 0
BBX 23 34 2 0
BITMAP
0FFF80
3FFFE0
7FFFF0
7FFFF8
FFFFF8
FFFFF8
FE01FC
FC01FC
FC00FC
FC00FC
FC00FC
FC007E
FC007E
FC007E
FE007E
FFFFFE
7FFFFE
7FFFFE
3FFFFE
1FFFFE
01C07E
00007E
0000FE
0000FE
0000FC
0000FC
0001FC
0001FC
7FFFF8
7FFFF8
7FFFF0
7FFFF0
7FFFE0
0FFF80
ENDCHAR
STARTCHAR 003A
ENCODING 58
SWIDTH 270 0
DWIDTH 12 0
BBX 6 26 3 -1
BITMAP
FC
FC
FC
FC
FC
FC
00
00
00
00
00
00
00
00
00
00
00
00
00
00
FC
FC
FC
FC
FC
FC
ENDCHAR
STARTCHAR 003B
ENCODING 59
SWIDTH 270 0
DWIDTH 12 0
BBX 6 29 3 -6
BITMAP
FC
FC
FC
FC
FC
FC
00
00
00
00
00
00
00
00
00
00
00
00
78
FC
FC
FC
FC
FC
FC
7C
7C
F8
F8
ENDCHAR
STARTCHAR 003C
ENCODING 60
SWIDTH 450 0
DWIDTH 20 0
BBX 16 19 2 6
BITMAP
0001
0007
003F
01FF
07FF
3FFF
FFFC
FFF0
FF80
FE00
FF80
FFF0
FFFC
1FFF
07FF
00FF
003F
0007
0001
ENDCHAR
STARTCHAR 003D
ENCODING 61
SWIDTH 472 0
DWIDTH 21 0
BBX 19 15 1 8
BITMAP
FFFFE0
FFFFE0
FFFFE0
FFFFE0
FFFFE0
000000
000000
000000
000000
000000
FFFFE0
FFFFE0
FFFFE0
FFFFE0
FFFFE0
ENDCHAR
STARTCHAR 003E
ENCODING 62
SWIDTH 450 0
DWIDTH 20 0
BBX 16 19 2 6
BITMAP
8000
E000
FC00
FF80
FFE0
FFFC
3FFF
0FFF
01FF
007F
01FF
0FFF
3FFF
FFF8
FFE0
FF00
FC00
F000
8000
ENDCHAR
STARTCHAR 003F
ENCODING 63
SWIDTH 540 0
DWIDTH 24 0
BBX 22 33 1 -1
BITMAP
07FE00
FFFFC0
FFFFE0
FFFFF0
FFFFF8
FFFFF8
0003F8
0001FC
0001FC
0000FC
0000FC
0000FC
0000FC
0001FC
0001FC
0003F8
01FFF8
01FFF8
01FFF0
01FFE0
01FF00
01F000
01F000
01F000
01F000
000000
000000
03F000
03F000
03F000
03F000
03F000
03F000
ENDCHAR
STARTCHAR 0040
ENCODING 64
SWIDTH 877 0
DWIDTH 39 0
BBX 34 40 2 -10
BITMAP
003FFFE000
03FFFFFC00
03FFFFFE00
03FFFFFF00
03FFFFFF80
0000001F80
0000000F80
0000000FC0
03FFFC07C0
1FFFFF07C0
3FFFFF07C0
3FFFFF87C0
7FFFFF87C0
7E000FC7C0
FC0007C7C0
F80007C7C0
F80007C7C0
F80FFFC7C0
F83FFFC7C0
F87FFFC7C0
F87FFFC7C0
F8FC07C7C0
F8FC07C7C0
F8F807C7C0
F8F80FC7C0
F8FC3FC7C0
F8FFFFC7C0
F87FFFC7C0
F87FF7C7C0
F83FE7C7C0
F81F83C7C0
F8000007C0
FC00000FC0
7C00000F80
7E00001F80
7FFFFFFF80
3FFFFFFF00
1FFFFFFE00
0FFFFFFC00
03FFFFF000
ENDCHAR
STARTCHAR 0041
ENCODING 65
SWIDTH 697 0
DWIDTH 31 0
BBX 28 35 2 -1
BITMAP
003FC000
003FC000
003FC000
007FE000
007FE000
007FE000
00FFF000
00FFF000
00FFF000
01FFF000
01FDF800
01F9F800
01F9F800
03F9FC00
03F0FC00
03F0FC00
07F0FE00
07E07E00
07E07E00
0FE07E00
0FC07F00
0FFFFF00
1FFFFF00
1FFFFF80
1FFFFF80
3FFFFF80
3FFFFFC0
3F001FC0
3F000FC0
7F000FC0
7E000FE0
7E000FE0
FE0007E0
FE0007F0
FC0007F0
ENDCHAR
STARTCHAR 0042
ENCODING 66
SWIDTH 607 0
DWIDTH 27 0
BBX 23 35 3 -1
BITMAP
FFFF80
FFFFE0
FFFFF0
FFFFF8
FFFFF8
FFFFFC
FC01FC
FC00FC
FC00FC
FC00FC
FC00FC
FC00FC
FC01FC
FC01F8
FFFFF8
FFFFF0
FFFFE0
FFFFF0
FFFFF8
FC03FC
FC01FC
FC00FC
FC00FE
FC007E
FC007E
FC007E
FC00FE
FC00FE
FC01FC
FFFFFC
FFFFFC
FFFFF8
FFFFF8
FFFFE0
FFFF80
ENDCHAR
STARTCHAR 0043
ENCODING 67
SWIDTH 562 0
DWIDTH 25 0
BBX 22 33 2 -1
BITMAP
01FFC0
07FFFC
1FFFFC
1FFFFC
3FFFFC
7FFFFC
7F8000
7F0000
FE0000
FE0000
FC0000
FC0000
FC0000
FC0000
FC0000
FC0000
FC0000
FC0000
FC0000
FC0000
FC0000
FC0000
FE0000
FE0000
7E0000
7F0000
7F8000
3FFFFC
3FFFFC
1FFFFC
0FFFFC
07FFFC
01FFE0
ENDCHAR
STARTCHAR 0044
ENCODING 68
SWIDTH 652 0
DWIDTH 29 0
BBX 25 35 3 -1
BITMAP
FFFF8000
FFFFE000
FFFFF800
FFFFF800
FFFFFC00
FFFFFE00
FC00FE00
FC007F00
FC007F00
FC003F00
FC003F00
FC003F00
FC003F80
FC003F80
FC003F80
FC001F80
FC001F80
FC001F80
FC001F80
FC001F80
FC003F80
FC003F80
FC003F80
FC003F00
FC003F00
FC003F00
FC007F00
FC007E00
FC00FE00
FFFFFE00
FFFFFC00
FFFFF800
FFFFF000
FFFFE000
FFFF8000
ENDCHAR
STARTCHAR 0045
ENCODING 69
SWIDTH 562 0
DWIDTH 25 0
BBX 21 35 3 -1
BITMAP
0FFFC0
3FFFF8
7FFFF8
FFFFF8
FFFFF8
FFFFF8
FC0000
FC0000
FC0000
FC0000
FC0000
FC0000
FC0000
FC0000
FC0000
FFFFE0
FFFFE0
FFFFE0
FFFFE0
FFFFE0
FFFC00
FC0000
FC0000
FC0000
FC0000
FC0000
FC0000
FC0000
FC0000
FFFFF8
FFFFF8
FFFFF8
7FFFF8
7FFFF8
1FFF00
ENDCHAR
STARTCHAR 0046
ENCODING 70
SWIDTH 562 0
DWIDTH 25 0
BBX 21 35 3 -1
BITMAP
0FFFC0
3FFFF8
7FFFF8
FFFFF8
FFFFF8
FFFFF8
FC0000
FC0000
FC0000
FC0000
FC0000
FC0000
FC0000
FC0000
FFF800
FFFFE0
FFFFE0
FFFFE0
FFFFE0
FFFFE0
FC0000
FC0000
FC0000
FC0000
FC0000
FC0000
FC0000
FC0000
FC0000
FC0000
FC0000
FC0000
FC0000
FC0000
FC0000
ENDCHAR
STARTCHAR 0047
ENCODING 71
SWIDTH 607 0
DWIDTH 27 0
BBX 23 33 2 -1
BITMAP
01FFC0
07FFFE
1FFFFE
1FFFFE
3FFFFE
7FFFFE
7F0000
7E0000
FE0000
FE0000
FC0000
FC0000
FC0000
FC0000
FC01FE
FC07FE
FC07FE
FC07FE
FC07FE
FC007E
FC007E
FC007E
FC007E
FE007E
FE007E
7F007E
7F81FE
7FFFFE
3FFFFE
3FFFFE
1FFFFE
0FFF3E
03FC1E
ENDCHAR
STARTCHAR 0048
ENCODING 72
SWIDTH 630 0
DWIDTH 28 0
BBX 23 35 3 -1
BITMAP
FC007E
FC007E
FC007E
FC007E
FC007E
FC007E
FC007E
FC007E
FC007E
FC007E
FC007E
FC007E
FC007E
FC007E
FC007E
FFFFFE
FFFFFE
FFFFFE
FFFFFE
FFFFFE
FFFFFE
FC007E
FC007E
FC007E
FC007E
FC007E
FC007E
FC007E
FC007E
FC007E
FC007E
FC007E
FC007E
FC007E
FC007E
ENDCHAR
STARTCHAR 0049
ENCODING 73
SWIDTH 247 0
DWIDTH 11 0
BBX 6 35 3 -1
BITMAP
FC
FC
FC
FC
FC
FC
FC
FC
FC
FC
FC
FC
FC
FC
FC
FC
FC
FC
FC
FC
FC
FC
FC
FC
FC
FC
FC
FC
FC
FC
FC
FC
FC
FC
FC
ENDCHAR
STARTCHAR 004A
ENCODING 74
SWIDTH 360 0
DWIDTH 16 0
BBX 13 33 1 1
BITMAP
01F8
01F8
01F8
01F8
01F8
01F8
01F8
01F8
01F8
01F8
01F8
01F8
01F8
01F8
01F8
01F8
01F8
01F8
01F8
01F8
01F8
01F8
01F8
01F8
03F8
03F8
07F8
FFF8
FFF8
FFF0
FFF0
FFE0
1F00
ENDCHAR
STARTCHAR 004B
ENCODING 75
SWIDTH 630 0
DWIDTH 28 0
BBX 24 35 3 -1
BITMAP
FC00FF
FC00FE
FC01FC
FC01FC
FC03F8
FC03F8
FC07F0
FC0FF0
FC0FE0
FC1FC0
FC1FC0
FC3F80
FC3F80
FC7F00
FC7F00
FFFE00
FFFE00
FFFC00
FFFC00
FFFE00
FFFE00
FC7F00
FC7F80
FC3F80
FC1FC0
FC1FC0
FC0FE0
FC0FE0
FC07F0
FC07F8
FC03F8
FC01FC
FC01FC
FC00FE
FC00FF
ENDCHAR
STARTCHAR 004C
ENCODING 76
SWIDTH 540 0
DWIDTH 24 0
BBX 20 35 3 -1
BITMAP
FC0000
FC0000
FC0000
FC0000
FC0000
FC0000
FC0000
FC0000
FC0000
FC0000
FC0000
FC0000
FC0000
FC0000
FC0000
FC0000
FC0000
FC0000
FC0000
FC0000
FC0000
FC0000
FC0000
FC0000
FC0000
FC0000
FC0000
FC0000
FC0000
FFFFF0
FFFFF0
FFFFF0
7FFFF0
3FFFF0
1FFFF0
ENDCHAR
STARTCHAR 004D
ENCODING 77
SWIDTH 855 0
DWIDTH 38 0
BBX 34 35 2 -1
BITMAP
1FE003FE00
1FF003FE00
3FF003FE00
3FF007FE00
3FF007FE00
3FF807FE00
3FF807FE00
3FF80FFE00
3FF80FFF00
3FFC0FFF00
3FFC0FFF00
3FFC0FFF00
3FFC1FBF00
3FFC1FBF00
3F7E1FBF00
7F7E1FBF00
7F7E3F3F00
7E7E3F3F00
7E7F3F3F00
7E3F3F3F00
7E3F3F3F80
7E3F7E3F80
7E3F7E1F80
7E1FFE1F80
7E1FFE1F80
7E1FFC1F80
7E1FFC1F80
FE0FFC1F80
FE0FFC1F80
FC0FFC1F80
FC0FF81F80
FC07F81FC0
FC07F81FC0
FC07F80FC0
FC07F00FC0
ENDCHAR
STARTCHAR 004E
ENCODING 78
SWIDTH 675 0
DWIDTH 30 0
BBX 25 35 3 -1
BITMAP
FC001F80
FE001F80
FE001F80
FF001F80
FF801F80
FF801F80
FFC01F80
FFC01F80
FFE01F80
FFE01F80
FFF01F80
FFF81F80
FFF81F80
FFFC1F80
FDFC1F80
FCFE1F80
FCFE1F80
FC7F1F80
FC7F9F80
FC3F9F80
FC3FDF80
FC1FDF80
FC0FFF80
FC0FFF80
FC07FF80
FC07FF80
FC03FF80
FC01FF80
FC01FF80
FC00FF80
FC00FF80
FC007F80
FC007F80
FC003F80
FC001F80
ENDCHAR
STARTCHAR 004F
ENCODING 79
SWIDTH 675 0
DWIDTH 30 0
BBX 26 35 2 -1
BITMAP
00FFE000
07FFF800
0FFFFC00
1FFFFE00
1FFFFF00
3FFFFF00
3F807F80
7F003F80
7E001F80
7E001FC0
7E000FC0
7E000FC0
FE000FC0
FE000FC0
FC000FC0
FC000FC0
FC000FC0
FC000FC0
FC000FC0
FC000FC0
FC000FC0
FE000FC0
FE000FC0
FE000FC0
7E000FC0
7E001FC0
7E001FC0
7F003F80
3F807F80
3FFFFF80
3FFFFF00
1FFFFE00
0FFFFC00
07FFF800
00FFE000
ENDCHAR
STARTCHAR 0050
ENCODING 80
SWIDTH 607 0
DWIDTH 27 0
BBX 23 35 2 -1
BITMAP
FFFFC0
FFFFF0
FFFFF8
FFFFFC
FFFFFC
FFFFFE
FC00FE
FC00FE
FC007E
FC007E
FC007E
FC007E
FC007E
FC007E
FC00FE
FC01FE
FFFFFC
FFFFFC
FFFFF8
FFFFF8
FFFFE0
FC0300
FC0000
FC0000
FC0000
FC0000
FC0000
FC0000
FC0000
FC0000
FC0000
FC0000
FC0000
FC0000
FC0000
ENDCHAR
STARTCHAR 0051
ENCODING 81
SWIDTH 675 0
DWIDTH 30 0
BBX 26 43 2 -10
BITMAP
00FFE000
07FFF800
0FFFFC00
1FFFFE00
1FFFFF00
3FFFFF00
3F807F80
7F003F80
7E001F80
7E001FC0
7E000FC0
7E000FC0
FE000FC0
FE000FC0
FC000FC0
FC000FC0
FC000FC0
FC000FC0
FC000FC0
FC000FC0
FC000FC0
FE000FC0
FE000FC0
FE000FC0
7E000FC0
7E001FC0
7E001FC0
7F003F80
3F807F80
3FFFFF80
3FFFFF00
1FFFFE00
0FFFFC00
07FFF800
00FFC000
00000000
00000000
001F0000
000FDC00
000FFC00
0007FC00
0003FC00
0001FC00
ENDCHAR
STARTCHAR 0052
ENCODING 82
SWIDTH 607 0
DWIDTH 27 0
BBX 24 35 2 -1
BITMAP
FFFFC0
FFFFF0
FFFFF8
FFFFFC
FFFFFC
FFFFFE
FE00FE
FE007E
FE007E
FE007E
FE007E
FE007E
FE007E
FE007E
FE007E
FE00FE
FFFFFE
FFFFFC
FFFFFC
FFFFF8
FFFFF0
FC1FC0
FC0FE0
FC07E0
FC07F0
FC03F0
FC03F8
FC03F8
FC01F8
FC01FC
FC00FC
FC00FE
FC00FE
FC007F
FC007F
ENDCHAR
STARTCHAR 0053
ENCODING 83
SWIDTH 585 0
DWIDTH 26 0
BBX 23 34 2 0
BITMAP
07FF80
1FFFFC
3FFFFC
7FFFFC
7FFFFC
7FFFFC
FE0000
FE0000
FC0000
FC0000
FC0000
FC0000
FE0000
FE0000
FFFFC0
7FFFF0
7FFFF8
3FFFFC
1FFFFC
0FFFFC
0001FE
0000FE
0000FE
00007E
00007E
00007E
0000FE
0000FE
7FFFFC
7FFFFC
7FFFFC
7FFFF8
7FFFF0
07FFC0
ENDCHAR
STARTCHAR 0054
ENCODING 84
SWIDTH 585 0
DWIDTH 26 0
BBX 24 35 1 -1
BITMAP
FFFFFF
FFFFFF
FFFFFF
FFFFFF
FFFFFF
FFFFFF
007E00
007E00
007E00
007E00
007E00
007E00
007E00
007E00
007E00
007E00
007E00
007E00
007E00
007E00
007E00
007E00
007E00
007E00
007E00
007E00
007E00
007E00
007E00
007E00
007E00
007E00
007E00
007E00
007E00
ENDCHAR
STARTCHAR 0055
ENCODING 85
SWIDTH 675 0
DWIDTH 30 0
BBX 25 35 3 -1
BITMAP
FC003F80
FC003F80
FC003F80
FC003F80
FC003F80
FC003F80
FC003F80
FC003F80
FC003F80
FC003F80
FC003F80
FC003F80
FC003F80
FC003F80
FC003F80
FC003F80
FC003F80
FC003F80
FC003F80
FC003F80
FC003F80
FC003F80
FC003F00
FC003F00
FC003F00
FC003F00
FE007F00
FE007F00
7F00FE00
7FFFFE00
7FFFFE00
3FFFFC00
1FFFF800
0FFFF000
03FFC000
ENDCHAR
STARTCHAR 0056
ENCODING 86
SWIDTH 675 0
DWIDTH 30 0
BBX 27 35 2 -1
BITMAP
FC0007E0
FE0007E0
FE000FE0
7E000FE0
7E000FC0
7F001FC0
7F001FC0
3F001F80
3F001F80
3F803F80
1F803F00
1F803F00
1FC07F00
1FC07F00
0FC07E00
0FC0FE00
0FE0FE00
07E0FC00
07E0FC00
07F1FC00
07F1F800
03F1F800
03F3F800
03FBF000
01FBF000
01FBF000
01FFF000
00FFE000
00FFE000
00FFE000
00FFC000
007FC000
007FC000
007F8000
003F8000
ENDCHAR
STARTCHAR 0057
ENCODING 87
SWIDTH 990 0
DWIDTH 44 0
BBX 41 35 2 -1
BITMAP
FC001FC01F80
FE001F803F80
FE001F803F80
7E003F803F00
7E003F803F00
7F003F007F00
7F003F007F00
3F007F007E00
3F807F007E00
3F807F007E00
1F807F00FE00
1F807F00FC00
1FC0FF80FC00
1FC0FF80FC00
0FC0FF81FC00
0FC0FFC1F800
0FE1FFC1F800
07E1FFC1F800
07E1FFC3F800
07F1FFE3F000
07F1FFE3F000
03F3FFE3F000
03F3F7F3F000
03FBF3F7E000
01FBF3F7E000
01FFE3FFE000
01FFE1FFE000
00FFE1FFC000
00FFE1FFC000
00FFC1FFC000
00FFC0FF8000
007FC0FF8000
007FC0FF8000
007F807F8000
003F807F0000
ENDCHAR
STARTCHAR 0058
ENCODING 88
SWIDTH 630 0
DWIDTH 28 0
BBX 25 35 2 -1
BITMAP
FE001F80
FE003F80
7F007F00
7F007F00
3F80FE00
1F80FE00
1FC1FC00
0FC1F800
0FE3F800
07E3F000
07F7F000
03F7E000
03FFE000
01FFC000
00FFC000
00FF8000
007F0000
007F0000
007F0000
00FF8000
00FFC000
01FFC000
03FFE000
03F7E000
07F7F000
07E3F000
0FE3F800
0FC1F800
1FC1FC00
1F80FC00
3F80FE00
3F007F00
7F007F00
FE003F80
FE003F80
ENDCHAR
STARTCHAR 0059
ENCODING 89
SWIDTH 652 0
DWIDTH 29 0
BBX 26 35 2 -1
BITMAP
FC001FC0
FE001FC0
7E001F80
7F003F80
7F003F00
3F007F00
3F807E00
1F80FE00
1F80FE00
1FC0FC00
0FC1FC00
0FE1F800
07E3F800
07E3F000
07F3F000
03F7E000
03FFE000
01FFE000
01FFC000
01FFC000
00FF8000
00FF8000
007F0000
007F0000
007F0000
007F0000
007F0000
007F0000
007F0000
007F0000
007F0000
007F0000
007F0000
007F0000
007F0000
ENDCHAR
STARTCHAR 005A
ENCODING 90
SWIDTH 562 0
DWIDTH 25 0
BBX 23 35 1 -1
BITMAP
FFFFFE
FFFFFE
FFFFFE
FFFFFE
FFFFFE
FFFFFE
0001FC
0003FC
0007F8
0007F0
000FF0
001FE0
001FE0
003FC0
003F80
007F80
00FF00
00FF00
01FE00
03FC00
03FC00
07F800
0FF800
0FF000
1FE000
1FE000
3FC000
7F8000
7F8000
FFFFFE
FFFFFE
FFFFFE
FFFFFE
FFFFFE
FFFFFE
ENDCHAR
STARTCHAR 005B
ENCODING 91
SWIDTH 337 0
DWIDTH 15 0
BBX 11 46 3 -9
BITMAP
0FE0
3FE0
7FE0
7FE0
FFE0
FE00
FE00
FC00
FC00
FC00
FC00
FC00
FC00
FC00
FC00
FC00
FC00
FC00
FC00
FC00
FC00
FC00
FC00
FC00
FC00
FC00
FC00
FC00
FC00
FC00
FC00
FC00
FC00
FC00
FC00
FC00
FC00
FC00
FC00
FE00
FE00
FFE0
7FE0
7FE0
3FE0
0FE0
ENDCHAR
STARTCHAR 005C
ENCODING 92
SWIDTH 450 0
DWIDTH 20 0
BBX 18 37 1 -3
BITMAP
FC0000
FE0000
7E0000
7E0000
7F0000
3F0000
3F0000
3F8000
1F8000
1F8000
1FC000
0FC000
0FC000
0FE000
07E000
07E000
07F000
03F000
03F000
03F800
01F800
01F800
01FC00
00FC00
00FC00
00FE00
007E00
007E00
007F00
003F00
003F00
003F80
001F80
001F80
001FC0
000FC0
000FC0
ENDCHAR
STARTCHAR 005D
ENCODING 93
SWIDTH 337 0
DWIDTH 15 0
BBX 11 46 1 -9
BITMAP
FE00
FF80
FFC0
FFC0
FFC0
0FE0
0FE0
07E0
07E0
07E0
07E0
07E0
07E0
07E0
07E0
07E0
07E0
07E0
07E0
07E0
07E0
07E0
07E0
07E0
07E0
07E0
07E0
07E0
07E0
07E0
07E0
07E0
07E0
07E0
07E0
07E0
07E0
07E0
07E0
0FE0
0FE0
FFC0
FFC0
FF80
FF80
FE00
ENDCHAR
STARTCHAR 005E
ENCODING 94
SWIDTH 382 0
DWIDTH 17 0
BBX 13 6 2 24
BITMAP
0F80
1FC0
1FE0
3FF0
7CF0
F078
ENDCHAR
STARTCHAR 005F
ENCODING 95
SWIDTH 675 0
DWIDTH 30 0
BBX 28 5 1 -1
BITMAP
FFFFFFF0
FFFFFFF0
FFFFFFF0
FFFFFFF0
FFFFFFF0
ENDCHAR
STARTCHAR 0060
ENCODING 96
SWIDTH 247 0
DWIDTH 11 0
BBX 9 6 1 24
BITMAP
F800
7C00
3E00
1E00
0F00
0780
ENDCHAR
STARTCHAR 0061
ENCODING 97
SWIDTH 517 0
DWIDTH 23 0
BBX 20 24 1 -1
BITMAP
07FF00
7FFFC0
7FFFE0
7FFFF0
7FFFF0
0007F0
0003F0
0003F0
0003F0
07FFF0
1FFFF0
3FFFF0
7FFFF0
7F03F0
FE03F0
FE03F0
FE03F0
FE03F0
FE1FF0
7FFFF0
7FFFF0
3FFFF0
1FF1F0
0FC1F0
ENDCHAR
STARTCHAR 0062
ENCODING 98
SWIDTH 562 0
DWIDTH 25 0
BBX 21 35 2 -1
BITMAP
FC0000
FC0000
FC0000
FC0000
FC0000
FC0000
FC0000
FC0000
FC0000
FC0000
FC0000
FC7F00
FFFFC0
FFFFE0
FFFFF0
FFFFF0
FE03F0
FC03F8
FC03F8
FC01F8
FC01F8
FC01F8
FC01F8
FC01F8
FC01F8
FC01F8
FC01F8
FC03F8
FE03F8
FFCFF0
FFFFF0
FFFFE0
FFFFE0
FCFFC0
F83F00
ENDCHAR
STARTCHAR 0063
ENCODING 99
SWIDTH 495 0
DWIDTH 22 0
BBX 19 26 2 -1
BITMAP
0FFC00
1FFFC0
3FFFC0
7FFFC0
7FFFC0
FE0000
FE0000
FC0000
FC0000
FC0000
FC0000
FC0000
FC0000
FC0000
FC0000
FC0000
FC0000
FC0000
FC0000
FE0000
7F0000
7FFFE0
7FFFE0
3FFFE0
1FFFE0
0FFF00
ENDCHAR
STARTCHAR 0064
ENCODING 100
SWIDTH 562 0
DWIDTH 25 0
BBX 21 35 2 -1
BITMAP
0001F8
0001F8
0001F8
0001F8
0001F8
0001F8
0001F8
0001F8
0001F8
0001F8
0001F8
0FE1F8
3FFDF8
3FFFF8
7FFFF8
7FFFF8
FE03F8
FE01F8
FC01F8
FC01F8
FC01F8
FC01F8
FC01F8
FC01F8
FC01F8
FC01F8
FC01F8
FC01F8
FE03F8
FF3FF8
7FFFF8
7FFFF8
3FFDF8
1FF9F8
0FC1F8
ENDCHAR
STARTCHAR 0065
ENCODING 101
SWIDTH 517 0
DWIDTH 23 0
BBX 20 26 2 -1
BITMAP
07FE00
1FFFC0
3FFFE0
7FFFE0
7FFFE0
FE07F0
FC03F0
FC03F0
FC03F0
FC03F0
FC07F0
FFFFF0
FFFFE0
FFFFE0
FFFFC0
FC0000
FC0000
FC0000
FC0000
FE0000
FF0010
7FFFF0
7FFFF0
3FFFF0
3FFFF0
0FFF80
ENDCHAR
STARTCHAR 0066
ENCODING 102
SWIDTH 405 0
DWIDTH 18 0
BBX 16 37 1 -1
BITMAP
01FC
07FF
0FFF
0FFF
0FFF
1FC0
1FC0
1FC0
1FC0
1FC0
1FC0
7FFE
FFFE
FFFE
FFFE
FFFE
1FC0
1FC0
1FC0
1FC0
1FC0
1FC0
1FC0
1FC0
1FC0
1FC0
1FC0
1FC0
1FC0
1FC0
1FC0
1FC0
1FC0
1FC0
1FC0
1FC0
1FC0
ENDCHAR
STARTCHAR 0067
ENCODING 103
SWIDTH 562 0
DWIDTH 25 0
BBX 22 38 2 -13
BITMAP
0FFFFC
3FFFFC
7FFFFC
7FFFFC
FFFFF0
FE07F0
FC03F0
FC03F0
FC03F0
FC03F8
FC03F0
FC03F0
FE07F0
FFFFF0
7FFFE0
3FFFE0
7FFFC0
FFFF00
F80000
F80000
FC0000
FFFF80
FFFFE0
FFFFF0
7FFFF8
3FFFF8
7C03F8
FC01F8
FC01F8
FC01F8
FC01F8
FC01F8
FE03F8
FFFFF8
FFFFF8
7FFFF0
3FFFE0
0FFF80
ENDCHAR
STARTCHAR 0068
ENCODING 104
SWIDTH 540 0
DWIDTH 24 0
BBX 21 37 2 -1
BITMAP
FC0000
FC0000
FC0000
FC0000
FC0000
FC0000
FC0000
FC0000
FC0000
FC0000
FC0000
FC0000
FC3F80
FCFFC0
FDFFE0
FFFFF0
FFFFF0
FF83F8
FE03F8
FC03F8
FC01F8
FC01F8
FC01F8
FC01F8
FC01F8
FC01F8
FC01F8
FC01F8
FC01F8
FC01F8
FC01F8
FC01F8
FC01F8
FC01F8
FC01F8
FC01F8
FC01F8
ENDCHAR
STARTCHAR 0069
ENCODING 105
SWIDTH 225 0
DWIDTH 10 0
BBX 6 35 2 -1
BITMAP
FC
FC
FC
FC
FC
FC
00
00
00
FC
FC
FC
FC
FC
FC
FC
FC
FC
FC
FC
FC
FC
FC
FC
FC
FC
FC
FC
FC
FC
FC
FC
FC
FC
FC
ENDCHAR
STARTCHAR 006A
ENCODING 106
SWIDTH 247 0
DWIDTH 11 0
BBX 7 45 2 -11
BITMAP
FE
FE
FE
FE
FE
FE
00
00
00
FE
FE
FE
FE
FE
FE
FE
FE
FE
FE
FE
FE
FE
FE
FE
FE
FE
FE
FE
FE
FE
FE
FE
FE
FE
FE
FE
FC
FC
FC
FC
FC
FC
FC
F8
F8
ENDCHAR
STARTCHAR 006B
ENCODING 107
SWIDTH 562 0
DWIDTH 25 0
BBX 22 37 2 -1
BITMAP
FC0000
FC0000
FC0000
FC0000
FC0000
FC0000
FC0000
FC0000
FC0000
FC0000
FC0000
FC03FC
FC07F8
FC0FF0
FC0FE0
FC1FE0
FC3FC0
FC7F80
FCFF00
FCFE00
FFFE00
FFFC00
FFF800
FFFC00
FFFE00
FCFE00
FCFF00
FC7F00
FC3F80
FC3FC0
FC1FC0
FC1FE0
FC0FE0
FC07F0
FC07F8
FC03F8
FC03FC
ENDCHAR
STARTCHAR 006C
ENCODING 108
SWIDTH 315 0
DWIDTH 14 0
BBX 11 37 2 -1
BITMAP
FC00
FC00
FC00
FC00
FC00
FC00
FC00
FC00
FC00
FC00
FC00
FC00
FC00
FC00
FC00
FC00
FC00
FC00
FC00
FC00
FC00
FC00
FC00
FC00
FC00
FC00
FC00
FC00
FC00
FC00
FE00
FE00
FF80
7FE0
7FE0
3FE0
1FE0
ENDCHAR
STARTCHAR 006D
ENCODING 109
SWIDTH 877 0
DWIDTH 39 0
BBX 35 26 2 -1
BITMAP
F83F807E00
FCFFE3FF80
FDFFEFFFC0
FFFFFFFFC0
FFFFFFFFE0
FF87FE0FE0
FE03F807E0
FC03F807E0
FC03F807E0
FC03F807E0
FC03F807E0
FC03F807E0
FC03F807E0
FC03F807E0
FC03F807E0
FC03F807E0
FC03F807E0
FC03F807E0
FC03F807E0
FC03F807E0
FC03F807E0
FC03F807E0
FC03F807E0
FC03F807E0
FC03F807E0
FC03F807E0
ENDCHAR
STARTCHAR 006E
ENCODING 110
SWIDTH 540 0
DWIDTH 24 0
BBX 21 26 2 -1
BITMAP
F83F80
FCFFC0
FDFFE0
FFFFF0
FFFFF0
FF83F0
FE03F8
FC03F8
FC01F8
FC01F8
FC01F8
FC01F8
FC01F8
FC01F8
FC01F8
FC01F8
FC01F8
FC01F8
FC01F8
FC01F8
FC01F8
FC01F8
FC01F8
FC01F8
FC01F8
FC01F8
ENDCHAR
STARTCHAR 006F
ENCODING 111
SWIDTH 562 0
DWIDTH 25 0
BBX 21 26 2 -1
BITMAP
03FE00
1FFF80
3FFFE0
7FFFE0
7FFFF0
7F07F0
FE03F8
FC01F8
FC01F8
FC01F8
FC01F8
FC01F8
FC01F8
FC01F8
FC01F8
FC01F8
FC01F8
FC01F8
FC01F8
FE03F8
7F07F0
7FFFF0
7FFFF0
3FFFE0
1FFFC0
03FE00
ENDCHAR
STARTCHAR 0070
ENCODING 112
SWIDTH 562 0
DWIDTH 25 0
BBX 21 37 2 -12
BITMAP
F83F00
FCFFC0
FFFFE0
FFFFE0
FFFFF0
FFEFF0
FE03F0
FC03F8
FC03F8
FC01F8
FC01F8
FC01F8
FC01F8
FC01F8
FC01F8
FC01F8
FC01F8
FC03F8
FC03F8
FE07F0
FFFFF0
FFFFF0
FFFFE0
FFFFC0
FC7F00
FC0000
FC0000
FC0000
FC0000
FC0000
FC0000
FC0000
FC0000
FC0000
FC0000
FC0000
FC0000
ENDCHAR
STARTCHAR 0071
ENCODING 113
SWIDTH 562 0
DWIDTH 25 0
BBX 21 37 2 -12
BITMAP
07FF00
1FFFF8
3FFFF8
3FFFF8
7FFFF8
7F03F8
FE03F8
FC03F8
FC03F8
FC03F8
FC03F8
FC03F8
FC03F8
FC03F8
FC03F8
FC03F8
FC03F8
FC03F8
FE03F8
FE07F8
7FFFF8
7FFFF8
3FFFF8
1FFFF8
07F3F8
0003F8
0003F8
0003F8
0003F8
0003F8
0003F8
0003F8
0003F8
0003F8
0003F8
0003F8
0003F8
ENDCHAR
STARTCHAR 0072
ENCODING 114
SWIDTH 427 0
DWIDTH 19 0
BBX 16 26 2 -1
BITMAP
F83F
FCFF
FDFF
FFFF
FFFF
FFFF
FFC0
FF00
FE00
FC00
FC00
FC00
FC00
FC00
FC00
FC00
FC00
FC00
FC00
FC00
FC00
FC00
FC00
FC00
FC00
FC00
ENDCHAR
STARTCHAR 0073
ENCODING 115
SWIDTH 517 0
DWIDTH 23 0
BBX 20 26 1 -1
BITMAP
0FFF00
3FFFE0
7FFFE0
7FFFE0
FFFFE0
FE0000
FE0000
FE0000
FE0000
FE0000
FF0000
FFFFC0
7FFFE0
7FFFF0
3FFFF0
0FFFF0
0003F0
0003F0
0003F0
0003F0
0007F0
7FFFF0
7FFFF0
7FFFE0
7FFFE0
07FF80
ENDCHAR
STARTCHAR 0074
ENCODING 116
SWIDTH 382 0
DWIDTH 17 0
BBX 15 33 1 -1
BITMAP
0FC0
0FC0
0FC0
0FC0
0FC0
0FC0
0FC0
3FFE
FFFE
FFFE
FFFE
FFFE
1FC0
1FC0
1FC0
1FC0
1FC0
1FC0
1FC0
1FC0
1FC0
1FC0
1FC0
1FC0
1FC0
1FC0
0FC0
0FE0
0FF8
0FFE
07FE
07FE
01FE
ENDCHAR
STARTCHAR 0075
ENCODING 117
SWIDTH 540 0
DWIDTH 24 0
BBX 20 26 2 -1
BITMAP
FC03F0
FC03F0
FC03F0
FC03F0
FC03F0
FC03F0
FC03F0
FC03F0
FC03F0
FC03F0
FC03F0
FC03F0
FC03F0
FC03F0
FC03F0
FC03F0
FC03F0
FC03F0
FC03F0
FC07F0
FE1FF0
FFFFF0
7FFFF0
7FFFF0
3FF1F0
0FC1F0
ENDCHAR
STARTCHAR 0076
ENCODING 118
SWIDTH 562 0
DWIDTH 25 0
BBX 23 26 1 -1
BITMAP
FC007E
FE00FE
FE00FE
7E00FC
7F01FC
7F01FC
3F01F8
3F01F8
3F83F8
1F83F0
1F83F0
1FC7F0
0FC7E0
0FC7E0
0FC7E0
07EFC0
07EFC0
07EFC0
07FF80
03FF80
03FF80
03FF00
01FF00
01FF00
01FE00
00FE00
ENDCHAR
STARTCHAR 0077
ENCODING 119
SWIDTH 832 0
DWIDTH 37 0
BBX 35 26 1 -1
BITMAP
FC01F80FE0
FE01F80FE0
FE01F80FC0
7E03F80FC0
7F03F01FC0
7F03F01F80
3F03F01F80
3F07F03F80
3F87F03F80
3F87F83F00
1F87F83F00
1F87F87F00
1FCFFC7E00
0FCFFC7E00
0FCFFE7E00
0FCFFEFE00
0FFFFEFC00
07FFFFFC00
07FF3FFC00
07FF3FF800
03FF3FF800
03FF1FF800
03FE1FF000
03FE0FF000
01FE0FF000
01FC0FF000
ENDCHAR
STARTCHAR 0078
ENCODING 120
SWIDTH 562 0
DWIDTH 25 0
BBX 23 26 1 -1
BITMAP
FF00FE
7F01FE
7F81FC
3F83F8
1FC3F8
1FC7F0
0FEFF0
0FEFE0
07FFC0
03FFC0
03FF80
01FF00
00FF00
00FF00
01FF00
03FF80
03FF80
07FFC0
0FFFE0
0FEFE0
1FC7F0
1FC3F0
3F83F8
7F81FC
7F01FC
FF00FE
ENDCHAR
STARTCHAR 0079
ENCODING 121
SWIDTH 585 0
DWIDTH 26 0
BBX 24 36 1 -11
BITMAP
FC007F
FE007E
FE007E
7E00FE
7E00FE
7F00FC
7F00FC
3F01FC
3F01FC
3F81F8
3F81F8
1F83F8
1F83F8
1FC3F0
1FC3F0
0FC7F0
0FC7F0
0FE7E0
07FFE0
07FFE0
07FFC0
03FFC0
01FFC0
001FC0
001F80
001F80
001F80
003F80
003F00
003F00
007F00
007E00
007E00
007C00
00F800
00F800
ENDCHAR
STARTCHAR 007A
ENCODING 122
SWIDTH 472 0
DWIDTH 21 0
BBX 19 25 1 0
BITMAP
FFFFE0
FFFFE0
FFFFE0
FFFFE0
FFFFE0
001FE0
003FC0
003FC0
007F80
00FF00
01FE00
01FE00
03FC00
07F800
07F800
0FF000
1FE000
3FE000
3FC000
7F8000
7FFFE0
7FFFE0
7FFFE0
7FFFE0
7FFFE0
ENDCHAR
STARTCHAR 007B
ENCODING 123
SWIDTH 315 0
DWIDTH 14 0
BBX 13 46 1 -9
BITMAP
00F8
03F8
07F8
0FF8
0FF8
1FE0
1FC0
1F80
1F80
1F80
1F80
1F80
1F80
1F80
1F80
1F80
1F80
1F80
1F80
7F80
FF00
FE00
FC00
FF00
7F80
3F80
1F80
1F80
1F80
1F80
1F80
1F80
1F80
1F80
1F80
1F80
1F80
1F80
1F80
1FC0
1FC0
1FF8
0FF8
07F8
03F8
00F8
ENDCHAR
STARTCHAR 007C
ENCODING 124
SWIDTH 247 0
DWIDTH 11 0
BBX 5 37 3 -3
BITMAP
F8
F8
F8
F8
F8
F8
F8
F8
F8
F8
F8
F8
F8
F8
F8
F8
F8
F8
F8
F8
F8
F8
F8
F8
F8
F8
F8
F8
F8
F8
F8
F8
F8
F8
F8
F8
F8
ENDCHAR
STARTCHAR 007D
ENCODING 125
SWIDTH 315 0
DWIDTH 14 0
BBX 13 46 1 -9
BITMAP
F000
FC00
FE00
FF00
FF80
3F80
1F80
1F80
1F80
1F80
1F80
1F80
1F80
1F80
1F80
1F80
1F80
1F80
1FC0
1FE0
0FF8
07F8
03F8
0FF8
0FF0
1FC0
1F80
1F80
1F80
1F80
1F80
1F80
1F80
1F80
1F80
1F80
1F80
1F80
1F80
1F80
3F80
FF80
FF00
FF00
FC00
F000
ENDCHAR
STARTCHAR 007E
ENCODING 126
SWIDTH 427 0
DWIDTH 19 0
BBX 15 5 2 25
BITMAP
1E0C
7FFE
FFFC
FFF8
E0F0
ENDCHAR
STARTCHAR 00A1
ENCODING 161
SWIDTH 270 0
DWIDTH 12 0
BBX 6 32 3 -12
BITMAP
FC
FC
FC
FC
FC
FC
00
00
00
FC
FC
FC
FC
FC
FC
FC
FC
FC
FC
FC
FC
FC
FC
FC
FC
FC
FC
FC
FC
FC
FC
FC
ENDCHAR
STARTCHAR 00A2
ENCODING 162
SWIDTH 495 0
DWIDTH 22 0
BBX 19 32 1 -5
BITMAP
00F000
00F000
00F000
00F000
07FF00
1FFFE0
3FFFE0
3FFFE0
7FFFE0
7F0000
7E0000
7E0000
FE0000
FE0000
FE0000
FE0000
FE0000
FE0000
FE0000
FE0000
7E0000
7E0000
7F0000
7FFFE0
3FFFE0
3FFFE0
1FFFE0
07FF00
00F000
00F000
00F000
00F000
ENDCHAR
STARTCHAR 00A3
ENCODING 163
SWIDTH 585 0
DWIDTH 26 0
BBX 22 35 2 -1
BITMAP
007FF0
03FFFC
07FFFC
0FFFFC
0FFFFC
1FFFFC
1FC000
1F8000
1F8000
1F8000
1F8000
1F8000
1F8000
1F8000
1F8000
1F8000
7FFFC0
FFFFE0
FFFFE0
FFFFE0
1F8000
1F8000
1F8000
1F8000
1F8000
1F8000
1F8000
1F8000
1F8000
3FFFFC
FFFFFC
FFFFFC
FFFFFC
FFFFFC
FFFFFC
ENDCHAR
STARTCHAR 00A4
ENCODING 164
SWIDTH 450 0
DWIDTH 20 0
BBX 16 16 2 6
BITMAP
67C6
FFFF
7FFE
3FFC
783C
781E
701E
701E
781E
781E
3C3C
3FFC
7FFE
FFFF
600E
0004
ENDCHAR
STARTCHAR 00A5
ENCODING 165
SWIDTH 630 0
DWIDTH 28 0
BBX 26 35 1 -1
BITMAP
FE001FC0
FE001FC0
7E001F80
7F003F80
3F003F00
3F807F00
1F807E00
1F80FE00
1FC0FC00
0FC0FC00
0FE1F800
07E1F800
07E3F000
03F3F000
03F7F000
01FFE000
01FFE000
01FFC000
00FFC000
1FFFFC00
1FFFFC00
1FFFFC00
1FFFFC00
003F0000
1FFFFC00
1FFFFC00
1FFFFC00
1FFFFC00
003F0000
003F0000
003F0000
003F0000
003F0000
003F0000
003F0000
ENDCHAR
STARTCHAR 00A6
ENCODING 166
SWIDTH 247 0
DWIDTH 11 0
BBX 5 37 3 -3
BITMAP
F8
F8
F8
F8
F8
F8
F8
F8
F8
F8
F8
F8
F8
F8
F8
00
00
00
00
00
00
00
00
F8
F8
F8
F8
F8
F8
F8
F8
F8
F8
F8
F8
F8
F8
ENDCHAR
STARTCHAR 00A7
ENCODING 167
SWIDTH 540 0
DWIDTH 24 0
BBX 20 36 2 0
BITMAP
1FFE00
3FFFE0
7FFFE0
FFFFE0
FFFFE0
FE0000
FC0000
FC0000
FC0000
FE0000
FFFF80
FFFFE0
7FFFF0
3FFFF0
7FFFF0
FC03F0
FC03F0
FC03F0
FC03F0
FC03F0
FC03F0
FFFFE0
FFFFC0
FFFFE0
7FFFF0
1FFFF0
0003F0
0003F0
0003F0
0003F0
0003F0
7FFFF0
7FFFF0
7FFFE0
7FFFE0
3FFF80
ENDCHAR
STARTCHAR 00A8
ENCODING 168
SWIDTH 450 0
DWIDTH 20 0
BBX 16 5 2 23
BITMAP
700E
F81F
F81F
F81F
700E
ENDCHAR
STARTCHAR 00A9
ENCODING 169
SWIDTH 810 0
DWIDTH 36 0
BBX 32 35 2 -1
BITMAP
00FFFF80
07FFFFE0
0FFFFFF0
1FFFFFF8
3F0000F8
3E00007C
7C00003C
780FF03E
783FFC1E
783FFC1E
F07FFC1E
F078001E
F0F8001F
F0F0000F
F0F0000F
F0F0000F
F0F0000F
F0F0000F
F0F0000F
F0F0000F
F0F0000F
F0F0001F
F0F8001E
F078021E
787FFE1E
783FFE1E
783FFE3E
7C0FF03C
3C00003C
3E00007C
1F0000F8
0FFFFFF0
07FFFFE0
03FFFFC0
00FFFF80
ENDCHAR
STARTCHAR 00AA
ENCODING 170
SWIDTH 360 0
DWIDTH 16 0
BBX 14 21 1 12
BITMAP
0FC0
7FF8
7FFC
7FFC
007C
007C
007C
3FFC
7FFC
FC7C
F87C
F87C
F8FC
FFFC
7FFC
7F3C
0C00
0000
FFFC
FFFC
FFFC
ENDCHAR
STARTCHAR 00AB
ENCODING 171
SWIDTH 585 0
DWIDTH 26 0
BBX 22 18 2 6
BITMAP
000020
00C070
01E0F8
03F1FC
07E3F8
0FC7F0
3F8FE0
7F1FC0
FE3F80
FE3F00
7F1F80
3F8FC0
1FC7E0
0FE3F8
07F1FC
03F0FC
01E078
00C030
ENDCHAR
STARTCHAR 00AC
ENCODING 172
SWIDTH 495 0
DWIDTH 22 0
BBX 19 9 1 7
BITMAP
FFFFE0
FFFFE0
FFFFE0
FFFFE0
FFFFE0
0003E0
0003E0
0003E0
0003E0
ENDCHAR
STARTCHAR 00AD
ENCODING 173
SWIDTH 360 0
DWIDTH 16 0
BBX 14 5 1 10
BITMAP
FFFC
FFFC
FFFC
FFFC
FFFC
ENDCHAR
STARTCHAR 00AE
ENCODING 174
SWIDTH 810 0
DWIDTH 36 0
BBX 32 35 2 -1
BITMAP
00FFFF80
07FFFFE0
0FFFFFF0
1FFFFFF8
3F0000F8
3E00007C
7C00003C
787FE03E
787FF81E
787FFC1E
F07FFE1E
F0783E1E
F0781E1F
F0781E0F
F0781E0F
F0781E0F
F07FFE0F
F07FFC0F
F07FFC0F
F07FF00F
F078F00F
F078F01F
F078781E
F078781E
78787C1E
78783C1E
78783E3E
7C781E3C
3C00003C
3E00007C
1F8000F8
0FFFFFF0
07FFFFF0
03FFFFC0
00FFFF00
ENDCHAR
STARTCHAR 00AF
ENCODING 175
SWIDTH 360 0
DWIDTH 16 0
BBX 13 4 2 23
BITMAP
FFF8
FFF8
FFF8
FFF8
ENDCHAR
STARTCHAR 00B0
ENCODING 176
SWIDTH 270 0
DWIDTH 12 0
BBX 9 10 2 24
BITMAP
3C00
7F00
FF00
E380
C380
C380
E700
FF00
7E00
0800
ENDCHAR
STARTCHAR 00B1
ENCODING 177
SWIDTH 495 0
DWIDTH 22 0
BBX 18 26 2 3
BITMAP
03F000
03F000
03F000
03F000
03F000
03F000
03F000
FFFFC0
FFFFC0
FFFFC0
FFFFC0
FFFFC0
03F000
03F000
03F000
03F000
03F000
03F000
03F000
000000
000000
FFFFC0
FFFFC0
FFFFC0
FFFFC0
FFFFC0
ENDCHAR
STARTCHAR 00B2
ENCODING 178
SWIDTH 405 0
DWIDTH 18 0
BBX 15 21 1 17
BITMAP
FFF8
FFFC
FFFE
FFFE
003E
003E
003E
003E
003E
007C
00FC
01F8
03F0
07E0
1FC0
3F80
7F00
FFFE
FFFE
FFFE
FFFE
ENDCHAR
STARTCHAR 00B3
ENCODING 179
SWIDTH 405 0
DWIDTH 18 0
BBX 15 21 1 16
BITMAP
FFF8
FFFC
FFFE
FFFE
003E
003E
003E
003E
07FE
3FFC
3FF8
3FFC
3EFE
003E
003E
003E
003E
FFFE
FFFE
FFFC
FFF8
ENDCHAR
STARTCHAR 00B4
ENCODING 180
SWIDTH 247 0
DWIDTH 11 0
BBX 9 6 1 24
BITMAP
1F80
1F00
3E00
7C00
7800
F000
ENDCHAR
STARTCHAR 00B5
ENCODING 181
SWIDTH 585 0
DWIDTH 26 0
BBX 21 38 3 -13
BITMAP
FC01F8
FC01F8
FC01F8
FC01F8
FC01F8
FC01F8
FC01F8
FC01F8
FC01F8
FC01F8
FC01F8
FC01F8
FC01F8
FC01F8
FC01F8
FC01F8
FC01F8
FC01F8
FC01F8
FC03F8
FE07F8
FFFFF8
FFFFF8
FFFFF8
FFF9F8
FFE0F8
FC0000
FC0000
FC0000
FC0000
FC0000
FC0000
FC0000
FC0000
FC0000
FC0000
FC0000
FC0000
ENDCHAR
STARTCHAR 00B6
ENCODING 182
SWIDTH 585 0
DWIDTH 26 0
BBX 24 45 1 -11
BITMAP
0FFFFF
3FFFFF
7FFFFF
7FFFFF
7FFFFF
F83C7C
F83C7C
F83C7C
F83C7C
F83C7C
F83C7C
F83C7C
FC3C7C
7FFC7C
7FFC7C
3FFC7C
1FFC7C
003C7C
003C7C
003C7C
003C7C
003C7C
003C7C
003C7C
003C7C
003C7C
003C7C
003C7C
003C7C
003C7C
003C7C
003C7C
003C7C
003C7C
003C7C
003C00
003C00
003C00
003C00
003C00
003C00
003C00
003C00
003C00
003C00
ENDCHAR
STARTCHAR 00B7
ENCODING 183
SWIDTH 270 0
DWIDTH 12 0
BBX 6 6 3 14
BITMAP
FC
FC
FC
FC
FC
FC
ENDCHAR
STARTCHAR 00B8
ENCODING 184
SWIDTH 247 0
DWIDTH 11 0
BBX 7 6 2 -8
BITMAP
1E
1E
3E
FE
FC
F8
ENDCHAR
STARTCHAR 00B9
ENCODING 185
SWIDTH 270 0
DWIDTH 12 0
BBX 9 21 1 17
BITMAP
1F80
7F80
FF80
FF80
EF80
0F80
0F80
0F80
0F80
0F80
0F80
0F80
0F80
0F80
0F80
0F80
0F80
0F80
0F80
0F80
0F80
ENDCHAR
STARTCHAR 00BA
ENCODING 186
SWIDTH 405 0
DWIDTH 18 0
BBX 16 22 1 12
BITMAP
0FF0
3FFC
7FFC
7FFE
FC3E
F83E
F81E
F81E
F81F
F81E
F81E
F83E
FC3E
7FFE
7FFC
3FF8
07E0
0000
0000
7FFE
7FFE
7FFE
ENDCHAR
STARTCHAR 00BB
ENCODING 187
SWIDTH 585 0
DWIDTH 26 0
BBX 22 17 2 7
BITMAP
300C00
781E00
FC3F00
7F3F80
3F9FC0
1FCFE0
0FE7F0
07F1F8
07F1FC
0FE3F8
1FC7F0
3F8FE0
7F1FC0
FE3F80
FC3F00
781E00
300C00
ENDCHAR
STARTCHAR 00BC
ENCODING 188
SWIDTH 922 0
DWIDTH 41 0
BBX 40 35 1 0
BITMAP
0000007C00
1F80007800
7F8000F800
FF8001F000
FF8001E000
FF8003E000
0F8003C000
0F8007C000
0F80078000
0F800F8000
0F800F0000
0F801F0000
0F801E0000
0F803E07C0
0F803C0F80
0F807C0F80
0F80781F00
0F80F81F00
0F80F03E00
0F81F03E3C
0F83E07E7C
0F83C07C7C
0F87C0FC7C
0F8780F87C
000F81F87C
000F01F07C
001F03FFFF
001E03FFFF
003E07FFFF
003C03FFFF
007C03FFFC
007800007C
00F800007C
00F000007C
01F000007C
ENDCHAR
STARTCHAR 00BD
ENCODING 189
SWIDTH 990 0
DWIDTH 44 0
BBX 42 36 1 -1
BITMAP
000000780000
1F8000F80000
3F8000F00000
FF8001F00000
FF8001E00000
FF8003E00000
8F8003C00000
0F8007C00000
0F8007800000
0F800F800000
0F800F000000
0F801F000000
0F801E000000
0F803E07FC00
0F803C3FFF00
0F807C3FFF80
0F80F83FFF80
0F80F03E3F80
0F81F0000FC0
0F81E00007C0
0F83E00007C0
0F83C0000F80
0F87C0000F80
0F8780001F80
000F80003F00
000F00007F00
001F00007E00
001E0001FC00
003E0003F800
003C0007F000
007C000FE000
0078001FC000
00F8003FFFC0
00F0003FFFC0
01F0003FFFC0
01E0003FFFC0
ENDCHAR
STARTCHAR 00BE
ENCODING 190
SWIDTH 1035 0
DWIDTH 46 0
BBX 44 34 1 -1
BITMAP
00000003C000
3FF00007C000
FFFC00078000
FFFE000F0000
FFFE001F0000
A0FE001E0000
003E003E0000
001E003C0000
003E007C0000
00FE00780000
3FFE00F80000
3FFC00F00000
3FFC01F07C00
3FFE01E07C00
003E03C0F800
003E07C1F800
003E0781F000
003E0F83F000
F0FE0F03E3C0
FFFE1F07E7C0
FFFE1E07C7C0
FFFC3E0FC7C0
3FF03C0F87C0
00007C1F87C0
0000781F07C0
0000F03FFFF0
0001F03FFFF0
0001E07FFFF0
0003E03FFFF0
0003C03FFFC0
0007C00007C0
0007800007C0
000F800007C0
000F000007C0
ENDCHAR
STARTCHAR 00BF
ENCODING 191
SWIDTH 540 0
DWIDTH 24 0
BBX 22 33 1 -12
BITMAP
003F00
003F00
003F00
003F00
003F00
003F00
000000
000000
000000
003E00
003E00
003E00
003E00
07FE00
1FFE00
3FFE00
7FFE00
7FFE00
7F0000
FE0000
FE0000
FE0000
FE0000
FE0000
FE0000
FE0000
7F8000
7FFFFC
7FFFFC
3FFFFC
1FFFFC
0FFFFC
01FF80
ENDCHAR
STARTCHAR 00C0
ENCODING 192
SWIDTH 697 0
DWIDTH 31 0
BBX 28 44 2 -1
BITMAP
01F00000
00F80000
007C0000
003C0000
001E0000
001F0000
00000000
00000000
00000000
003FC000
003FC000
003FC000
007FE000
007FE000
007FE000
00FFF000
00FFF000
00FFF000
01FFF000
01FDF800
01F9F800
01F9F800
03F9FC00
03F0FC00
03F0FC00
07F0FE00
07E07E00
07E07E00
0FE07E00
0FC07F00
0FFFFF00
1FFFFF00
1FFFFF80
1FFFFF80
3FFFFF80
3FFFFFC0
3F001FC0
3F000FC0
7F000FC0
7E000FE0
7E000FE0
FE0007E0
FE0007F0
FC0007F0
ENDCHAR
STARTCHAR 00C1
ENCODING 193
SWIDTH 697 0
DWIDTH 31 0
BBX 28 44 2 -1
BITMAP
0000F800
0001F000
0003E000
0003C000
00078000
000F8000
00000000
00000000
00000000
003FC000
003FC000
003FC000
007FE000
007FE000
007FE000
00FFF000
00FFF000
00FFF000
01FFF000
01FDF800
01F9F800
01F9F800
03F9FC00
03F0FC00
03F0FC00
07F0FE00
07E07E00
07E07E00
0FE07E00
0FC07F00
0FFFFF00
1FFFFF00
1FFFFF80
1FFFFF80
3FFFFF80
3FFFFFC0
3F001FC0
3F000FC0
7F000FC0
7E000FE0
7E000FE0
FE0007E0
FE0007F0
FC0007F0
ENDCHAR
STARTCHAR 00C2
ENCODING 194
SWIDTH 697 0
DWIDTH 31 0
BBX 28 44 2 -1
BITMAP
000F8000
001FC000
003FC000
007FE000
00F9F000
00F0F000
00000000
00000000
00000000
003FC000
003FC000
003FC000
007FE000
007FE000
007FE000
00FFF000
00FFF000
00FFF000
01FFF000
01FDF800
01F9F800
01F9F800
03F9FC00
03F0FC00
03F0FC00
07F0FE00
07E07E00
07E07E00
0FE07E00
0FC07F00
0FFFFF00
1FFFFF00
1FFFFF80
1FFFFF80
3FFFFF80
3FFFFFC0
3F001FC0
3F000FC0
7F000FC0
7E000FE0
7E000FE0
FE0007E0
FE0007F0
FC0007F0
ENDCHAR
STARTCHAR 00C3
ENCODING 195
SWIDTH 697 0
DWIDTH 31 0
BBX 28 44 2 -1
BITMAP
00000800
003C1800
00FFF800
01FFF800
01FFF000
0183E000
00000000
00000000
00000000
003FC000
003FC000
003FC000
007FE000
007FE000
007FE000
00FFF000
00FFF000
00FFF000
01FFF000
01FDF800
01F9F800
01F9F800
03F9FC00
03F0FC00
03F0FC00
07F0FE00
07E07E00
07E07E00
0FE07E00
0FC07F00
0FFFFF00
1FFFFF00
1FFFFF80
1FFFFF80
3FFFFF80
3FFFFFC0
3F001FC0
3F000FC0
7F000FC0
7E000FE0
7E000FE0
FE0007E0
FE0007F0
FC0007F0
ENDCHAR
STARTCHAR 00C4
ENCODING 196
SWIDTH 697 0
DWIDTH 31 0
BBX 28 43 2 -1
BITMAP
01C03800
03E07C00
03E07C00
03E07C00
01C03800
00000000
00000000
00000000
003FC000
003FC000
003FC000
007FE000
007FE000
007FE000
00FFF000
00FFF000
00FFF000
01FFF000
01FDF800
01F9F800
01F9F800
03F9FC00
03F0FC00
03F0FC00
07F0FE00
07E07E00
07E07E00
0FE07E00
0FC07F00
0FFFFF00
1FFFFF00
1FFFFF80
1FFFFF80
3FFFFF80
3FFFFFC0
3F001FC0
3F000FC0
7F000FC0
7E000FE0
7E000FE0
FE0007E0
FE0007F0
FC0007F0
ENDCHAR
STARTCHAR 00C5
ENCODING 197
SWIDTH 697 0
DWIDTH 31 0
BBX 28 42 2 -1
BITMAP
00060000
001F8000
003FC000
0039C000
0030C000
0030C000
0039C000
003FC000
001F8000
003FC000
003FC000
003FC000
007FE000
007FE000
007FE000
00FFF000
00FFF000
00FFF000
01FFF800
01F9F800
01F9F800
03F9F800
03F8FC00
03F0FC00
07F0FC00
07E0FE00
07E07E00
0FE07E00
0FE07F00
0FFFFF00
1FFFFF00
1FFFFF80
1FFFFF80
3FFFFF80
3FFFFFC0
3F001FC0
7F000FC0
7F000FE0
7E000FE0
FE0007E0
FE0007F0
FC0007F0
ENDCHAR
STARTCHAR 00C6
ENCODING 198
SWIDTH 945 0
DWIDTH 42 0
BBX 40 35 1 -1
BITMAP
00000FFFF8
00007FFFFF
0000FFFFFF
0001FFFFFF
0003FFFFFF
0007FFFFFF
0007FFC000
000FFF8000
000FFF8000
001FFF8000
001FDF8000
001FDF8000
003F9F8000
003F9F8000
007F1F8000
007F1FFFFC
00FE1FFFFC
00FE1FFFFC
01FC1FFFFC
01FC1FFFFC
03FFFFFF80
03FFFF8000
07FFFF8000
07FFFF8000
0FFFFF8000
0FFFFF8000
0FE01F8000
1FC01F8000
1FC01FC000
3F801FFFFF
3F801FFFFF
7F001FFFFF
7F000FFFFF
FE0007FFFF
000003FFF0
ENDCHAR
STARTCHAR 00C7
ENCODING 199
SWIDTH 562 0
DWIDTH 25 0
BBX 22 41 2 -9
BITMAP
01FFC0
07FFFC
1FFFFC
1FFFFC
3FFFFC
7FFFFC
7F8000
7F0000
FE0000
FE0000
FC0000
FC0000
FC0000
FC0000
FC0000
FC0000
FC0000
FC0000
FC0000
FC0000
FC0000
FC0000
FE0000
FE0000
7E0000
7F0000
7F8000
3FFFFC
3FFFFC
1FFFFC
0FFFFC
07FFFC
01FFE0
000000
03E000
03C000
03C000
0FC000
1FC000
1F8000
1E0000
ENDCHAR
STARTCHAR 00C8
ENCODING 200
SWIDTH 562 0
DWIDTH 25 0
BBX 21 43 3 -1
BITMAP
0FC000
07C000
03E000
01F000
00F000
007800
003C00
000000
0FFFC0
3FFFF8
7FFFF8
FFFFF8
FFFFF8
FFFFF8
FC0000
FC0000
FC0000
FC0000
FC0000
FC0000
FC0000
FC0000
FC0000
FFFFE0
FFFFE0
FFFFE0
FFFFE0
FFFFE0
FFFC00
FC0000
FC0000
FC0000
FC0000
FC0000
FC0000
FC0000
FC0000
FFFFF8
FFFFF8
FFFFF8
7FFFF8
3FFFF8
1FFF00
ENDCHAR
STARTCHAR 00C9
ENCODING 201
SWIDTH 562 0
DWIDTH 25 0
BBX 21 42 3 -1
BITMAP
0007C0
000F80
001F00
001E00
003C00
007800
000000
0FFFC0
3FFFF8
7FFFF8
FFFFF8
FFFFF8
FFFFF8
FC0000
FC0000
FC0000
FC0000
FC0000
FC0000
FC0000
FC0000
FC0000
FFFFE0
FFFFE0
FFFFE0
FFFFE0
FFFFE0
FFFC00
FC0000
FC0000
FC0000
FC0000
FC0000
FC0000
FC0000
FC0000
FFFFF8
FFFFF8
FFFFF8
7FFFF8
3FFFF8
1FFF00
ENDCHAR
STARTCHAR 00CA
ENCODING 202
SWIDTH 562 0
DWIDTH 25 0
BBX 21 42 3 -1
BITMAP
00FC00
00FE00
01FF00
03EF00
07C780
0F83C0
000000
0FFFC0
3FFFF8
7FFFF8
FFFFF8
FFFFF8
FFFFF8
FC0000
FC0000
FC0000
FC0000
FC0000
FC0000
FC0000
FC0000
FC0000
FFFFE0
FFFFE0
FFFFE0
FFFFE0
FFFFE0
FFFC00
FC0000
FC0000
FC0000
FC0000
FC0000
FC0000
FC0000
FC0000
FFFFF8
FFFFF8
FFFFF8
7FFFF8
3FFFF8
1FFF00
ENDCHAR
STARTCHAR 00CB
ENCODING 203
SWIDTH 562 0
DWIDTH 25 0
BBX 21 43 3 -1
BITMAP
0E01C0
1F03E0
1F03E0
1F03E0
1E01C0
000000
000000
000000
0FFFC0
3FFFF8
7FFFF8
FFFFF8
FFFFF8
FFFFF8
FC0000
FC0000
FC0000
FC0000
FC0000
FC0000
FC0000
FC0000
FC0000
FFFFE0
FFFFE0
FFFFE0
FFFFE0
FFFFE0
FFFC00
FC0000
FC0000
FC0000
FC0000
FC0000
FC0000
FC0000
FC0000
FFFFF8
FFFFF8
FFFFF8
7FFFF8
7FFFF8
1FFF00
ENDCHAR
STARTCHAR 00CC
ENCODING 204
SWIDTH 247 0
DWIDTH 11 0
BBX 10 44 -1 -1
BITMAP
F800
7C00
3C00
3E00
1F00
0F00
0000
0000
0000
0FC0
0FC0
0FC0
0FC0
0FC0
0FC0
0FC0
0FC0
0FC0
0FC0
0FC0
0FC0
0FC0
0FC0
0FC0
0FC0
0FC0
0FC0
0FC0
0FC0
0FC0
0FC0
0FC0
0FC0
0FC0
0FC0
0FC0
0FC0
0FC0
0FC0
0FC0
0FC0
0FC0
0FC0
0FC0
ENDCHAR
STARTCHAR 00CD
ENCODING 205
SWIDTH 247 0
DWIDTH 11 0
BBX 10 44 3 -1
BITMAP
0FC0
0F80
1F00
3E00
3C00
7800
0000
0000
0000
FC00
FC00
FC00
FC00
FC00
FC00
FC00
FC00
FC00
FC00
FC00
FC00
FC00
FC00
FC00
FC00
FC00
FC00
FC00
FC00
FC00
FC00
FC00
FC00
FC00
FC00
FC00
FC00
FC00
FC00
FC00
FC00
FC00
FC00
FC00
ENDCHAR
STARTCHAR 00CE
ENCODING 206
SWIDTH 247 0
DWIDTH 11 0
BBX 13 44 -1 -1
BITMAP
0FC0
0FC0
1FE0
3FF0
7CF0
F878
0000
0000
0000
0FC0
0FC0
0FC0
0FC0
0FC0
0FC0
0FC0
0FC0
0FC0
0FC0
0FC0
0FC0
0FC0
0FC0
0FC0
0FC0
0FC0
0FC0
0FC0
0FC0
0FC0
0FC0
0FC0
0FC0
0FC0
0FC0
0FC0
0FC0
0FC0
0FC0
0FC0
0FC0
0FC0
0FC0
0FC0
ENDCHAR
STARTCHAR 00CF
ENCODING 207
SWIDTH 247 0
DWIDTH 11 0
BBX 17 43 -3 -1
BITMAP
780700
7C0F80
FC0F80
780F80
380700
000000
000000
000000
03F000
03F000
03F000
03F000
03F000
03F000
03F000
03F000
03F000
03F000
03F000
03F000
03F000
03F000
03F000
03F000
03F000
03F000
03F000
03F000
03F000
03F000
03F000
03F000
03F000
03F000
03F000
03F000
03F000
03F000
03F000
03F000
03F000
03F000
03F000
ENDCHAR
STARTCHAR 00D0
ENCODING 208
SWIDTH 652 0
DWIDTH 29 0
BBX 28 35 0 -1
BITMAP
1FFFF000
1FFFFC00
1FFFFE00
1FFFFF00
1FFFFF80
1FFFFFC0
1F801FC0
1F800FC0
1F800FE0
1F8007E0
1F8007E0
1F8007E0
1F8007F0
1F8007F0
1F8007F0
1F8007F0
FFFC07F0
FFFC07F0
FFFC07F0
1F8007F0
1F8007F0
1F8007F0
1F8007F0
1F8007E0
1F8007E0
1F8007E0
1F800FE0
1F800FC0
1F801FC0
1FFFFFC0
1FFFFF80
1FFFFF00
1FFFFE00
1FFFFC00
1FFFF000
ENDCHAR
STARTCHAR 00D1
ENCODING 209
SWIDTH 675 0
DWIDTH 30 0
BBX 25 43 3 0
BITMAP
00F06000
03FFF000
07FFF000
07FFE000
07078000
00000000
00000000
00000000
FC001F80
FE001F80
FE001F80
FF001F80
FF801F80
FF801F80
FFC01F80
FFC01F80
FFE01F80
FFE01F80
FFF01F80
FFF81F80
FFF81F80
FFFC1F80
FDFC1F80
FCFE1F80
FCFE1F80
FC7F1F80
FC7F9F80
FC3F9F80
FC3FDF80
FC1FDF80
FC0FFF80
FC0FFF80
FC07FF80
FC07FF80
FC03FF80
FC01FF80
FC01FF80
FC00FF80
FC00FF80
FC007F80
FC007F80
FC003F80
FC001F80
ENDCHAR
STARTCHAR 00D2
ENCODING 210
SWIDTH 675 0
DWIDTH 30 0
BBX 26 44 2 -1
BITMAP
03F00000
01F00000
00F80000
00780000
003C0000
001E0000
00000000
00000000
00000000
00FFE000
07FFF800
0FFFFC00
1FFFFE00
1FFFFF00
3FFFFF00
3F807F80
7F003F80
7E001F80
7E001FC0
7E000FC0
7E000FC0
FE000FC0
FE000FC0
FC000FC0
FC000FC0
FC000FC0
FC000FC0
FC000FC0
FC000FC0
FC000FC0
FE000FC0
FE000FC0
FE000FC0
7E000FC0
7E001FC0
7E001FC0
7F003F80
3F807F80
3FFFFF80
3FFFFF00
1FFFFE00
0FFFFC00
07FFF800
00FFE000
ENDCHAR
STARTCHAR 00D3
ENCODING 211
SWIDTH 675 0
DWIDTH 30 0
BBX 26 44 2 -1
BITMAP
0001F000
0003F000
0003E000
0007C000
000F8000
000F0000
00000000
00000000
00000000
00FFE000
07FFF800
0FFFFC00
1FFFFE00
1FFFFF00
3FFFFF00
3F807F80
7F003F80
7E001F80
7E001FC0
7E000FC0
7E000FC0
FE000FC0
FE000FC0
FC000FC0
FC000FC0
FC000FC0
FC000FC0
FC000FC0
FC000FC0
FC000FC0
FE000FC0
FE000FC0
FE000FC0
7E000FC0
7E001FC0
7E001FC0
7F003F80
3F807F80
3FFFFF80
3FFFFF00
1FFFFE00
0FFFFC00
07FFF800
00FFE000
ENDCHAR
STARTCHAR 00D4
ENCODING 212
SWIDTH 675 0
DWIDTH 30 0
BBX 26 44 2 -1
BITMAP
001F0000
003F8000
007F8000
007FC000
00FBE000
01E1F000
00000000
00000000
00000000
00FFE000
07FFF800
0FFFFC00
1FFFFE00
1FFFFF00
3FFFFF00
3F807F80
7F003F80
7E001F80
7E001FC0
7E000FC0
7E000FC0
FE000FC0
FE000FC0
FC000FC0
FC000FC0
FC000FC0
FC000FC0
FC000FC0
FC000FC0
FC000FC0
FE000FC0
FE000FC0
FE000FC0
7E000FC0
7E001FC0
7E001FC0
7F003F80
3F807F80
3FFFFF80
3FFFFF00
1FFFFE00
0FFFFC00
07FFF800
00FFE000
ENDCHAR
STARTCHAR 00D5
ENCODING 213
SWIDTH 675 0
DWIDTH 30 0
BBX 26 43 2 0
BITMAP
00783000
01FFF800
03FFF000
03FFE000
0383C000
00000000
00000000
00000000
00FFE000
07FFF800
0FFFFC00
1FFFFE00
1FFFFF00
3FFFFF00
3F807F80
7F003F80
7E001F80
7E001FC0
7E000FC0
7E000FC0
FE000FC0
FE000FC0
FC000FC0
FC000FC0
FC000FC0
FC000FC0
FC000FC0
FC000FC0
FC000FC0
FE000FC0
FE000FC0
FE000FC0
7E000FC0
7E001FC0
7E001FC0
7F003F80
3F807F80
3FFFFF80
3FFFFF00
1FFFFE00
0FFFFC00
07FFF800
00FFE000
ENDCHAR
STARTCHAR 00D6
ENCODING 214
SWIDTH 675 0
DWIDTH 30 0
BBX 26 43 2 -1
BITMAP
03807000
07C07800
07C0FC00
07C0F800
03807800
00000000
00000000
00000000
00FFE000
07FFF800
0FFFFC00
1FFFFE00
1FFFFF00
3FFFFF00
3F807F80
7F003F80
7E001F80
7E001FC0
7E000FC0
7E000FC0
FE000FC0
FE000FC0
FC000FC0
FC000FC0
FC000FC0
FC000FC0
FC000FC0
FC000FC0
FC000FC0
FE000FC0
FE000FC0
FE000FC0
7E000FC0
7E001FC0
7E001FC0
7F003F80
3F807F80
3FFFFF80
3FFFFF00
1FFFFE00
0FFFFC00
07FFF800
00FFE000
ENDCHAR
STARTCHAR 00D7
ENCODING 215
SWIDTH 450 0
DWIDTH 20 0
BBX 17 16 2 7
BITMAP
100C00
381E00
7C3F00
FE7F80
7FFF00
3FFE00
1FFC00
0FF800
0FF000
1FF800
3FFC00
7FFE00
FF7F00
FE3F00
7C1E00
180C00
ENDCHAR
STARTCHAR 00D8
ENCODING 216
SWIDTH 675 0
DWIDTH 30 0
BBX 27 35 2 -1
BITMAP
00FFE3C0
03FFFB80
0FFFFF00
1FFFFF00
1FFFFF00
3FFFFF80
3F803F80
3F003F80
7F007FC0
7E00FFC0
7E00EFC0
7E01CFC0
7E01CFC0
7E038FC0
FE078FC0
FE070FE0
FE0E0FE0
FE1E0FE0
FE1C0FE0
FE3C0FE0
FE380FC0
FE700FC0
7EF00FC0
7EE00FC0
7FC00FC0
7FC00FC0
7F801FC0
7F801F80
3F807F80
3FFFFF80
3FFFFF00
1FFFFF00
3FFFFE00
7FFFF800
70FFE000
ENDCHAR
STARTCHAR 00D9
ENCODING 217
SWIDTH 675 0
DWIDTH 30 0
BBX 25 44 3 -1
BITMAP
07C00000
03E00000
01F00000
00F00000
00780000
003C0000
00000000
00000000
00000000
FC003F80
FC003F80
FC003F80
FC003F80
FC003F80
FC003F80
FC003F80
FC003F80
FC003F80
FC003F80
FC003F80
FC003F80
FC003F80
FC003F80
FC003F80
FC003F80
FC003F80
FC003F80
FC003F80
FC003F80
FC003F80
FC003F80
FC003F00
FC003F00
FC003F00
FC003F00
FE007F00
FE007F00
7F00FE00
7FFFFE00
7FFFFE00
3FFFFC00
1FFFF800
0FFFF000
03FFC000
ENDCHAR
STARTCHAR 00DA
ENCODING 218
SWIDTH 675 0
DWIDTH 30 0
BBX 25 44 3 -1
BITMAP
0003E000
0007C000
000F8000
000F0000
001F0000
003E0000
00000000
00000000
00000000
FC003F80
FC003F80
FC003F80
FC003F80
FC003F80
FC003F80
FC003F80
FC003F80
FC003F80
FC003F80
FC003F80
FC003F80
FC003F80
FC003F80
FC003F80
FC003F80
FC003F80
FC003F80
FC003F80
FC003F80
FC003F80
FC003F80
FC003F00
FC003F00
FC003F00
FC003F00
FE007F00
FE007F00
7F00FE00
7FFFFE00
7FFFFE00
3FFFFC00
1FFFF800
0FFFF000
03FFC000
ENDCHAR
STARTCHAR 00DB
ENCODING 219
SWIDTH 675 0
DWIDTH 30 0
BBX 25 44 3 -1
BITMAP
003E0000
007F0000
00FF0000
01FF8000
01E7C000
03C3E000
00000000
00000000
00000000
FC003F80
FC003F80
FC003F80
FC003F80
FC003F80
FC003F80
FC003F80
FC003F80
FC003F80
FC003F80
FC003F80
FC003F80
FC003F80
FC003F80
FC003F80
FC003F80
FC003F80
FC003F80
FC003F80
FC003F80
FC003F80
FC003F80
FC003F00
FC003F00
FC003F00
FC003F00
FE007F00
FE007F00
7F00FE00
7FFFFE00
7FFFFE00
3FFFFC00
1FFFF800
0FFFF000
03FFC000
ENDCHAR
STARTCHAR 00DC
ENCODING 220
SWIDTH 675 0
DWIDTH 30 0
BBX 25 43 3 -1
BITMAP
0700F000
0F81F000
0F81F000
0F81F000
0700E000
00000000
00000000
00000000
FC003F80
FC003F80
FC003F80
FC003F80
FC003F80
FC003F80
FC003F80
FC003F80
FC003F80
FC003F80
FC003F80
FC003F80
FC003F80
FC003F80
FC003F80
FC003F80
FC003F80
FC003F80
FC003F80
FC003F80
FC003F80
FC003F80
FC003F00
FC003F00
FC003F00
FC003F00
FE007F00
FE007F00
7F00FE00
7FFFFE00
7FFFFE00
3FFFFC00
1FFFF800
0FFFF000
03FFC000
ENDCHAR
STARTCHAR 00DD
ENCODING 221
SWIDTH 652 0
DWIDTH 29 0
BBX 26 44 2 -1
BITMAP
0001F000
0003E000
0007C000
00078000
000F0000
001F0000
00000000
00000000
00000000
FC001FC0
FE001FC0
7E001F80
7F003F80
7F003F00
3F007F00
3F807E00
1F80FE00
1F80FE00
0FC0FC00
0FC1FC00
07E1F800
07E3F800
07E3F000
03F3F000
03F7E000
01FFE000
01FFE000
00FFC000
00FFC000
007F8000
007F8000
007F0000
007F0000
007F0000
007F0000
007F0000
007F0000
007F0000
007F0000
007F0000
007F0000
007F0000
007F0000
007F0000
ENDCHAR
STARTCHAR 00DE
ENCODING 222
SWIDTH 540 0
DWIDTH 24 0
BBX 21 32 2 -1
BITMAP
FC0000
FC0000
FC0000
FC0000
FC0000
FC0000
FFFF00
FFFFC0
FFFFE0
FFFFE0
FFFFF0
FFFFF0
FC03F0
FC03F8
FC03F8
FC03F8
FC03F8
FC03F0
FC03F0
FC07F0
FFFFF0
FFFFF0
FFFFE0
FFFFC0
FFFF80
FC3C00
FC0000
FC0000
FC0000
FC0000
FC0000
FC0000
ENDCHAR
STARTCHAR 00DF
ENCODING 223
SWIDTH 562 0
DWIDTH 25 0
BBX 23 36 2 -1
BITMAP
01FE00
0FFFC0
1FFFE0
3FFFF0
7FFFF8
7FFFF8
FF03F8
FE01FC
FE01FC
FC01FC
FC01F8
FC01F8
FC03F8
FC07F0
FC0FF0
FC1FE0
FC3FC0
FC3F80
FC3F00
FC3F00
FC3F00
FC3F80
FC3FE0
FC1FF8
FC07FC
FC01FC
FC00FE
FC007E
FC007E
FC00FE
FC01FE
FC7FFC
FC7FFC
FC7FFC
FC7FF8
FC3FE0
ENDCHAR
STARTCHAR 00E0
ENCODING 224
SWIDTH 517 0
DWIDTH 23 0
BBX 20 33 1 -1
BITMAP
0F8000
07C000
03C000
03E000
01F000
00F000
000000
000000
000000
07FF00
7FFFC0
7FFFE0
7FFFF0
7FFFF0
0007F0
0003F0
0003F0
0003F0
07FFF0
1FFFF0
3FFFF0
7FFFF0
7F03F0
FE03F0
FE03F0
FE03F0
FE03F0
FE1FF0
7FFFF0
7FFFF0
3FFFF0
1FF1F0
0FC1F0
ENDCHAR
STARTCHAR 00E1
ENCODING 225
SWIDTH 517 0
DWIDTH 23 0
BBX 20 33 1 -1
BITMAP
0007C0
000F80
001F00
001E00
003C00
007C00
000000
000000
000000
07FF00
7FFFC0
7FFFE0
7FFFF0
7FFFF0
0007F0
0003F0
0003F0
0003F0
07FFF0
1FFFF0
3FFFF0
7FFFF0
7F03F0
FE03F0
FE03F0
FE03F0
FE03F0
FE1FF0
7FFFF0
7FFFF0
3FFFF0
1FF1F0
0FC1F0
ENDCHAR
STARTCHAR 00E2
ENCODING 226
SWIDTH 517 0
DWIDTH 23 0
BBX 20 35 1 -1
BITMAP
00FC00
00FC00
01FE00
03FF00
07CF00
078780
080000
000000
000000
07FF00
7FFFC0
7FFFE0
7FFFE0
7FFFF0
4007F0
0003F0
0003F0
0003F0
0003F0
0FFFF0
3FFFF0
3FFFF0
7FFFF0
7FC3F0
FE03F0
FE03F0
FE03F0
FE03F0
FE07F0
FE1FF0
7FFFF0
7FFFF0
3FFFF0
3FF1F0
0FC1F0
ENDCHAR
STARTCHAR 00E3
ENCODING 227
SWIDTH 517 0
DWIDTH 23 0
BBX 20 33 1 -1
BITMAP
03C000
07F1C0
0FFFC0
1FFFC0
0C7F80
081E00
000000
000000
000000
07FF00
7FFFC0
7FFFE0
7FFFF0
7FFFF0
0007F0
0003F0
0003F0
0003F0
07FFF0
1FFFF0
3FFFF0
7FFFF0
7F03F0
FE03F0
FE03F0
FE03F0
FE03F0
FE1FF0
7FFFF0
7FFFF0
3FFFF0
1FF1F0
0FC1F0
ENDCHAR
STARTCHAR 00E4
ENCODING 228
SWIDTH 517 0
DWIDTH 23 0
BBX 20 32 1 -1
BITMAP
1E01C0
1F03E0
3F03E0
1E03E0
0E01C0
000000
000000
000000
07FF00
7FFFC0
7FFFE0
7FFFF0
7FFFF0
0007F0
0003F0
0003F0
0003F0
07FFF0
1FFFF0
3FFFF0
7FFFF0
7F03F0
FE03F0
FE03F0
FE03F0
FE03F0
FE1FF0
7FFFF0
7FFFF0
3FFFF0
1FF1F0
0FC1F0
ENDCHAR
STARTCHAR 00E5
ENCODING 229
SWIDTH 517 0
DWIDTH 23 0
BBX 20 36 1 -1
BITMAP
002000
00FC00
01FE00
01CE00
038600
038600
01CE00
01FE00
00FC00
003000
000000
000000
07FF00
7FFFC0
7FFFE0
7FFFF0
7FFFF0
0007F0
0003F0
0003F0
0003F0
07FFF0
1FFFF0
3FFFF0
7FFFF0
7F03F0
FE03F0
FE03F0
FE03F0
FE03F0
FE1FF0
7FFFF0
7FFFF0
3FFFF0
1FF1F0
0FC1F0
ENDCHAR
STARTCHAR 00E6
ENCODING 230
SWIDTH 832 0
DWIDTH 37 0
BBX 35 24 1 -1
BITMAP
0FFF0FFC00
7FFFFFFF80
7FFFFFFFC0
7FFFFFFFC0
7FFFFFFFE0
0003FC0FE0
0003F807E0
0003F807E0
0003F807E0
0003F80FE0
1FFFFFFFE0
3FFFFFFFC0
7FFFFFFFC0
7FFFFFFF00
FE03F80000
FE03F80000
FE03F80000
FE03FC0000
FE0FFE0000
7FFFFFFFE0
7FFFFFFFE0
7FFF7FFFE0
3FFC7FFFE0
0FE01FFF00
ENDCHAR
STARTCHAR 00E7
ENCODING 231
SWIDTH 495 0
DWIDTH 22 0
BBX 19 34 2 -9
BITMAP
0FFC00
1FFFC0
3FFFC0
7FFFC0
7FFFC0
FF0000
FE0000
FC0000
FC0000
FC0000
FC0000
FC0000
FC0000
FC0000
FC0000
FC0000
FC0000
FC0000
FC0000
FE0000
7F0000
7FFFE0
7FFFE0
3FFFE0
1FFFE0
07FF00
000000
00F000
00F000
00F000
01F000
07F000
07E000
078000
ENDCHAR
STARTCHAR 00E8
ENCODING 232
SWIDTH 517 0
DWIDTH 23 0
BBX 20 35 2 -1
BITMAP
1F8000
0F8000
07C000
03C000
01E000
01F000
000000
000000
000000
07FE00
1FFFC0
3FFFE0
7FFFE0
7FFFE0
FE07F0
FC03F0
FC03F0
FC03F0
FC03F0
FC07F0
FFFFF0
FFFFE0
FFFFE0
FFFFC0
FC0000
FC0000
FC0000
FC0000
FE0000
FF0010
7FFFF0
7FFFF0
3FFFF0
3FFFF0
0FFF80
ENDCHAR
STARTCHAR 00E9
ENCODING 233
SWIDTH 517 0
DWIDTH 23 0
BBX 20 35 2 -1
BITMAP
000F80
001F00
003E00
003C00
007C00
00F800
000000
000000
000000
07FE00
1FFFC0
3FFFE0
7FFFE0
7FFFE0
FE07F0
FC03F0
FC03F0
FC03F0
FC03F0
FC07F0
FFFFF0
FFFFE0
FFFFE0
FFFFC0
FC0000
FC0000
FC0000
FC0000
FE0000
FF0010
7FFFF0
7FFFF0
3FFFF0
3FFFF0
0FFF80
ENDCHAR
STARTCHAR 00EA
ENCODING 234
SWIDTH 517 0
DWIDTH 23 0
BBX 20 35 2 -1
BITMAP
01F800
01F800
03FC00
07FE00
0F9F00
0F0F00
100000
000000
000000
07FE00
1FFFC0
3FFFE0
7FFFE0
7FFFE0
FE07F0
FC03F0
FC03F0
FC03F0
FC03F0
FC07F0
FFFFF0
FFFFE0
FFFFE0
FFFFC0
FC0000
FC0000
FC0000
FC0000
FE0000
FF0010
7FFFF0
7FFFF0
3FFFF0
3FFFF0
0FFF80
ENDCHAR
STARTCHAR 00EB
ENCODING 235
SWIDTH 517 0
DWIDTH 23 0
BBX 20 34 2 -1
BITMAP
1C0380
3C07C0
7E07C0
3E07C0
3C0380
000000
000000
000000
07FE00
1FFFC0
3FFFE0
7FFFE0
7FFFE0
FE07F0
FC03F0
FC03F0
FC03F0
FC03F0
FC07F0
FFFFF0
FFFFE0
FFFFE0
FFFFC0
FC0000
FC0000
FC0000
FC0000
FE0000
FF0010
7FFFF0
7FFFF0
3FFFF0
3FFFF0
0FFF80
ENDCHAR
STARTCHAR 00EC
ENCODING 236
SWIDTH 225 0
DWIDTH 10 0
BBX 10 35 -2 -1
BITMAP
F800
7C00
3E00
1E00
0F00
0780
0000
0000
0000
0FC0
0FC0
0FC0
0FC0
0FC0
0FC0
0FC0
0FC0
0FC0
0FC0
0FC0
0FC0
0FC0
0FC0
0FC0
0FC0
0FC0
0FC0
0FC0
0FC0
0FC0
0FC0
0FC0
0FC0
0FC0
0FC0
ENDCHAR
STARTCHAR 00ED
ENCODING 237
SWIDTH 225 0
DWIDTH 10 0
BBX 10 35 2 -1
BITMAP
07C0
0F80
1F00
1E00
3E00
3C00
0000
0000
0000
FC00
FC00
FC00
FC00
FC00
FC00
FC00
FC00
FC00
FC00
FC00
FC00
FC00
FC00
FC00
FC00
FC00
FC00
FC00
FC00
FC00
FC00
FC00
FC00
FC00
FC00
ENDCHAR
STARTCHAR 00EE
ENCODING 238
SWIDTH 225 0
DWIDTH 10 0
BBX 13 35 -1 -1
BITMAP
0F80
1FC0
3FC0
7FE0
79F0
F0F8
0000
0000
0000
1F80
1F80
1F80
1F80
1F80
1F80
1F80
1F80
1F80
1F80
1F80
1F80
1F80
1F80
1F80
1F80
1F80
1F80
1F80
1F80
1F80
1F80
1F80
1F80
1F80
1F80
ENDCHAR
STARTCHAR 00EF
ENCODING 239
SWIDTH 225 0
DWIDTH 10 0
BBX 16 34 -3 -1
BITMAP
700F
F81F
F81F
F81F
700E
0000
0000
0000
07E0
07E0
07E0
07E0
07E0
07E0
07E0
07E0
07E0
07E0
07E0
07E0
07E0
07E0
07E0
07E0
07E0
07E0
07E0
07E0
07E0
07E0
07E0
07E0
07E0
07E0
ENDCHAR
STARTCHAR 00F0
ENCODING 240
SWIDTH 540 0
DWIDTH 24 0
BBX 22 37 1 -1
BITMAP
1F8000
1FF060
1FFDF0
1FFFF0
1FFF80
00FFC0
01FFC0
03EFE0
0387E0
0003F0
0003F0
07FFF0
0FFFF8
1FFFF8
3FFFF8
3FFFF8
7FFFF8
7F01F8
7E01FC
7E01FC
FE01FC
FE01FC
FE01FC
FE01FC
FE01FC
FE01FC
FE01FC
FE01F8
7E01F8
7E01F8
7F03F8
7FFFF8
7FFFF0
3FFFF0
1FFFE0
1FFFC0
07FF00
ENDCHAR
STARTCHAR 00F1
ENCODING 241
SWIDTH 540 0
DWIDTH 24 0
BBX 21 35 2 -1
BITMAP
03C000
0FF180
1FFFC0
1FFFC0
1C7F00
001E00
000000
000000
000000
F83F80
FCFFC0
FDFFE0
FFFFF0
FFFFF0
FF83F0
FE03F8
FC03F8
FC01F8
FC01F8
FC01F8
FC01F8
FC01F8
FC01F8
FC01F8
FC01F8
FC01F8
FC01F8
FC01F8
FC01F8
FC01F8
FC01F8
FC01F8
FC01F8
FC01F8
FC01F8
ENDCHAR
STARTCHAR 00F2
ENCODING 242
SWIDTH 562 0
DWIDTH 25 0
BBX 21 35 2 -1
BITMAP
0F8000
0FC000
07C000
03E000
01F000
00F000
000000
000000
000000
03FE00
1FFF80
3FFFE0
7FFFE0
7FFFF0
7F07F0
FE03F8
FC01F8
FC01F8
FC01F8
FC01F8
FC01F8
FC01F8
FC01F8
FC01F8
FC01F8
FC01F8
FC01F8
FC01F8
FE03F8
7F07F0
7FFFF0
7FFFF0
3FFFE0
1FFFC0
03FE00
ENDCHAR
STARTCHAR 00F3
ENCODING 243
SWIDTH 562 0
DWIDTH 25 0
BBX 21 35 2 -1
BITMAP
000F80
001F80
001F00
003E00
003C00
007800
000000
000000
000000
03FE00
1FFF80
3FFFE0
7FFFE0
7FFFF0
7F07F0
FE03F8
FC01F8
FC01F8
FC01F8
FC01F8
FC01F8
FC01F8
FC01F8
FC01F8
FC01F8
FC01F8
FC01F8
FC01F8
FE03F8
7F07F0
7FFFF0
7FFFF0
3FFFE0
1FFFC0
03FE00
ENDCHAR
STARTCHAR 00F4
ENCODING 244
SWIDTH 562 0
DWIDTH 25 0
BBX 21 35 2 -1
BITMAP
00F800
01FC00
01FE00
03FF00
07CF00
0F8780
000000
000000
000000
03FE00
1FFF80
3FFFE0
7FFFE0
7FFFF0
7F07F0
FE03F8
FC01F8
FC01F8
FC01F8
FC01F8
FC01F8
FC01F8
FC01F8
FC01F8
FC01F8
FC01F8
FC01F8
FC01F8
FE03F8
7F07F0
7FFFF0
7FFFF0
3FFFE0
1FFFC0
03FE00
ENDCHAR
STARTCHAR 00F5
ENCODING 245
SWIDTH 562 0
DWIDTH 25 0
BBX 21 34 2 0
BITMAP
03C1C0
07FFC0
0FFFC0
1FFF80
0C1E00
000000
000000
000000
03FE00
1FFF80
3FFFE0
7FFFE0
7FFFF0
7F07F0
FE03F8
FC01F8
FC01F8
FC01F8
FC01F8
FC01F8
FC01F8
FC01F8
FC01F8
FC01F8
FC01F8
FC01F8
FC01F8
FE03F8
7F07F0
7FFFF0
7FFFF0
3FFFE0
1FFFC0
03FE00
ENDCHAR
STARTCHAR 00F6
ENCODING 246
SWIDTH 562 0
DWIDTH 25 0
BBX 21 34 2 -1
BITMAP
1C01C0
3E03E0
3E07E0
3E03E0
1E03C0
000000
000000
000000
03FE00
1FFF80
3FFFE0
7FFFE0
7FFFF0
7F07F0
FE03F8
FC01F8
FC01F8
FC01F8
FC01F8
FC01F8
FC01F8
FC01F8
FC01F8
FC01F8
FC01F8
FC01F8
FC01F8
FE03F8
7F07F0
7FFFF0
7FFFF0
3FFFE0
1FFFC0
03FE00
ENDCHAR
STARTCHAR 00F7
ENCODING 247
SWIDTH 495 0
DWIDTH 22 0
BBX 18 19 2 6
BITMAP
03F000
03F000
03F000
03F000
03F000
000000
000000
FFFFC0
FFFFC0
FFFFC0
FFFFC0
FFFFC0
000000
000000
03F000
03F000
03F000
03F000
03F000
ENDCHAR
STARTCHAR 00F8
ENCODING 248
SWIDTH 585 0
DWIDTH 26 0
BBX 22 26 2 -1
BITMAP
03FF3C
0FFFF8
1FFFF0
3FFFF0
7FFFF0
7F03F8
7E03F8
7E07F8
FE0FF8
FE0FFC
FC1DFC
FC39FC
FC39FC
FC71FC
FCE1FC
FEE1FC
FFC1FC
FF81F8
FF81F8
7F01F8
7F03F8
7FFFF8
3FFFF0
3FFFE0
7FFFC0
E3FF00
ENDCHAR
STARTCHAR 00F9
ENCODING 249
SWIDTH 540 0
DWIDTH 24 0
BBX 20 35 2 -1
BITMAP
1F8000
0F8000
07C000
03E000
01E000
00F000
000000
000000
000000
FC03F0
FC03F0
FC03F0
FC03F0
FC03F0
FC03F0
FC03F0
FC03F0
FC03F0
FC03F0
FC03F0
FC03F0
FC03F0
FC03F0
FC03F0
FC03F0
FC03F0
FC03F0
FC03F0
FC07F0
FE1FF0
FFFFF0
7FFFF0
7FFFF0
3FF1F0
0FC1F0
ENDCHAR
STARTCHAR 00FA
ENCODING 250
SWIDTH 540 0
DWIDTH 24 0
BBX 20 35 2 -1
BITMAP
000F80
001F00
003E00
003C00
007C00
00F800
000000
000000
000000
FC03F0
FC03F0
FC03F0
FC03F0
FC03F0
FC03F0
FC03F0
FC03F0
FC03F0
FC03F0
FC03F0
FC03F0
FC03F0
FC03F0
FC03F0
FC03F0
FC03F0
FC03F0
FC03F0
FC07F0
FE1FF0
FFFFF0
7FFFF0
7FFFF0
3FF1F0
0FC1F0
ENDCHAR
STARTCHAR 00FB
ENCODING 251
SWIDTH 540 0
DWIDTH 24 0
BBX 20 35 2 -1
BITMAP
00F800
01FC00
03FC00
07FE00
0F9F00
0F0F80
000000
000000
000000
FC03F0
FC03F0
FC03F0
FC03F0
FC03F0
FC03F0
FC03F0
FC03F0
FC03F0
FC03F0
FC03F0
FC03F0
FC03F0
FC03F0
FC03F0
FC03F0
FC03F0
FC03F0
FC03F0
FC07F0
FE1FF0
FFFFF0
7FFFF0
7FFFF0
3FF1F0
0FC1F0
ENDCHAR
STARTCHAR 00FC
ENCODING 252
SWIDTH 540 0
DWIDTH 24 0
BBX 20 34 2 -1
BITMAP
1C03C0
3E07C0
3E07C0
3E07C0
1C0380
000000
000000
000000
FC03F0
FC03F0
FC03F0
FC03F0
FC03F0
FC03F0
FC03F0
FC03F0
FC03F0
FC03F0
FC03F0
FC03F0
FC03F0
FC03F0
FC03F0
FC03F0
FC03F0
FC03F0
FC03F0
FC07F0
FE1FF0
FFFFF0
7FFFF0
7FFFF0
3FF1F0
0FC1F0
ENDCHAR
STARTCHAR 00FD
ENCODING 253
SWIDTH 585 0
DWIDTH 26 0
BBX 24 45 1 -11
BITMAP
0007E0
0007C0
000F80
001F00
001E00
003C00
000000
000000
000000
FC007F
FE007E
FE007E
7E00FE
7E00FE
7F00FC
7F00FC
3F01FC
3F01FC
3F81F8
3F81F8
1F83F8
1F83F8
1FC3F0
1FC3F0
0FC7F0
0FC7F0
0FE7E0
07FFE0
07FFE0
07FFC0
03FFC0
01FFC0
001FC0
001F80
001F80
001F80
003F80
003F00
003F00
007F00
007E00
007E00
007C00
00F800
00F800
ENDCHAR
STARTCHAR 00FE
ENCODING 254
SWIDTH 562 0
DWIDTH 25 0
BBX 21 48 2 -12
BITMAP
FE0000
FE0000
FE0000
FE0000
FE0000
FE0000
FE0000
FE0000
FE0000
FE0000
FE0000
FE1F00
FEFFC0
FFFFE0
FFFFF0
FFFFF0
FFE7F8
FF03F8
FE03F8
FE01F8
FE01F8
FE01F8
FE01F8
FE01F8
FE01F8
FE01F8
FE01F8
FE01F8
FE01F8
FE01F8
FE03F8
FF03F8
FFFFF0
FFFFF0
FFFFE0
FFFFC0
FE3F00
FE0000
FE0000
FE0000
FE0000
FE0000
FE0000
FE0000
FE0000
FE0000
FE0000
FE0000
ENDCHAR
STARTCHAR 00FF
ENCODING 255
SWIDTH 585 0
DWIDTH 26 0
BBX 24 44 1 -11
BITMAP
0F00E0
0F81F0
0F81F0
0F01F0
0700E0
000000
000000
000000
FC007F
FE007E
FE007E
7E00FE
7E00FE
7F00FC
7F00FC
3F01FC
3F01FC
3F81F8
3F81F8
1F83F8
1F83F8
1FC3F0
1FC3F0
0FC7F0
0FC7F0
0FE7E0
07FFE0
07FFE0
07FFC0
03FFC0
01FFC0
001FC0
001F80
001F80
001F80
003F80
003F00
003F00
007F00
007E00
007E00
007C00
00F800
00F800
ENDCHAR
STARTCHAR 0100
ENCODING 256
SWIDTH 697 0
DWIDTH 31 0
BBX 28 42 2 -1
BITMAP
00FFF800
00FFF800
00FFF800
00FFF800
00000000
00000000
00000000
003FC000
003FC000
003FC000
007FE000
007FE000
007FE000
00FFF000
00FFF000
00FFF000
01FFF000
01FDF800
01F9F800
01F9F800
03F9FC00
03F0FC00
03F0FC00
07F0FE00
07E07E00
07E07E00
0FE07E00
0FC07F00
0FFFFF00
1FFFFF00
1FFFFF80
1FFFFF80
3FFFFF80
3FFFFFC0
3F001FC0
3F000FC0
7F000FC0
7E000FE0
7E000FE0
FE0007E0
FE0007F0
FC0007F0
ENDCHAR
STARTCHAR 0101
ENCODING 257
SWIDTH 517 0
DWIDTH 23 0
BBX 20 31 1 -1
BITMAP
0FFF80
0FFF80
0FFF80
0FFF80
000000
000000
000000
07FF00
7FFFC0
7FFFE0
7FFFF0
7FFFF0
0007F0
0003F0
0003F0
0003F0
07FFF0
1FFFF0
3FFFF0
7FFFF0
7F03F0
FE03F0
FE03F0
FE03F0
FE03F0
FE1FF0
7FFFF0
7FFFF0
3FFFF0
1FF1F0
0FC1F0
ENDCHAR
STARTCHAR 0102
ENCODING 258
SWIDTH 697 0
DWIDTH 31 0
BBX 28 43 2 -1
BITMAP
00706000
0070E000
003FE000
003FC000
000F0000
00000000
00000000
00000000
003FC000
003FC000
003FC000
007FE000
007FE000
007FE000
00FFF000
00FFF000
00FFF000
01FFF000
01FDF800
01F9F800
01F9F800
03F9FC00
03F0FC00
03F0FC00
07F0FE00
07E07E00
07E07E00
0FE07E00
0FC07F00
0FFFFF00
1FFFFF00
1FFFFF80
1FFFFF80
3FFFFF80
3FFFFFC0
3F001FC0
3F000FC0
7F000FC0
7E000FE0
7E000FE0
FE0007E0
FE0007F0
FC0007F0
ENDCHAR
STARTCHAR 0103
ENCODING 259
SWIDTH 517 0
DWIDTH 23 0
BBX 20 32 1 -1
BITMAP
038700
038700
03FE00
01FE00
007800
000000
000000
000000
07FF00
7FFFC0
7FFFE0
7FFFF0
7FFFF0
0007F0
0003F0
0003F0
0003F0
07FFF0
1FFFF0
3FFFF0
7FFFF0
7F03F0
FE03F0
FE03F0
FE03F0
FE03F0
FE1FF0
7FFFF0
7FFFF0
3FFFF0
1FF1F0
0FC1F0
ENDCHAR
STARTCHAR 0104
ENCODING 260
SWIDTH 697 0
DWIDTH 31 0
BBX 28 44 2 -11
BITMAP
003FC000
003FC000
003FC000
007FE000
007FE000
007FE000
00FFF000
00FFF000
00FFF000
01FFF000
01FDF800
01F9F800
01F9F800
03F9FC00
03F0FC00
03F0FC00
07F0FE00
07E07E00
07E07E00
0FE07E00
0FC07F00
0FFFFF00
1FFFFF00
1FFFFF80
1FFFFF80
3FFFFF80
3FFFFFC0
3F001FC0
3F000FC0
7F000FC0
7E000FE0
7E000FE0
FE0007E0
FE0007F0
FC0007F0
000001C0
00000380
00000700
00000700
00000780
000007E0
000007E0
000003E0
00000040
ENDCHAR
STARTCHAR 0105
ENCODING 261
SWIDTH 517 0
DWIDTH 23 0
BBX 20 32 1 -10
BITMAP
07FF00
7FFFC0
7FFFE0
7FFFF0
7FFFF0
0007F0
0003F0
0003F0
0003F0
07FFF0
1FFFF0
3FFFF0
7FFFF0
7F03F0
FE03F0
FE03F0
FE03F0
FE03F0
FE1FF0
7FFFF0
7FFFF0
3FFFF0
1FF1F0
0FC1F0
0000C0
0001C0
000380
000380
0003E0
0003F0
0001F0
0000F0
ENDCHAR
STARTCHAR 0106
ENCODING 262
SWIDTH 562 0
DWIDTH 25 0
BBX 22 42 2 -1
BITMAP
0001F0
0003E0
0007C0
000780
000F00
001F00
000000
000000
000000
01FFC0
07FFFC
1FFFFC
1FFFFC
3FFFFC
7FFFFC
7F8000
7F0000
FE0000
FE0000
FC0000
FC0000
FC0000
FC0000
FC0000
FC0000
FC0000
FC0000
FC0000
FC0000
FC0000
FC0000
FE0000
FE0000
7E0000
7F0000
7F8000
3FFFFC
3FFFFC
1FFFFC
0FFFFC
07FFFC
01FFE0
ENDCHAR
STARTCHAR 0107
ENCODING 263
SWIDTH 495 0
DWIDTH 22 0
BBX 19 35 2 -1
BITMAP
000F80
001F00
001E00
003E00
007C00
007800
000000
000000
000000
0FFC00
1FFFC0
3FFFC0
7FFFC0
7FFFC0
FE0000
FE0000
FC0000
FC0000
FC0000
FC0000
FC0000
FC0000
FC0000
FC0000
FC0000
FC0000
FC0000
FC0000
FE0000
7F0000
7FFFE0
7FFFE0
3FFFE0
1FFFE0
0FFF00
ENDCHAR
STARTCHAR 0108
ENCODING 264
SWIDTH 562 0
DWIDTH 25 0
BBX 22 42 2 -1
BITMAP
003E00
003F00
007F80
00FFC0
01F3C0
03E1E0
000000
000000
000000
01FFC0
07FFFC
1FFFFC
1FFFFC
3FFFFC
7FFFFC
7F8000
7F0000
FE0000
FE0000
FC0000
FC0000
FC0000
FC0000
FC0000
FC0000
FC0000
FC0000
FC0000
FC0000
FC0000
FC0000
FE0000
FE0000
7E0000
7F0000
7F8000
3FFFFC
3FFFFC
1FFFFC
0FFFFC
07FFFC
01FFE0
ENDCHAR
STARTCHAR 0109
ENCODING 265
SWIDTH 495 0
DWIDTH 22 0
BBX 19 35 2 -1
BITMAP
00F800
01FC00
03FC00
07FE00
0F9F00
0F0F00
000000
000000
000000
0FFC00
1FFFC0
3FFFC0
7FFFC0
7FFFC0
FE0000
FE0000
FC0000
FC0000
FC0000
FC0000
FC0000
FC0000
FC0000
FC0000
FC0000
FC0000
FC0000
FC0000
FE0000
7F0000
7FFFE0
7FFFE0
3FFFE0
1FFFE0
0FFF00
ENDCHAR
STARTCHAR 010A
ENCODING 266
SWIDTH 562 0
DWIDTH 25 0
BBX 22 42 2 -1
BITMAP
001C00
003E00
003E00
003E00
003E00
003E00
000000
000000
000000
01FFC0
07FFFC
1FFFFC
1FFFFC
3FFFFC
7FFFFC
7F8000
7F0000
FE0000
FE0000
FC0000
FC0000
FC0000
FC0000
FC0000
FC0000
FC0000
FC0000
FC0000
FC0000
FC0000
FC0000
FE0000
FE0000
7E0000
7F0000
7F8000
3FFFFC
3FFFFC
1FFFFC
0FFFFC
07FFFC
01FFE0
ENDCHAR
STARTCHAR 010B
ENCODING 267
SWIDTH 495 0
DWIDTH 22 0
BBX 19 35 2 -1
BITMAP
007000
00F800
00F800
00F800
00F800
00F800
000000
000000
000000
0FFC00
1FFFC0
3FFFC0
7FFFC0
7FFFC0
FE0000
FE0000
FC0000
FC0000
FC0000
FC0000
FC0000
FC0000
FC0000
FC0000
FC0000
FC0000
FC0000
FC0000
FE0000
7F0000
7FFFE0
7FFFE0
3FFFE0
1FFFE0
0FFF00
ENDCHAR
STARTCHAR 010C
ENCODING 268
SWIDTH 562 0
DWIDTH 25 0
BBX 22 42 2 -1
BITMAP
03E0F0
01F1E0
00FBC0
007FC0
007F80
003F00
000000
000000
000000
01FFC0
07FFFC
1FFFFC
1FFFFC
3FFFFC
7FFFFC
7F8000
7F0000
FE0000
FE0000
FC0000
FC0000
FC0000
FC0000
FC0000
FC0000
FC0000
FC0000
FC0000
FC0000
FC0000
FC0000
FE0000
FE0000
7E0000
7F0000
7F8000
3FFFFC
3FFFFC
1FFFFC
0FFFFC
07FFFC
01FFE0
ENDCHAR
STARTCHAR 010D
ENCODING 269
SWIDTH 495 0
DWIDTH 22 0
BBX 19 35 2 -1
BITMAP
0F0F80
0F9F00
07FE00
03FC00
03FC00
01F800
000000
000000
000000
0FFC00
1FFFC0
3FFFC0
7FFFC0
7FFFC0
FE0000
FE0000
FC0000
FC0000
FC0000
FC0000
FC0000
FC0000
FC0000
FC0000
FC0000
FC0000
FC0000
FC0000
FE0000
7F0000
7FFFE0
7FFFE0
3FFFE0
1FFFE0
0FFF00
ENDCHAR
STARTCHAR 010E
ENCODING 270
SWIDTH 652 0
DWIDTH 29 0
BBX 25 44 3 -1
BITMAP
0F83C000
07C78000
03EF0000
01FE0000
00FE0000
00FC0000
00000000
00000000
00000000
FFFF8000
FFFFE000
FFFFF800
FFFFF800
FFFFFC00
FFFFFE00
FC00FE00
FC007F00
FC007F00
FC003F00
FC003F00
FC003F00
FC003F80
FC003F80
FC003F80
FC001F80
FC001F80
FC001F80
FC001F80
FC001F80
FC003F80
FC003F80
FC003F80
FC003F00
FC003F00
FC003F00
FC007F00
FC007E00
FC00FE00
FFFFFE00
FFFFFC00
FFFFF800
FFFFF000
FFFFE000
FFFF8000
ENDCHAR
STARTCHAR 010F
ENCODING 271
SWIDTH 607 0
DWIDTH 27 0
BBX 27 35 2 -1
BITMAP
0001F9E0
0001F9E0
0001F9E0
0001F9E0
0001F9E0
0001F9E0
0001F9E0
0001F9E0
0001F9E0
0001F800
0001F800
0FE1F800
3FFDF800
3FFFF800
7FFFF800
7FFFF800
FE03F800
FE01F800
FC01F800
FC01F800
FC01F800
FC01F800
FC01F800
FC01F800
FC01F800
FC01F800
FC01F800
FC01F800
FE03F800
FF3FF800
7FFFF800
7FFFF800
3FFDF800
1FF9F800
0FE1F800
ENDCHAR
STARTCHAR 0110
ENCODING 272
SWIDTH 652 0
DWIDTH 29 0
BBX 28 35 0 -1
BITMAP
1FFFF000
1FFFFC00
1FFFFE00
1FFFFF00
1FFFFF80
1FFFFFC0
1F801FC0
1F800FC0
1F800FE0
1F8007E0
1F8007E0
1F8007E0
1F8007F0
1F8007F0
1F8007F0
1F8007F0
FFFC07F0
FFFC07F0
FFFC07F0
1F8007F0
1F8007F0
1F8007F0
1F8007F0
1F8007E0
1F8007E0
1F8007E0
1F800FE0
1F800FC0
1F801FC0
1FFFFFC0
1FFFFF80
1FFFFF00
1FFFFE00
1FFFFC00
1FFFF000
ENDCHAR
STARTCHAR 0111
ENCODING 273
SWIDTH 562 0
DWIDTH 25 0
BBX 24 35 2 -1
BITMAP
0003F8
0003F8
0003F8
0003F8
0003F8
003FFF
003FFF
003FFF
0003F8
0003F8
0003F8
0FE3F8
3FFFF8
7FFFF8
7FFFF8
FFFFF8
FE07F8
FC03F8
FC03F8
FC03F8
FC03F8
FC03F8
FC03F8
FC03F8
FC03F8
FC03F8
FC03F8
FC03F8
FE03F8
FF3FF8
7FFFF8
7FFFF8
3FFFF8
1FF9F8
0FC1F8
ENDCHAR
STARTCHAR 0112
ENCODING 274
SWIDTH 562 0
DWIDTH 25 0
BBX 21 42 3 -1
BITMAP
0FFF80
0FFF80
0FFF80
0FFF80
000000
000000
000000
1FFFC0
3FFFF8
7FFFF8
FFFFF8
FFFFF8
FFFFF8
FC0000
FC0000
FC0000
FC0000
FC0000
FC0000
FC0000
FC0000
FC0000
FFFFE0
FFFFE0
FFFFE0
FFFFE0
FFFFE0
FFFC00
FC0000
FC0000
FC0000
FC0000
FC0000
FC0000
FC0000
FC0000
FFFFF8
FFFFF8
7FFFF8
7FFFF8
3FFFF8
1FFF00
ENDCHAR
STARTCHAR 0113
ENCODING 275
SWIDTH 517 0
DWIDTH 23 0
BBX 20 32 2 -1
BITMAP
0FFF80
0FFF80
0FFF80
0FFF80
000000
000000
07FE00
1FFFC0
3FFFE0
7FFFE0
7FFFE0
FE07F0
FC03F0
FC03F0
FC03F0
FC03F0
FC07F0
FFFFF0
FFFFE0
FFFFE0
FFFFC0
FC0000
FC0000
FC0000
FC0000
FE0000
FF0010
7FFFF0
7FFFF0
3FFFF0
3FFFF0
0FFF80
ENDCHAR
STARTCHAR 0116
ENCODING 278
SWIDTH 562 0
DWIDTH 25 0
BBX 21 44 3 -1
BITMAP
003800
007C00
007C00
007C00
007C00
007C00
000000
000000
000000
1FFFC0
3FFFF8
7FFFF8
FFFFF8
FFFFF8
FFFFF8
FC0000
FC0000
FC0000
FC0000
FC0000
FC0000
FC0000
FC0000
FC0000
FFFFE0
FFFFE0
FFFFE0
FFFFE0
FFFFE0
FFFC00
FC0000
FC0000
FC0000
FC0000
FC0000
FC0000
FC0000
FC0000
FFFFF8
FFFFF8
7FFFF8
7FFFF8
3FFFF8
1FFF00
ENDCHAR
STARTCHAR 0117
ENCODING 279
SWIDTH 517 0
DWIDTH 23 0
BBX 20 34 2 -1
BITMAP
00F800
01F800
01F800
01F800
01F800
00F000
000000
000000
07FE00
1FFFC0
3FFFE0
7FFFE0
7FFFE0
FE07F0
FC03F0
FC03F0
FC03F0
FC03F0
FC07F0
FFFFF0
FFFFE0
FFFFE0
FFFFC0
FC0000
FC0000
FC0000
FC0000
FE0000
FF0010
7FFFF0
7FFFF0
3FFFF0
3FFFF0
0FFF80
ENDCHAR
STARTCHAR 0118
ENCODING 280
SWIDTH 562 0
DWIDTH 25 0
BBX 21 42 3 -9
BITMAP
1FFFC0
3FFFF8
7FFFF8
FFFFF8
FFFFF8
FFFFF8
FC0000
FC0000
FC0000
FC0000
FC0000
FC0000
FC0000
FC0000
FFF800
FFFFE0
FFFFE0
FFFFE0
FFFFE0
FFFFE0
FC0000
FC0000
FC0000
FC0000
FC0000
FC0000
FC0000
FE0000
FFFFF8
FFFFF8
FFFFF8
7FFFF8
3FFFF8
0FF030
0000E0
0000E0
0001E0
0001F0
0000F8
0000F8
000078
000018
ENDCHAR
STARTCHAR 0119
ENCODING 281
SWIDTH 517 0
DWIDTH 23 0
BBX 20 33 2 -9
BITMAP
07FE00
1FFFC0
3FFFE0
7FFFE0
7FFFE0
FE07F0
FC03F0
FC03F0
FC03F0
FC03F0
FC07F0
FFFFF0
FFFFE0
FFFFE0
FFFFC0
FC0000
FC0000
FC0000
FC0000
FE0000
FF0010
7FFFF0
7FFFF0
3FFFF0
3FFFF0
0FFFE0
0001C0
000380
0003C0
0003E0
0003F0
0001F0
0000F0
ENDCHAR
STARTCHAR 011A
ENCODING 282
SWIDTH 562 0
DWIDTH 25 0
BBX 21 42 3 -1
BITMAP
0787C0
03CF80
03FF00
01FE00
00FC00
007C00
000000
0FFFC0
3FFFF8
7FFFF8
FFFFF8
FFFFF8
FFFFF8
FC0000
FC0000
FC0000
FC0000
FC0000
FC0000
FC0000
FC0000
FC0000
FFFFE0
FFFFE0
FFFFE0
FFFFE0
FFFFE0
FFFC00
FC0000
FC0000
FC0000
FC0000
FC0000
FC0000
FC0000
FC0000
FFFFF8
FFFFF8
FFFFF8
7FFFF8
3FFFF8
1FFF00
ENDCHAR
STARTCHAR 011B
ENCODING 283
SWIDTH 517 0
DWIDTH 23 0
BBX 20 35 2 -1
BITMAP
1F0780
0F8F00
07DF00
03FE00
03FC00
01F800
000000
000000
000000
07FE00
1FFFC0
3FFFE0
7FFFE0
7FFFE0
FE07F0
FC03F0
FC03F0
FC03F0
FC03F0
FC07F0
FFFFF0
FFFFE0
FFFFE0
FFFFC0
FC0000
FC0000
FC0000
FC0000
FE0000
FF0010
7FFFF0
7FFFF0
3FFFF0
3FFFF0
0FFF80
ENDCHAR
STARTCHAR 011C
ENCODING 284
SWIDTH 607 0
DWIDTH 27 0
BBX 23 42 2 -1
BITMAP
001F00
003F00
007F80
00FFC0
01F3C0
01E1E0
020000
000000
000000
01FFC0
07FFFE
1FFFFE
1FFFFE
3FFFFE
7FFFFE
7F0000
7E0000
FE0000
FE0000
FC0000
FC0000
FC0000
FC0000
FC01FE
FC07FE
FC07FE
FC07FE
FC07FE
FC007E
FC007E
FC007E
FC007E
FE007E
FE007E
7F007E
7F81FE
7FFFFE
3FFFFE
3FFFFE
1FFFFE
0FFF3E
03FC1E
ENDCHAR
STARTCHAR 011D
ENCODING 285
SWIDTH 562 0
DWIDTH 25 0
BBX 22 47 2 -13
BITMAP
00F800
01FC00
03FE00
03DE00
079F00
0F0F80
000000
000000
000000
0FFFFC
3FFFFC
7FFFFC
7FFFFC
FFFFF0
FE07F0
FC03F0
FC03F0
FC03F0
FC03F8
FC03F0
FC03F0
FE07F0
FFFFF0
7FFFE0
3FFFE0
7FFFC0
FFFF00
F80000
F80000
FC0000
FFFF80
FFFFE0
FFFFF0
7FFFF8
3FFFF8
7C03F8
FC01F8
FC01F8
FC01F8
FC01F8
FC01F8
FE03F8
FFFFF8
FFFFF8
7FFFF0
3FFFE0
0FFF80
ENDCHAR
STARTCHAR 011E
ENCODING 286
SWIDTH 607 0
DWIDTH 27 0
BBX 23 41 2 -1
BITMAP
01C1C0
00C180
00FF80
007F00
003E00
000000
000000
000000
01FFC0
07FFFE
1FFFFE
1FFFFE
3FFFFE
7FFFFE
7F0000
7E0000
FE0000
FE0000
FC0000
FC0000
FC0000
FC0000
FC01FE
FC07FE
FC07FE
FC07FE
FC07FE
FC007E
FC007E
FC007E
FC007E
FE007E
FE007E
7F007E
7F81FE
7FFFFE
3FFFFE
3FFFFE
1FFFFE
0FFF3E
03FC1E
ENDCHAR
STARTCHAR 011F
ENCODING 287
SWIDTH 562 0
DWIDTH 25 0
BBX 22 46 2 -13
BITMAP
070600
070E00
03FE00
01FC00
00F800
000000
000000
000000
0FFFFC
3FFFFC
7FFFFC
7FFFFC
FFFFF0
FE07F0
FC03F0
FC03F0
FC03F0
FC03F8
FC03F0
FC03F0
FE07F0
FFFFF0
7FFFE0
3FFFE0
7FFFC0
FFFF00
F80000
F80000
FC0000
FFFF80
FFFFE0
FFFFF0
7FFFF8
3FFFF8
7C03F8
FC01F8
FC01F8
FC01F8
FC01F8
FC01F8
FE03F8
FFFFF8
FFFFF8
7FFFF0
3FFFE0
0FFF80
ENDCHAR
STARTCHAR 0120
ENCODING 288
SWIDTH 607 0
DWIDTH 27 0
BBX 23 42 2 -1
BITMAP
001C00
003E00
003E00
003E00
003E00
003E00
000000
000000
000000
01FFC0
07FFFE
1FFFFE
1FFFFE
3FFFFE
7FFFFE
7F0000
7E0000
FE0000
FE0000
FC0000
FC0000
FC0000
FC0000
FC01FE
FC07FE
FC07FE
FC07FE
FC07FE
FC007E
FC007E
FC007E
FC007E
FE007E
FE007E
7F007E
7F81FE
7FFFFE
3FFFFE
3FFFFE
1FFFFE
0FFF3E
03FC1E
ENDCHAR
STARTCHAR 0121
ENCODING 289
SWIDTH 562 0
DWIDTH 25 0
BBX 22 47 2 -13
BITMAP
007000
00F800
00F800
00F800
00F800
00F800
000000
000000
000000
0FFFFC
3FFFFC
7FFFFC
7FFFFC
FFFFF0
FE07F0
FC03F0
FC03F0
FC03F0
FC03F8
FC03F0
FC03F0
FE07F0
FFFFF0
7FFFE0
3FFFE0
7FFFC0
FFFF00
F80000
F80000
FC0000
FFFF80
FFFFE0
FFFFF0
7FFFF8
3FFFF8
7C03F8
FC01F8
FC01F8
FC01F8
FC01F8
FC01F8
FE03F8
FFFFF8
FFFFF8
7FFFF0
3FFFE0
0FFF80
ENDCHAR
STARTCHAR 0122
ENCODING 290
SWIDTH 607 0
DWIDTH 27 0
BBX 23 45 2 -14
BITMAP
01FFC0
07FFFE
1FFFFE
1FFFFE
3FFFFE
7FFFFE
7F0000
7E0000
FE0000
FE0000
FC0000
FC0000
FC0000
FC0000
FC01FE
FC07FE
FC07FE
FC07FE
FC07FE
FC007E
FC007E
FC007E
FC007E
FE007E
FE007E
7F007E
7F81FE
7FFFFE
3FFFFE
3FFFFE
1FFFFE
0FFF3E
03FC1E
000000
000000
000000
007C00
007E00
007E00
007E00
007E00
003E00
001E00
007C00
007C00
ENDCHAR
STARTCHAR 0123
ENCODING 291
SWIDTH 562 0
DWIDTH 25 0
BBX 22 50 2 -12
BITMAP
007800
00F800
00F000
00E000
00F800
00F800
00F800
00F800
00F800
000000
000000
000000
0FFFFC
3FFFFC
7FFFFC
7FFFFC
FFFFF0
FE07F0
FC03F0
FC03F0
FC03F0
FC03F8
FC03F0
FC03F0
FE07F0
FFFFF0
7FFFE0
3FFFE0
7FFFC0
FFFF00
F80000
F80000
FE0000
FFFE00
FFFFC0
FFFFE0
7FFFF0
3FFFF8
7C7FF8
FC03F8
FC01F8
FC01F8
FC01F8
FC01F8
FE03F8
FFFFF8
FFFFF8
7FFFF0
3FFFE0
0FFF80
ENDCHAR
STARTCHAR 0124
ENCODING 292
SWIDTH 630 0
DWIDTH 28 0
BBX 23 44 3 -1
BITMAP
007C00
00FE00
00FF00
01FF00
03E780
0783C0
000000
000000
000000
FC007E
FC007E
FC007E
FC007E
FC007E
FC007E
FC007E
FC007E
FC007E
FC007E
FC007E
FC007E
FC007E
FC007E
FC007E
FFFFFE
FFFFFE
FFFFFE
FFFFFE
FFFFFE
FFFFFE
FC007E
FC007E
FC007E
FC007E
FC007E
FC007E
FC007E
FC007E
FC007E
FC007E
FC007E
FC007E
FC007E
FC007E
ENDCHAR
STARTCHAR 0125
ENCODING 293
SWIDTH 540 0
DWIDTH 24 0
BBX 24 46 -3 -1
BITMAP
0F8000
1FC000
1FC000
3FE000
7DF000
F8F800
000000
000000
000000
1F8000
1F8000
1F8000
1F8000
1F8000
1F8000
1F8000
1F8000
1F8000
1F8000
1F8000
1F8000
1F83F0
1F9FFC
1FBFFC
1FFFFE
1FFFFE
1FF07F
1FC07F
1F803F
1F803F
1F803F
1F803F
1F803F
1F803F
1F803F
1F803F
1F803F
1F803F
1F803F
1F803F
1F803F
1F803F
1F803F
1F803F
1F803F
1F803F
ENDCHAR
STARTCHAR 0126
ENCODING 294
SWIDTH 675 0
DWIDTH 30 0
BBX 29 35 1 -1
BITMAP
3F800FC0
3F800FC0
3F800FC0
3F800FC0
3F800FC0
3F800FC0
3F800FC0
FFFFFFF8
FFFFFFF8
FFFFFFF8
3F800FC0
3F800FC0
3F800FC0
3F800FC0
3F800FC0
3FFFFFC0
3FFFFFC0
3FFFFFC0
3FFFFFC0
3FFFFFC0
3FFFFFC0
3F800FC0
3F800FC0
3F800FC0
3F800FC0
3F800FC0
3F800FC0
3F800FC0
3F800FC0
3F800FC0
3F800FC0
3F800FC0
3F800FC0
3F800FC0
3F800FC0
ENDCHAR
STARTCHAR 0127
ENCODING 295
SWIDTH 562 0
DWIDTH 25 0
BBX 23 37 0 -1
BITMAP
1F8000
1F8000
1F8000
1F8000
1F8000
FFFC00
FFFC00
FFFC00
1F8000
1F8000
1F8000
1F8000
1F87F0
1F9FF8
1FBFFC
1FFFFE
1FFFFE
1FF0FE
1FC07E
1F807E
1F807E
1F807E
1F807E
1F807E
1F807E
1F807E
1F807E
1F807E
1F807E
1F807E
1F807E
1F807E
1F807E
1F807E
1F807E
1F807E
1F807E
ENDCHAR
STARTCHAR 0128
ENCODING 296
SWIDTH 247 0
DWIDTH 11 0
BBX 15 43 -2 0
BITMAP
1F0E
3FFE
7FFE
FFFC
60F0
0000
0000
0000
07E0
07E0
07E0
07E0
07E0
07E0
07E0
07E0
07E0
07E0
07E0
07E0
07E0
07E0
07E0
07E0
07E0
07E0
07E0
07E0
07E0
07E0
07E0
07E0
07E0
07E0
07E0
07E0
07E0
07E0
07E0
07E0
07E0
07E0
07E0
ENDCHAR
STARTCHAR 0129
ENCODING 297
SWIDTH 225 0
DWIDTH 10 0
BBX 15 35 -2 -1
BITMAP
0004
1E0C
7FFE
FFFC
FFF8
C0F0
0000
0000
0000
0FC0
0FC0
0FC0
0FC0
0FC0
0FC0
0FC0
0FC0
0FC0
0FC0
0FC0
0FC0
0FC0
0FC0
0FC0
0FC0
0FC0
0FC0
0FC0
0FC0
0FC0
0FC0
0FC0
0FC0
0FC0
0FC0
ENDCHAR
STARTCHAR 012A
ENCODING 298
SWIDTH 247 0
DWIDTH 11 0
BBX 13 42 -1 -1
BITMAP
FFF8
FFF8
FFF8
FFF8
0000
0000
0000
0FC0
0FC0
0FC0
0FC0
0FC0
0FC0
0FC0
0FC0
0FC0
0FC0
0FC0
0FC0
0FC0
0FC0
0FC0
0FC0
0FC0
0FC0
0FC0
0FC0
0FC0
0FC0
0FC0
0FC0
0FC0
0FC0
0FC0
0FC0
0FC0
0FC0
0FC0
0FC0
0FC0
0FC0
0FC0
ENDCHAR
STARTCHAR 012B
ENCODING 299
SWIDTH 225 0
DWIDTH 10 0
BBX 13 33 -1 -1
BITMAP
FFF8
FFF8
FFF8
FFF8
0000
0000
0000
1F80
1F80
1F80
1F80
1F80
1F80
1F80
1F80
1F80
1F80
1F80
1F80
1F80
1F80
1F80
1F80
1F80
1F80
1F80
1F80
1F80
1F80
1F80
1F80
1F80
1F80
ENDCHAR
STARTCHAR 012E
ENCODING 302
SWIDTH 247 0
DWIDTH 11 0
BBX 7 43 2 -10
BITMAP
7E
7E
7E
7E
7E
7E
7E
7E
7E
7E
7E
7E
7E
7E
7E
7E
7E
7E
7E
7E
7E
7E
7E
7E
7E
7E
7E
7E
7E
7E
7E
7E
7E
7E
38
70
E0
E0
F0
FC
7C
7C
08
ENDCHAR
STARTCHAR 012F
ENCODING 303
SWIDTH 225 0
DWIDTH 10 0
BBX 7 43 1 -10
BITMAP
7E
7E
7E
7E
7E
7E
00
00
00
7E
7E
7E
7E
7E
7E
7E
7E
7E
7E
7E
7E
7E
7E
7E
7E
7E
7E
7E
7E
7E
7E
7E
7E
7E
38
70
E0
E0
F0
FC
7C
3C
08
ENDCHAR
STARTCHAR 0130
ENCODING 304
SWIDTH 247 0
DWIDTH 11 0
BBX 6 44 3 -1
BITMAP
70
F8
F8
F8
F8
F8
00
00
00
FC
FC
FC
FC
FC
FC
FC
FC
FC
FC
FC
FC
FC
FC
FC
FC
FC
FC
FC
FC
FC
FC
FC
FC
FC
FC
FC
FC
FC
FC
FC
FC
FC
FC
FC
ENDCHAR
STARTCHAR 0131
ENCODING 305
SWIDTH 225 0
DWIDTH 10 0
BBX 6 26 2 -1
BITMAP
FC
FC
FC
FC
FC
FC
FC
FC
FC
FC
FC
FC
FC
FC
FC
FC
FC
FC
FC
FC
FC
FC
FC
FC
FC
FC
ENDCHAR
STARTCHAR 0134
ENCODING 308
SWIDTH 360 0
DWIDTH 16 0
BBX 16 42 1 1
BITMAP
01F8
01F8
03FC
07FE
0F9E
1F0F
0000
0000
0000
01F8
01F8
01F8
01F8
01F8
01F8
01F8
01F8
01F8
01F8
01F8
01F8
01F8
01F8
01F8
01F8
01F8
01F8
01F8
01F8
01F8
01F8
01F8
01F8
03F8
03F8
07F8
FFF8
FFF8
FFF0
FFF0
FFE0
1F00
ENDCHAR
STARTCHAR 0135
ENCODING 309
SWIDTH 247 0
DWIDTH 11 0
BBX 13 46 -1 -11
BITMAP
0F80
0FC0
1FC0
3FE0
3DF0
78F0
F078
0000
0000
0000
1FC0
1FC0
1FC0
1FC0
1FC0
1FC0
1FC0
1FC0
1FC0
1FC0
1FC0
1FC0
1FC0
1FC0
1FC0
1FC0
1FC0
1FC0
1FC0
1FC0
1FC0
1FC0
1FC0
1FC0
1FC0
1FC0
1FC0
1FC0
1FC0
1F80
1F80
1F80
1F80
1F80
1F00
1F00
ENDCHAR
STARTCHAR 0136
ENCODING 310
SWIDTH 630 0
DWIDTH 28 0
BBX 24 47 3 -14
BITMAP
FC00FF
FC00FE
FC01FC
FC01FC
FC03F8
FC03F8
FC07F0
FC0FF0
FC0FE0
FC1FC0
FC1FC0
FC3F80
FC3F80
FC7F00
FC7F00
FFFE00
FFFE00
FFFC00
FFFC00
FFFE00
FFFE00
FC7F00
FC7F80
FC3F80
FC1FC0
FC1FC0
FC0FE0
FC0FE0
FC07F0
FC07F8
FC03F8
FC01FC
FC01FC
FC00FE
FC00FF
000000
000000
000000
00F800
00FC00
00FC00
00FC00
00FC00
003C00
003800
00F800
00F000
ENDCHAR
STARTCHAR 0137
ENCODING 311
SWIDTH 562 0
DWIDTH 25 0
BBX 22 49 2 -14
BITMAP
FC0000
FC0000
FC0000
FC0000
FC0000
FC0000
FC0000
FC0000
FC0000
FC0000
FC0000
FC03FC
FC07F8
FC0FF0
FC0FE0
FC1FE0
FC3FC0
FC7F80
FCFF00
FCFE00
FFFE00
FFFC00
FFF800
FFFC00
FFFE00
FCFE00
FCFF00
FC7F00
FC3F80
FC3FC0
FC1FC0
FC1FE0
FC0FE0
FC07F0
FC07F8
FC03F8
FC03FC
000000
000000
00F000
00F800
00F800
00F800
00F800
00F800
007800
007800
00F800
00F000
ENDCHAR
STARTCHAR 0138
ENCODING 312
SWIDTH 562 0
DWIDTH 25 0
BBX 22 26 2 -1
BITMAP
FC01FC
FC03FC
FC03F8
FC07F0
FC0FF0
FC0FE0
FC1FC0
FC1FC0
FC3F80
FC7F80
FC7F00
FFFE00
FFFE00
FFFC00
FFFE00
FFFE00
FC7F00
FC7F80
FC3F80
FC1FC0
FC1FC0
FC0FE0
FC0FF0
FC07F0
FC03F8
FC03F8
ENDCHAR
STARTCHAR 0139
ENCODING 313
SWIDTH 540 0
DWIDTH 24 0
BBX 20 44 3 -1
BITMAP
0FC000
0F8000
1F0000
3E0000
3C0000
780000
000000
000000
000000
FC0000
FC0000
FC0000
FC0000
FC0000
FC0000
FC0000
FC0000
FC0000
FC0000
FC0000
FC0000
FC0000
FC0000
FC0000
FC0000
FC0000
FC0000
FC0000
FC0000
FC0000
FC0000
FC0000
FC0000
FC0000
FC0000
FC0000
FC0000
FC0000
FFFFF0
FFFFF0
FFFFF0
7FFFF0
3FFFF0
1FFFF0
ENDCHAR
STARTCHAR 013A
ENCODING 314
SWIDTH 315 0
DWIDTH 14 0
BBX 11 46 2 -1
BITMAP
03E0
07C0
0F80
0F00
1E00
3E00
0000
0000
0000
FC00
FC00
FC00
FC00
FC00
FC00
FC00
FC00
FC00
FC00
FC00
FC00
FC00
FC00
FC00
FC00
FC00
FC00
FC00
FC00
FC00
FC00
FC00
FC00
FC00
FC00
FC00
FC00
FC00
FC00
FE00
FE00
FF80
7FE0
7FE0
3FE0
1FE0
ENDCHAR
STARTCHAR 013B
ENCODING 315
SWIDTH 540 0
DWIDTH 24 0
BBX 20 47 3 -14
BITMAP
FC0000
FC0000
FC0000
FC0000
FC0000
FC0000
FC0000
FC0000
FC0000
FC0000
FC0000
FC0000
FC0000
FC0000
FC0000
FC0000
FC0000
FC0000
FC0000
FC0000
FC0000
FC0000
FC0000
FC0000
FC0000
FC0000
FC0000
FC0000
FC0000
FFFFF0
FFFFF0
FFFFF0
7FFFF0
3FFFF0
1FFFF0
000000
000000
000000
00F800
01F800
01F800
01F800
01F800
00F800
007800
00F000
00F000
ENDCHAR
STARTCHAR 013C
ENCODING 316
SWIDTH 315 0
DWIDTH 14 0
BBX 11 49 2 -14
BITMAP
FC00
FC00
FC00
FC00
FC00
FC00
FC00
FC00
FC00
FC00
FC00
FC00
FC00
FC00
FC00
FC00
FC00
FC00
FC00
FC00
FC00
FC00
FC00
FC00
FC00
FC00
FC00
FC00
FC00
FC00
FE00
FE00
FF80
7FE0
7FE0
3FE0
1FE0
0000
0000
0000
1F00
1F00
1F00
1F00
1F00
0F00
0F00
1F00
1E00
ENDCHAR
STARTCHAR 013D
ENCODING 317
SWIDTH 540 0
DWIDTH 24 0
BBX 20 37 3 -1
BITMAP
007800
007800
FC7800
FC7800
FC7800
FC7800
FC7800
FC7800
FC7800
FC7800
FC0000
FC0000
FC0000
FC0000
FC0000
FC0000
FC0000
FC0000
FC0000
FC0000
FC0000
FC0000
FC0000
FC0000
FC0000
FC0000
FC0000
FC0000
FC0000
FC0000
FC0000
FFFFF0
FFFFF0
FFFFF0
7FFFF0
7FFFF0
1FFFF0
ENDCHAR
STARTCHAR 013E
ENCODING 318
SWIDTH 360 0
DWIDTH 16 0
BBX 13 37 2 -1
BITMAP
FC78
FC78
FC78
FC78
FC78
FC78
FC78
FC78
FC38
FC38
FC00
FC00
FC00
FC00
FC00
FC00
FC00
FC00
FC00
FC00
FC00
FC00
FC00
FC00
FC00
FC00
FC00
FC00
FC00
FC00
FE00
FE00
FF80
7FE0
7FE0
3FE0
1FE0
ENDCHAR
STARTCHAR 0141
ENCODING 321
SWIDTH 562 0
DWIDTH 25 0
BBX 23 35 1 -1
BITMAP
1F8000
1F8000
1F8000
1F8000
1F8000
1F8000
1F8000
1F8000
1F8000
1F8000
1F8000
1F8C00
1FBC00
1FFC00
1FF800
1FE000
7F8000
FF8000
FF8000
DF8000
1F8000
1F8000
1F8000
1F8000
1F8000
1F8000
1F8000
1F8000
1FC000
1FFFFE
1FFFFE
0FFFFE
0FFFFE
07FFFE
01FFFE
ENDCHAR
STARTCHAR 0142
ENCODING 322
SWIDTH 360 0
DWIDTH 16 0
BBX 15 37 0 -1
BITMAP
0FC0
0FC0
0FC0
0FC0
0FC0
0FC0
0FC0
0FC0
0FC0
0FC0
0FC0
0FC6
0FDE
0FFE
0FFC
0FF0
3FC0
FFC0
FFC0
EFC0
8FC0
0FC0
0FC0
0FC0
0FC0
0FC0
0FC0
0FC0
0FC0
0FC0
0FC0
0FE0
0FF8
07FE
07FE
03FE
01FE
ENDCHAR
STARTCHAR 0143
ENCODING 323
SWIDTH 675 0
DWIDTH 30 0
BBX 25 44 3 -1
BITMAP
0003F000
0003E000
0007C000
000F8000
000F0000
001E0000
00000000
00000000
00000000
FC001F80
FE001F80
FE001F80
FF001F80
FF801F80
FF801F80
FFC01F80
FFC01F80
FFE01F80
FFE01F80
FFF01F80
FFF81F80
FFF81F80
FFFC1F80
FDFC1F80
FCFE1F80
FCFE1F80
FC7F1F80
FC7F9F80
FC3F9F80
FC3FDF80
FC1FDF80
FC0FFF80
FC0FFF80
FC07FF80
FC07FF80
FC03FF80
FC01FF80
FC01FF80
FC00FF80
FC00FF80
FC007F80
FC007F80
FC003F80
FC001F80
ENDCHAR
STARTCHAR 0144
ENCODING 324
SWIDTH 540 0
DWIDTH 24 0
BBX 21 34 2 -1
BITMAP
000FC0
001F80
001F00
003E00
003C00
007800
000000
000000
F83F80
FCFFC0
FDFFE0
FFFFF0
FFFFF0
FF83F0
FE03F8
FC03F8
FC01F8
FC01F8
FC01F8
FC01F8
FC01F8
FC01F8
FC01F8
FC01F8
FC01F8
FC01F8
FC01F8
FC01F8
FC01F8
FC01F8
FC01F8
FC01F8
FC01F8
FC01F8
ENDCHAR
STARTCHAR 0145
ENCODING 325
SWIDTH 675 0
DWIDTH 30 0
BBX 25 47 3 -14
BITMAP
FC001F80
FE001F80
FE001F80
FF001F80
FF801F80
FF801F80
FFC01F80
FFC01F80
FFE01F80
FFE01F80
FFF01F80
FFF81F80
FFF81F80
FFFC1F80
FDFC1F80
FCFE1F80
FCFE1F80
FC7F1F80
FC7F9F80
FC3F9F80
FC3FDF80
FC1FDF80
FC0FFF80
FC0FFF80
FC07FF80
FC07FF80
FC03FF80
FC01FF80
FC01FF80
FC00FF80
FC00FF80
FC007F80
FC007F80
FC003F80
FC001F80
00000000
00000000
00000000
003E0000
003E0000
003E0000
003E0000
003E0000
001E0000
001E0000
003E0000
003C0000
ENDCHAR
STARTCHAR 0146
ENCODING 326
SWIDTH 540 0
DWIDTH 24 0
BBX 21 38 2 -14
BITMAP
F83F80
FCFFC0
FDFFE0
FFFFF0
FFFFF0
FF83F0
FE03F8
FC03F8
FC01F8
FC01F8
FC01F8
FC01F8
FC01F8
FC01F8
FC01F8
FC01F8
FC01F8
FC01F8
FC01F8
FC01F8
FC01F8
FC01F8
FC01F8
FC01F8
FC01F8
FC01F8
000000
000000
000000
00F800
00F800
00F800
00F800
00F800
007800
007800
00F800
00F000
ENDCHAR
STARTCHAR 0147
ENCODING 327
SWIDTH 675 0
DWIDTH 30 0
BBX 25 44 3 -1
BITMAP
03C1E000
01E3C000
00F7C000
00FF8000
007F0000
003E0000
00000000
00000000
00000000
FC001F80
FE001F80
FE001F80
FF001F80
FF801F80
FF801F80
FFC01F80
FFC01F80
FFE01F80
FFE01F80
FFF01F80
FFF81F80
FFF81F80
FFFC1F80
FDFC1F80
FCFE1F80
FCFE1F80
FC7F1F80
FC7F9F80
FC3F9F80
FC3FDF80
FC1FDF80
FC0FFF80
FC0FFF80
FC07FF80
FC07FF80
FC03FF80
FC01FF80
FC01FF80
FC00FF80
FC00FF80
FC007F80
FC007F80
FC003F80
FC001F80
ENDCHAR
STARTCHAR 0148
ENCODING 328
SWIDTH 540 0
DWIDTH 24 0
BBX 21 35 2 -1
BITMAP
0F0780
078F00
03FF00
03FE00
01FC00
00F800
000000
000000
000000
F83F80
FCFFC0
FDFFE0
FFFFF0
FFFFF0
FF83F0
FE03F8
FC03F8
FC01F8
FC01F8
FC01F8
FC01F8
FC01F8
FC01F8
FC01F8
FC01F8
FC01F8
FC01F8
FC01F8
FC01F8
FC01F8
FC01F8
FC01F8
FC01F8
FC01F8
FC01F8
ENDCHAR
STARTCHAR 014A
ENCODING 330
SWIDTH 675 0
DWIDTH 30 0
BBX 25 47 3 -13
BITMAP
FC001F80
FE001F80
FE001F80
FF001F80
FF801F80
FF801F80
FFC01F80
FFC01F80
FFE01F80
FFE01F80
FFF01F80
FFF81F80
FFF81F80
FFFC1F80
FDFC1F80
FCFE1F80
FCFE1F80
FC7F1F80
FC7F9F80
FC3F9F80
FC3FDF80
FC1FDF80
FC0FFF80
FC0FFF80
FC07FF80
FC07FF80
FC03FF80
FC01FF80
FC01FF80
FC00FF80
FC00FF80
FC007F80
FC007F80
FC003F80
FC001F80
00001F80
00001F80
00001F80
00001F80
00001F80
00003F80
0000FF80
0003FF00
0003FF00
0003FE00
0003F800
00038000
ENDCHAR
STARTCHAR 014B
ENCODING 331
SWIDTH 562 0
DWIDTH 25 0
BBX 21 38 2 -13
BITMAP
F83F80
FCFFC0
FDFFE0
FFFFF0
FFFFF0
FF83F0
FE03F8
FC03F8
FC01F8
FC01F8
FC01F8
FC01F8
FC01F8
FC01F8
FC01F8
FC01F8
FC01F8
FC01F8
FC01F8
FC01F8
FC01F8
FC01F8
FC01F8
FC01F8
FC01F8
FC01F8
0001F8
0001F8
0001F8
0001F8
0003F8
0003F0
0003F0
0007F0
003FE0
001FC0
001F80
000C00
ENDCHAR
STARTCHAR 014C
ENCODING 332
SWIDTH 675 0
DWIDTH 30 0
BBX 26 41 2 -1
BITMAP
01FFF000
01FFF000
01FFF000
01FFF000
00000000
00000000
00FFE000
07FFF800
0FFFFC00
1FFFFE00
1FFFFF00
3FFFFF00
3F807F80
7F003F80
7E001F80
7E001FC0
7E000FC0
7E000FC0
FE000FC0
FE000FC0
FC000FC0
FC000FC0
FC000FC0
FC000FC0
FC000FC0
FC000FC0
FC000FC0
FE000FC0
FE000FC0
FE000FC0
7E000FC0
7E001FC0
7E001FC0
7F003F80
3F807F80
3FFFFF80
3FFFFF00
1FFFFE00
0FFFFC00
07FFF800
00FFE000
ENDCHAR
STARTCHAR 014D
ENCODING 333
SWIDTH 562 0
DWIDTH 25 0
BBX 21 32 2 -1
BITMAP
0FFF80
0FFF80
0FFF80
0FFF80
000000
000000
03FE00
1FFF80
3FFFE0
7FFFE0
7FFFF0
7F07F0
FE03F8
FC01F8
FC01F8
FC01F8
FC01F8
FC01F8
FC01F8
FC01F8
FC01F8
FC01F8
FC01F8
FC01F8
FC01F8
FE03F8
7F07F0
7FFFF0
7FFFF0
3FFFE0
1FFFC0
03FE00
ENDCHAR
STARTCHAR 0150
ENCODING 336
SWIDTH 675 0
DWIDTH 30 0
BBX 26 44 2 -1
BITMAP
000F9F00
001F3E00
003E7C00
003C7800
0078F000
00F9F000
00000000
00000000
00000000
00FFE000
07FFF800
0FFFFC00
1FFFFE00
1FFFFF00
3FFFFF00
3F807F80
7F003F80
7E001F80
7E001FC0
7E000FC0
7E000FC0
FE000FC0
FE000FC0
FC000FC0
FC000FC0
FC000FC0
FC000FC0
FC000FC0
FC000FC0
FC000FC0
FE000FC0
FE000FC0
FE000FC0
7E000FC0
7E001FC0
7E001FC0
7F003F80
3F807F80
3FFFFF80
3FFFFF00
1FFFFE00
0FFFFC00
07FFF800
00FFE000
ENDCHAR
STARTCHAR 0151
ENCODING 337
SWIDTH 562 0
DWIDTH 25 0
BBX 21 35 2 -1
BITMAP
007CF8
00F9F0
01F3E0
01E3C0
03E780
07CF80
000000
000000
000000
03FE00
1FFF80
3FFFE0
7FFFE0
7FFFF0
7F07F0
FE03F8
FC01F8
FC01F8
FC01F8
FC01F8
FC01F8
FC01F8
FC01F8
FC01F8
FC01F8
FC01F8
FC01F8
FC01F8
FE03F8
7F07F0
7FFFF0
7FFFF0
3FFFE0
1FFFC0
03FE00
ENDCHAR
STARTCHAR 0152
ENCODING 338
SWIDTH 1012 0
DWIDTH 45 0
BBX 41 35 2 -1
BITMAP
00FFE0FFFC00
07FFFBFFFF80
0FFFFFFFFF80
1FFFFFFFFF80
1FFFFFFFFF80
3FFFFFFFFF80
3F807FE00000
7F003FC00000
7E001FC00000
7E001FC00000
7E000FC00000
7E000FC00000
FE000FC00000
FE000FC00000
FC000FC00000
FC000FFFFE00
FC000FFFFE00
FC000FFFFE00
FC000FFFFE00
FC000FFFFE00
FC000FFFC000
FE000FC00000
FE000FC00000
FE000FC00000
7E000FC00000
7E001FC00000
7E001FC00000
7F003FC00000
7F807FE00000
3FFFFFFFFF80
3FFFFFFFFF80
1FFFFFFFFF80
0FFFFFFFFF80
07FFFBFFFF80
01FFE0FFF800
ENDCHAR
STARTCHAR 0153
ENCODING 339
SWIDTH 877 0
DWIDTH 39 0
BBX 35 26 2 -1
BITMAP
03FE07FE00
1FFFBFFF80
3FFFFFFFC0
7FFFFFFFC0
7FFFFFFFE0
7F07FC0FE0
FE03FC07E0
FC01F807E0
FC01F807E0
FC01F807E0
FC01F80FE0
FC01FFFFE0
FC01FFFFE0
FC01FFFFC0
FC01FFFF80
FC01F80000
FC01F80000
FC01F80000
FC01F80000
FE03FC0000
7F07FE0020
7FFFFFFFE0
7FFFFFFFE0
3FFFFFFFE0
1FFFBFFFE0
03FE1FFF00
ENDCHAR
STARTCHAR 0154
ENCODING 340
SWIDTH 607 0
DWIDTH 27 0
BBX 24 44 2 -1
BITMAP
0007E0
0007C0
000F80
001F00
001E00
003C00
000000
000000
000000
FFFFC0
FFFFF0
FFFFF8
FFFFFC
FFFFFC
FFFFFE
FE00FE
FE007E
FE007E
FE007E
FE007E
FE007E
FE007E
FE007E
FE007E
FE00FE
FFFFFE
FFFFFC
FFFFFC
FFFFF8
FFFFF0
FC1FC0
FC0FE0
FC07E0
FC07F0
FC03F0
FC03F8
FC03F8
FC01F8
FC01FC
FC00FC
FC00FE
FC00FE
FC007F
FC007F
ENDCHAR
STARTCHAR 0155
ENCODING 341
SWIDTH 427 0
DWIDTH 19 0
BBX 16 35 2 -1
BITMAP
003E
007C
007C
00F8
01F0
01E0
0000
0000
0000
F83F
FCFF
FDFF
FFFF
FFFF
FFFF
FFC0
FF00
FE00
FC00
FC00
FC00
FC00
FC00
FC00
FC00
FC00
FC00
FC00
FC00
FC00
FC00
FC00
FC00
FC00
FC00
ENDCHAR
STARTCHAR 0156
ENCODING 342
SWIDTH 607 0
DWIDTH 27 0
BBX 24 47 2 -14
BITMAP
FFFFC0
FFFFF0
FFFFF8
FFFFFC
FFFFFC
FFFFFE
FE00FE
FE007E
FE007E
FE007E
FE007E
FE007E
FE007E
FE007E
FE007E
FE00FE
FFFFFE
FFFFFC
FFFFFC
FFFFF8
FFFFF0
FC1FC0
FC0FE0
FC07E0
FC07F0
FC03F0
FC03F8
FC03F8
FC01F8
FC01FC
FC00FC
FC00FE
FC00FE
FC007F
FC007F
000000
000000
000000
007C00
007C00
007C00
007C00
007C00
003C00
003C00
007C00
007800
ENDCHAR
STARTCHAR 0157
ENCODING 343
SWIDTH 427 0
DWIDTH 19 0
BBX 15 38 2 -14
BITMAP
F83E
F8FE
FDFE
FFFE
FFFE
FFFE
FFC0
FE00
FC00
FC00
FC00
FC00
FC00
FC00
FC00
FC00
FC00
FC00
FC00
FC00
FC00
FC00
FC00
FC00
FC00
FC00
0000
0000
7800
F800
F800
F800
F800
F800
3800
7800
F800
F000
ENDCHAR
STARTCHAR 0158
ENCODING 344
SWIDTH 607 0
DWIDTH 27 0
BBX 24 44 2 -1
BITMAP
0783C0
03C780
03EF80
01FF00
00FE00
007C00
000000
000000
000000
FFFFC0
FFFFF0
FFFFF8
FFFFFC
FFFFFC
FFFFFE
FE00FE
FE007E
FE007E
FE007E
FE007E
FE007E
FE007E
FE007E
FE007E
FE00FE
FFFFFE
FFFFFC
FFFFFC
FFFFF8
FFFFF0
FC1FC0
FC0FE0
FC07E0
FC07F0
FC03F0
FC03F8
FC03F8
FC01F8
FC01FC
FC00FC
FC00FE
FC00FE
FC007F
FC007F
ENDCHAR
STARTCHAR 0159
ENCODING 345
SWIDTH 427 0
DWIDTH 19 0
BBX 16 35 2 -1
BITMAP
7C3C
3E7C
1FF8
1FF0
0FE0
07E0
0000
0000
0000
F83F
FCFF
FDFF
FFFF
FFFF
FFFF
FFC0
FF00
FE00
FC00
FC00
FC00
FC00
FC00
FC00
FC00
FC00
FC00
FC00
FC00
FC00
FC00
FC00
FC00
FC00
FC00
ENDCHAR
STARTCHAR 015A
ENCODING 346
SWIDTH 585 0
DWIDTH 26 0
BBX 23 43 2 0
BITMAP
0007E0
0007C0
000F80
001F00
001E00
003C00
000000
000000
000000
07FF80
1FFFFC
3FFFFC
7FFFFC
7FFFFC
7FFFFC
FE0000
FE0000
FC0000
FC0000
FC0000
FC0000
FE0000
FE0000
FFFFC0
7FFFF0
7FFFF8
3FFFFC
1FFFFC
0FFFFC
0001FE
0000FE
0000FE
00007E
00007E
00007E
0000FE
0000FE
7FFFFC
7FFFFC
7FFFFC
7FFFF8
7FFFF0
07FFC0
ENDCHAR
STARTCHAR 015B
ENCODING 347
SWIDTH 517 0
DWIDTH 23 0
BBX 20 35 1 -1
BITMAP
000F80
001F80
001F00
003E00
007C00
007800
000000
000000
000000
0FFF00
3FFFE0
7FFFE0
7FFFE0
FFFFE0
FE0000
FE0000
FE0000
FE0000
FE0000
FF0000
FFFFC0
7FFFE0
7FFFF0
3FFFF0
0FFFF0
0003F0
0003F0
0003F0
0003F0
0007F0
7FFFF0
7FFFF0
7FFFE0
7FFFE0
07FF80
ENDCHAR
STARTCHAR 015C
ENCODING 348
SWIDTH 585 0
DWIDTH 26 0
BBX 23 43 2 0
BITMAP
003C00
007E00
00FF00
01FF80
03E780
03C3C0
040000
000000
000000
07FF80
1FFFFC
3FFFFC
7FFFFC
7FFFFC
7FFFFC
FE0000
FE0000
FC0000
FC0000
FC0000
FC0000
FE0000
FE0000
FFFFC0
7FFFF0
7FFFF8
3FFFFC
1FFFFC
0FFFFC
0001FE
0000FE
0000FE
00007E
00007E
00007E
0000FE
0000FE
7FFFFC
7FFFFC
7FFFFC
7FFFF8
7FFFF0
07FFC0
ENDCHAR
STARTCHAR 015D
ENCODING 349
SWIDTH 517 0
DWIDTH 23 0
BBX 20 35 1 -1
BITMAP
00F800
01FC00
03FE00
03FE00
079F00
0F0F80
000000
000000
000000
0FFF00
3FFFE0
7FFFE0
7FFFE0
FFFFE0
FE0000
FE0000
FE0000
FE0000
FE0000
FF0000
FFFFC0
7FFFE0
7FFFF0
3FFFF0
0FFFF0
0003F0
0003F0
0003F0
0003F0
0007F0
7FFFF0
7FFFF0
7FFFE0
7FFFE0
07FF80
ENDCHAR
STARTCHAR 015E
ENCODING 350
SWIDTH 585 0
DWIDTH 26 0
BBX 23 42 2 -8
BITMAP
07FF80
1FFFFC
3FFFFC
7FFFFC
7FFFFC
7FFFFC
FE0000
FE0000
FC0000
FC0000
FC0000
FC0000
FE0000
FE0000
FFFFC0
7FFFF0
7FFFF8
3FFFFC
1FFFFC
0FFFFC
0001FE
0000FE
0000FE
00007E
00007E
00007E
0000FE
0000FE
7FFFFC
7FFFFC
7FFFFC
7FFFF8
7FFFF0
07FFC0
000000
000000
003C00
003C00
007C00
01FC00
01F800
01F000
ENDCHAR
STARTCHAR 015F
ENCODING 351
SWIDTH 517 0
DWIDTH 23 0
BBX 20 34 1 -9
BITMAP
0FFF00
3FFFE0
7FFFE0
7FFFE0
FFFFE0
FE0000
FE0000
FE0000
FE0000
FE0000
FF0000
FFFFC0
7FFFE0
7FFFF0
3FFFF0
0FFFF0
0003F0
0003F0
0003F0
0003F0
0007F0
7FFFF0
7FFFF0
7FFFE0
7FFFE0
07FF80
000000
03C000
03C000
03C000
0FC000
1FC000
1F8000
1E0000
ENDCHAR
STARTCHAR 0160
ENCODING 352
SWIDTH 585 0
DWIDTH 26 0
BBX 23 43 2 0
BITMAP
0783C0
03C7C0
01EF80
01FF00
00FE00
007E00
000000
000000
000000
07FF80
1FFFFC
3FFFFC
7FFFFC
7FFFFC
7FFFFC
FE0000
FE0000
FC0000
FC0000
FC0000
FC0000
FE0000
FE0000
FFFFC0
7FFFF0
7FFFF8
3FFFFC
1FFFFC
0FFFFC
0001FE
0000FE
0000FE
00007E
00007E
00007E
0000FE
0000FE
7FFFFC
7FFFFC
7FFFFC
7FFFF8
7FFFF0
07FFC0
ENDCHAR
STARTCHAR 0161
ENCODING 353
SWIDTH 517 0
DWIDTH 23 0
BBX 20 35 1 -1
BITMAP
0F0780
078F00
03DF00
03FE00
01FC00
00F800
000000
000000
000000
0FFF00
3FFFE0
7FFFE0
7FFFE0
FFFFE0
FE0000
FE0000
FE0000
FE0000
FE0000
FF0000
FFFFC0
7FFFE0
7FFFF0
3FFFF0
0FFFF0
0003F0
0003F0
0003F0
0003F0
0007F0
7FFFF0
7FFFF0
7FFFE0
7FFFE0
07FF80
ENDCHAR
STARTCHAR 0162
ENCODING 354
SWIDTH 585 0
DWIDTH 26 0
BBX 24 41 1 -7
BITMAP
FFFFFF
FFFFFF
FFFFFF
FFFFFF
FFFFFF
FFFFFF
007E00
007E00
007E00
007E00
007E00
007E00
007E00
007E00
007E00
007E00
007E00
007E00
007E00
007E00
007E00
007E00
007E00
007E00
007E00
007E00
007E00
007E00
007E00
007E00
007E00
007E00
007E00
007E00
03FE00
03E000
03E000
07C000
1FC000
1F8000
1E0000
ENDCHAR
STARTCHAR 0163
ENCODING 355
SWIDTH 382 0
DWIDTH 17 0
BBX 15 41 1 -9
BITMAP
0FC0
0FC0
0FC0
0FC0
0FC0
0FC0
0FC0
3FFE
FFFE
FFFE
FFFE
FFFE
1FC0
1FC0
1FC0
1FC0
1FC0
1FC0
1FC0
1FC0
1FC0
1FC0
1FC0
1FC0
1FC0
1FC0
0FC0
0FE0
0FF8
0FFE
07FE
07FE
01FE
0000
0000
0780
0780
0F80
3F80
3F00
3E00
ENDCHAR
STARTCHAR 0164
ENCODING 356
SWIDTH 585 0
DWIDTH 26 0
BBX 24 44 1 -1
BITMAP
03C1E0
03E3C0
01F780
00FF80
007F00
007E00
000000
000000
000000
FFFFFF
FFFFFF
FFFFFF
FFFFFF
FFFFFF
FFFFFF
007E00
007E00
007E00
007E00
007E00
007E00
007E00
007E00
007E00
007E00
007E00
007E00
007E00
007E00
007E00
007E00
007E00
007E00
007E00
007E00
007E00
007E00
007E00
007E00
007E00
007E00
007E00
007E00
007E00
ENDCHAR
STARTCHAR 0165
ENCODING 357
SWIDTH 405 0
DWIDTH 18 0
BBX 16 38 1 -1
BITMAP
000F
000F
000F
000F
000F
0FCF
0FCF
0FCF
0FC7
0FC0
0FC0
0FC0
3FFE
FFFE
FFFE
FFFE
FFFE
1FC0
1FC0
1FC0
1FC0
1FC0
1FC0
1FC0
1FC0
1FC0
1FC0
1FC0
1FC0
1FC0
1FC0
0FC0
0FE0
0FF8
0FFE
07FE
07FE
01FE
ENDCHAR
STARTCHAR 0166
ENCODING 358
SWIDTH 585 0
DWIDTH 26 0
BBX 24 35 1 -1
BITMAP
FFFFFF
FFFFFF
FFFFFF
FFFFFF
FFFFFF
FFFFFF
007E00
007E00
007E00
007E00
007E00
007E00
007E00
007E00
0FFFE0
0FFFE0
0FFFE0
007E00
007E00
007E00
007E00
007E00
007E00
007E00
007E00
007E00
007E00
007E00
007E00
007E00
007E00
007E00
007E00
007E00
007E00
ENDCHAR
STARTCHAR 0167
ENCODING 359
SWIDTH 382 0
DWIDTH 17 0
BBX 15 33 1 -1
BITMAP
0FC0
0FC0
0FC0
0FC0
0FC0
0FC0
0FC0
3FFE
FFFE
FFFE
FFFE
FFFE
1FC0
1FC0
1FC0
1FC0
1FC0
FFF8
FFF8
FFF8
1FC0
1FC0
1FC0
1FC0
1FC0
0FC0
0FC0
0FE0
0FF8
0FFE
07FE
07FE
01FE
ENDCHAR
STARTCHAR 0168
ENCODING 360
SWIDTH 675 0
DWIDTH 30 0
BBX 25 44 3 -1
BITMAP
00002000
00F06000
03FFF000
07FFE000
07FFC000
06078000
00000000
00000000
00000000
FC003F80
FC003F80
FC003F80
FC003F80
FC003F80
FC003F80
FC003F80
FC003F80
FC003F80
FC003F80
FC003F80
FC003F80
FC003F80
FC003F80
FC003F80
FC003F80
FC003F80
FC003F80
FC003F80
FC003F80
FC003F80
FC003F80
FC003F00
FC003F00
FC003F00
FC003F00
FE007F00
FE007F00
7F00FE00
7FFFFE00
7FFFFE00
3FFFFC00
1FFFF800
0FFFF000
03FFC000
ENDCHAR
STARTCHAR 0169
ENCODING 361
SWIDTH 540 0
DWIDTH 24 0
BBX 20 35 2 -1
BITMAP
000080
03C180
0FFF80
1FFF80
1FFF00
181E00
000000
000000
000000
FC03F0
FC03F0
FC03F0
FC03F0
FC03F0
FC03F0
FC03F0
FC03F0
FC03F0
FC03F0
FC03F0
FC03F0
FC03F0
FC03F0
FC03F0
FC03F0
FC03F0
FC03F0
FC03F0
FC07F0
FE1FF0
FFFFF0
7FFFF0
7FFFF0
3FF1F0
0FC1F0
ENDCHAR
STARTCHAR 016A
ENCODING 362
SWIDTH 675 0
DWIDTH 30 0
BBX 25 42 3 -1
BITMAP
03FFE000
03FFE000
03FFE000
03FFE000
00000000
00000000
00000000
FC003F80
FC003F80
FC003F80
FC003F80
FC003F80
FC003F80
FC003F80
FC003F80
FC003F80
FC003F80
FC003F80
FC003F80
FC003F80
FC003F80
FC003F80
FC003F80
FC003F80
FC003F80
FC003F80
FC003F80
FC003F80
FC003F80
FC003F00
FC003F00
FC003F00
FC003F00
FE007F00
FE007F00
7F00FE00
7FFFFE00
7FFFFE00
3FFFFC00
1FFFF800
0FFFF000
03FFC000
ENDCHAR
STARTCHAR 016B
ENCODING 363
SWIDTH 540 0
DWIDTH 24 0
BBX 20 33 2 -1
BITMAP
0FFF80
0FFF80
0FFF80
0FFF80
000000
000000
000000
FC03F0
FC03F0
FC03F0
FC03F0
FC03F0
FC03F0
FC03F0
FC03F0
FC03F0
FC03F0
FC03F0
FC03F0
FC03F0
FC03F0
FC03F0
FC03F0
FC03F0
FC03F0
FC03F0
FC07F0
FE1FF0
FFFFF0
7FFFF0
7FFFF0
3FF1F0
0FC1F0
ENDCHAR
STARTCHAR 016C
ENCODING 364
SWIDTH 675 0
DWIDTH 30 0
BBX 25 43 3 -1
BITMAP
01C18000
01C38000
00FF8000
00FF0000
003E0000
00000000
00000000
00000000
FC003F80
FC003F80
FC003F80
FC003F80
FC003F80
FC003F80
FC003F80
FC003F80
FC003F80
FC003F80
FC003F80
FC003F80
FC003F80
FC003F80
FC003F80
FC003F80
FC003F80
FC003F80
FC003F80
FC003F80
FC003F80
FC003F80
FC003F00
FC003F00
FC003F00
FC003F00
FE007F00
FE007F00
7F00FE00
7FFFFE00
7FFFFE00
3FFFFC00
1FFFF800
0FFFF000
03FFC000
ENDCHAR
STARTCHAR 016D
ENCODING 365
SWIDTH 540 0
DWIDTH 24 0
BBX 20 34 2 -1
BITMAP
070600
070E00
03FE00
03FC00
00F800
000000
000000
000000
FC03F0
FC03F0
FC03F0
FC03F0
FC03F0
FC03F0
FC03F0
FC03F0
FC03F0
FC03F0
FC03F0
FC03F0
FC03F0
FC03F0
FC03F0
FC03F0
FC03F0
FC03F0
FC03F0
FC07F0
FE1FF0
FFFFF0
7FFFF0
7FFFF0
3FF1F0
0FC1F0
ENDCHAR
STARTCHAR 016E
ENCODING 366
SWIDTH 675 0
DWIDTH 30 0
BBX 25 47 3 -1
BITMAP
003C0000
007E0000
00FF0000
00E38000
00C38000
00C38000
00FF0000
007F0000
003C0000
00000000
00000000
00000000
FC003F80
FC003F80
FC003F80
FC003F80
FC003F80
FC003F80
FC003F80
FC003F80
FC003F80
FC003F80
FC003F80
FC003F80
FC003F80
FC003F80
FC003F80
FC003F80
FC003F80
FC003F80
FC003F80
FC003F80
FC003F80
FC003F80
FC003F00
FC003F00
FC003F00
FC003F00
FE007F00
FE007F00
7F00FE00
7FFFFE00
7FFFFE00
3FFFFC00
1FFFF800
0FFFF000
03FFC000
ENDCHAR
STARTCHAR 016F
ENCODING 367
SWIDTH 540 0
DWIDTH 24 0
BBX 20 38 2 -1
BITMAP
00F000
01F800
03FC00
038C00
030E00
030C00
03FC00
01F800
00F000
000000
000000
000000
FC03F0
FC03F0
FC03F0
FC03F0
FC03F0
FC03F0
FC03F0
FC03F0
FC03F0
FC03F0
FC03F0
FC03F0
FC03F0
FC03F0
FC03F0
FC03F0
FC03F0
FC03F0
FC03F0
FC07F0
FE1FF0
FFFFF0
7FFFF0
7FFFF0
3FF1F0
0FC1F0
ENDCHAR
STARTCHAR 0170
ENCODING 368
SWIDTH 675 0
DWIDTH 30 0
BBX 25 44 3 -1
BITMAP
003F7E00
003E7C00
007CF800
00F9F000
00F1E000
01E3C000
00000000
00000000
00000000
FC003F80
FC003F80
FC003F80
FC003F80
FC003F80
FC003F80
FC003F80
FC003F80
FC003F80
FC003F80
FC003F80
FC003F80
FC003F80
FC003F80
FC003F80
FC003F80
FC003F80
FC003F80
FC003F80
FC003F80
FC003F80
FC003F80
FC003F00
FC003F00
FC003F00
FC003F00
FE007F00
FE007F00
7F00FE00
7FFFFE00
7FFFFE00
3FFFFC00
1FFFF800
0FFFF000
03FFC000
ENDCHAR
STARTCHAR 0171
ENCODING 369
SWIDTH 540 0
DWIDTH 24 0
BBX 21 35 2 -1
BITMAP
00FDF8
00F9F0
01F3E0
03E7C0
03C780
078F00
000000
000000
000000
FC03F0
FC03F0
FC03F0
FC03F0
FC03F0
FC03F0
FC03F0
FC03F0
FC03F0
FC03F0
FC03F0
FC03F0
FC03F0
FC03F0
FC03F0
FC03F0
FC03F0
FC03F0
FC03F0
FC07F0
FE1FF0
FFFFF0
7FFFF0
7FFFF0
3FF1F0
0FC1F0
ENDCHAR
STARTCHAR 0172
ENCODING 370
SWIDTH 675 0
DWIDTH 30 0
BBX 25 43 3 -10
BITMAP
FC003F80
FC003F80
FC003F80
FC003F80
FC003F80
FC003F80
FC003F80
FC003F80
FC003F80
FC003F80
FC003F80
FC003F80
FC003F80
FC003F80
FC003F80
FC003F80
FC003F80
FC003F80
FC003F80
FC003F80
FC003F80
FC003F00
FC003F00
FC003F00
FC003F00
FC003F00
FE007F00
FE007F00
7F00FE00
7FFFFE00
7FFFFE00
3FFFFC00
1FFFF800
0FFFF000
03FFC000
00380000
00700000
00E00000
00E00000
00F80000
00FC0000
007C0000
003C0000
ENDCHAR
STARTCHAR 0173
ENCODING 371
SWIDTH 540 0
DWIDTH 24 0
BBX 20 35 2 -11
BITMAP
FC03F0
FC03F0
FC03F0
FC03F0
FC03F0
FC03F0
FC03F0
FC03F0
FC03F0
FC03F0
FC03F0
FC03F0
FC03F0
FC03F0
FC03F0
FC03F0
FC03F0
FC03F0
FC03F0
FC07F0
FE1FF0
FFFFF0
7FFFF0
7FFFF0
3FF1F0
0FC1F0
0001C0
0001C0
000380
000380
0003C0
0003F0
0003F0
0001F0
000020
ENDCHAR
STARTCHAR 0174
ENCODING 372
SWIDTH 990 0
DWIDTH 44 0
BBX 41 44 2 -1
BITMAP
00003F000000
00003F000000
00007F800000
0000FFC00000
0001F3C00000
0003E1E00000
000000000000
000000000000
000000000000
FC001FC01F80
FE001F803F80
FE001F803F80
7E003F803F00
7E003F803F00
7F003F007F00
7F003F007F00
3F007F007E00
3F807F007E00
3F807F007E00
1F807F00FE00
1F807F00FC00
1FC0FF80FC00
1FC0FF80FC00
0FC0FF81FC00
0FC0FFC1F800
0FE1FFC1F800
07E1FFC1F800
07E1FFC3F800
07F1FFE3F000
07F1FFE3F000
03F3FFE3F000
03F3F7F3F000
03FBF3F7E000
01FBF3F7E000
01FFE3FFE000
01FFE1FFE000
00FFE1FFC000
00FFE1FFC000
00FFC1FFC000
00FFC0FF8000
007FC0FF8000
007FC0FF8000
007F807F8000
003F807F0000
ENDCHAR
STARTCHAR 0175
ENCODING 373
SWIDTH 832 0
DWIDTH 37 0
BBX 35 35 1 -1
BITMAP
0001F80000
0001F80000
0003FC0000
0007FE0000
000F9E0000
001F0F0000
0000000000
0000000000
0000000000
FC01F80FE0
FE01F80FE0
FE01F80FC0
7E03F80FC0
7F03F01FC0
7F03F01F80
3F03F01F80
3F07F03F80
3F87F03F80
3F87F83F00
1F87F83F00
1F87F87F00
1FCFFC7E00
0FCFFC7E00
0FCFFE7E00
0FCFFEFE00
0FFFFEFC00
07FFFFFC00
07FF3FFC00
07FF3FF800
03FF3FF800
03FF1FF800
03FE1FF000
03FE0FF000
01FE0FF000
01FC0FF000
ENDCHAR
STARTCHAR 0176
ENCODING 374
SWIDTH 652 0
DWIDTH 29 0
BBX 26 44 2 -1
BITMAP
003F0000
003F0000
007F8000
00FFC000
01F3C000
03E1E000
00000000
00000000
00000000
FC001FC0
FE001FC0
7E001F80
7F003F80
7F003F00
3F007F00
3F807E00
1F80FE00
1F80FE00
0FC0FC00
0FC1FC00
07E1F800
07E3F800
07E3F000
03F3F000
03F7E000
01FFE000
01FFE000
00FFC000
00FFC000
007F8000
007F8000
007F0000
007F0000
007F0000
007F0000
007F0000
007F0000
007F0000
007F0000
007F0000
007F0000
007F0000
007F0000
007F0000
ENDCHAR
STARTCHAR 0177
ENCODING 375
SWIDTH 585 0
DWIDTH 26 0
BBX 24 45 1 -11
BITMAP
007E00
007E00
00FF00
01FF80
03E7C0
07C3C0
000000
000000
000000
FC007F
FE007E
FE007E
7E00FE
7E00FE
7F00FC
7F00FC
3F01FC
3F01FC
3F81F8
3F81F8
1F83F8
1F83F8
1FC3F0
1FC3F0
0FC7F0
0FC7F0
0FE7E0
07FFE0
07FFE0
07FFC0
03FFC0
01FFC0
001FC0
001F80
001F80
001F80
003F80
003F00
003F00
007F00
007E00
007E00
007C00
00F800
00F800
ENDCHAR
STARTCHAR 0178
ENCODING 376
SWIDTH 652 0
DWIDTH 29 0
BBX 26 43 2 -1
BITMAP
07807000
07C0F800
07C0F800
07C0F800
03807000
00000000
00000000
00000000
FC001FC0
FE001FC0
7E001F80
7F003F80
7F003F00
3F007F00
3F807E00
1F80FE00
1F80FE00
1FC0FC00
0FC1FC00
0FE1F800
07E3F800
07E3F000
07F3F000
03F7E000
03FFE000
01FFE000
01FFC000
01FFC000
00FF8000
00FF8000
007F0000
007F0000
007F0000
007F0000
007F0000
007F0000
007F0000
007F0000
007F0000
007F0000
007F0000
007F0000
007F0000
ENDCHAR
STARTCHAR 0179
ENCODING 377
SWIDTH 562 0
DWIDTH 25 0
BBX 23 44 1 -1
BITMAP
0007C0
000F80
000F80
001F00
003E00
003C00
000000
000000
000000
FFFFFE
FFFFFE
FFFFFE
FFFFFE
FFFFFE
FFFFFE
0001FC
0003FC
0007F8
0007F0
000FF0
001FE0
001FE0
003FC0
003F80
007F80
00FF00
00FF00
01FE00
03FC00
03FC00
07F800
0FF800
0FF000
1FE000
1FE000
3FC000
7F8000
7F8000
FFFFFE
FFFFFE
FFFFFE
FFFFFE
FFFFFE
FFFFFE
ENDCHAR
STARTCHAR 017A
ENCODING 378
SWIDTH 472 0
DWIDTH 21 0
BBX 19 34 1 0
BITMAP
001F80
001F00
003E00
007C00
007800
00F000
000000
000000
000000
FFFFE0
FFFFE0
FFFFE0
FFFFE0
FFFFE0
001FE0
003FC0
003FC0
007F80
00FF00
01FE00
01FE00
03FC00
07F800
07F800
0FF000
1FE000
3FE000
3FC000
7F8000
7FFFE0
7FFFE0
7FFFE0
7FFFE0
7FFFE0
ENDCHAR
STARTCHAR 017B
ENCODING 379
SWIDTH 562 0
DWIDTH 25 0
BBX 23 44 1 -1
BITMAP
003800
007C00
007C00
007C00
007C00
007C00
000000
000000
000000
FFFFFE
FFFFFE
FFFFFE
FFFFFE
FFFFFE
FFFFFE
0001FC
0003FC
0007F8
0007F0
000FF0
001FE0
001FE0
003FC0
003F80
007F80
00FF00
00FF00
01FE00
03FC00
03FC00
07F800
0FF800
0FF000
1FE000
1FE000
3FC000
7F8000
7F8000
FFFFFE
FFFFFE
FFFFFE
FFFFFE
FFFFFE
FFFFFE
ENDCHAR
STARTCHAR 017C
ENCODING 380
SWIDTH 472 0
DWIDTH 21 0
BBX 19 34 1 0
BITMAP
00E000
01F000
01F000
01F000
01F000
01F000
000000
000000
000000
FFFFE0
FFFFE0
FFFFE0
FFFFE0
FFFFE0
001FE0
003FC0
003FC0
007F80
00FF00
01FE00
01FE00
03FC00
07F800
07F800
0FF000
1FE000
3FE000
3FC000
7F8000
7FFFE0
7FFFE0
7FFFE0
7FFFE0
7FFFE0
ENDCHAR
STARTCHAR 017D
ENCODING 381
SWIDTH 562 0
DWIDTH 25 0
BBX 23 44 1 -1
BITMAP
0783C0
03C780
03EF00
01FF00
00FE00
007C00
000000
000000
000000
FFFFFE
FFFFFE
FFFFFE
FFFFFE
FFFFFE
FFFFFE
0001FC
0003FC
0007F8
0007F0
000FF0
001FE0
001FE0
003FC0
003F80
007F80
00FF00
00FF00
01FE00
03FC00
03FC00
07F800
0FF800
0FF000
1FE000
1FE000
3FC000
7F8000
7F8000
FFFFFE
FFFFFE
FFFFFE
FFFFFE
FFFFFE
FFFFFE
ENDCHAR
STARTCHAR 017E
ENCODING 382
SWIDTH 472 0
DWIDTH 21 0
BBX 19 34 1 0
BITMAP
1E0F00
0F1E00
07BE00
07FC00
03F800
01F000
000000
000000
000000
FFFFE0
FFFFE0
FFFFE0
FFFFE0
FFFFE0
001FE0
003FC0
003FC0
007F80
00FF00
01FE00
01FE00
03FC00
07F800
07F800
0FF000
1FE000
3FE000
3FC000
7F8000
7FFFE0
7FFFE0
7FFFE0
7FFFE0
7FFFE0
ENDCHAR
STARTCHAR 0192
ENCODING 402
SWIDTH 585 0
DWIDTH 26 0
BBX 25 45 1 -9
BITMAP
00007E00
0001FF80
0003FF00
0003FF00
0007FF00
0007F000
000FE000
000FC000
001FC000
001FC000
001F8000
001F8000
001F8000
003F8000
03FFFC00
03FFFC00
03FFF800
03FFF800
03FFF800
007F0000
007F0000
007E0000
007E0000
007E0000
007E0000
007E0000
00FE0000
00FE0000
00FC0000
00FC0000
00FC0000
00FC0000
01FC0000
01FC0000
01F80000
01F80000
01F80000
03F80000
03F00000
07F00000
FFF00000
FFE00000
FFC00000
FF800000
7F000000
ENDCHAR
STARTCHAR 02C6
ENCODING 710
SWIDTH 382 0
DWIDTH 17 0
BBX 13 6 2 24
BITMAP
0F80
1FC0
1FE0
3FF0
78F0
F078
ENDCHAR
STARTCHAR 02C7
ENCODING 711
SWIDTH 382 0
DWIDTH 17 0
BBX 13 6 2 24
BITMAP
F078
78F0
3DF0
3FE0
1FC0
0F80
ENDCHAR
STARTCHAR 02D8
ENCODING 728
SWIDTH 315 0
DWIDTH 14 0
BBX 10 5 2 23
BITMAP
C1C0
E3C0
7F80
7F00
0800
ENDCHAR
STARTCHAR 02D9
ENCODING 729
SWIDTH 202 0
DWIDTH 9 0
BBX 5 6 2 23
BITMAP
70
F8
F8
F8
F8
F8
ENDCHAR
STARTCHAR 02DA
ENCODING 730
SWIDTH 270 0
DWIDTH 12 0
BBX 9 10 2 24
BITMAP
3C00
7F00
FF00
E380
C380
C380
E700
FF00
7E00
1C00
ENDCHAR
STARTCHAR 02DB
ENCODING 731
SWIDTH 202 0
DWIDTH 9 0
BBX 6 9 2 -10
BITMAP
38
70
E0
E0
F0
FC
FC
7C
08
ENDCHAR
STARTCHAR 02DC
ENCODING 732
SWIDTH 427 0
DWIDTH 19 0
BBX 15 5 2 24
BITMAP
1E0C
7FFE
FFFC
FFF8
E0F0
ENDCHAR
STARTCHAR 02DD
ENCODING 733
SWIDTH 405 0
DWIDTH 18 0
BBX 16 6 1 24
BITMAP
1FBF
1F3E
3E7C
7CF8
78F0
F1E0
ENDCHAR
STARTCHAR 0338
ENCODING 824
SWIDTH 630 0
DWIDTH 28 0
BBX 24 35 2 -1
BITMAP
07FFE0
1FFFF8
3FFFFC
7FFFFE
7FFFFE
7FFFFE
FF01FF
FE01FF
FE03FF
FE03FF
FE07FF
FE077F
FE0F7F
FE0E7F
FE1E7F
FE1C7F
FE1C7F
FE387F
FE387F
FE787F
FE707F
FEF07F
FEE07F
FFE07F
FFC07F
FFC07F
FF807F
FF807F
FF007F
7FFFFE
7FFFFE
7FFFFE
3FFFFC
1FFFF8
07FFE0
ENDCHAR
STARTCHAR 03A9
ENCODING 937
SWIDTH 765 0
DWIDTH 34 0
BBX 30 33 2 -1
BITMAP
00078000
00FFFC00
03FFFF00
07FFFF80
0FFFFFC0
1FFFFFE0
3FF03FE0
3FC00FF0
7F8007F0
7F0003F8
7E0003F8
7E0001F8
FE0001F8
FE0001F8
FC0001FC
FC0001FC
FC0001FC
FC0001F8
FC0001F8
FE0001F8
7E0001F8
7E0001F8
7E0003F8
3F0003F0
3F0007F0
1F8007E0
0FC00FC0
1FE01FC0
FFE01FFC
FFE01FFC
FFE01FFC
FFE01FFC
FFE01FFC
ENDCHAR
STARTCHAR 03C0
ENCODING 960
SWIDTH 652 0
DWIDTH 29 0
BBX 27 26 1 -1
BITMAP
FFFFFF80
FFFFFF80
FFFFFF80
FFFFFF80
FFFFFF80
FFFFFF80
1F81F800
1F81F800
1F81F800
1F81F800
1F81F800
1F81F800
1F81F800
1F81F800
1F81F800
1F81F800
1F81F800
1F81F800
1F81F800
1F81F800
1F81FC00
1F81FFE0
1F81FFE0
1F80FFE0
1F807FE0
1F803F80
ENDCHAR
STARTCHAR 1E02
ENCODING 7682
SWIDTH 607 0
DWIDTH 27 0
BBX 23 44 3 -1
BITMAP
007000
00F800
00F800
00F800
00F800
00F800
000000
000000
000000
FFFF80
FFFFE0
FFFFF0
FFFFF8
FFFFF8
FFFFFC
FC01FC
FC00FC
FC00FC
FC00FC
FC00FC
FC00FC
FC01FC
FC01F8
FFFFF8
FFFFF0
FFFFE0
FFFFF0
FFFFF8
FC03FC
FC01FC
FC00FC
FC00FE
FC007E
FC007E
FC007E
FC00FE
FC00FE
FC01FC
FFFFFC
FFFFFC
FFFFF8
FFFFF8
FFFFE0
FFFF80
ENDCHAR
STARTCHAR 1E03
ENCODING 7683
SWIDTH 562 0
DWIDTH 25 0
BBX 21 44 2 -1
BITMAP
780000
FC0000
FC0000
FC0000
FC0000
F80000
000000
000000
000000
FC0000
FC0000
FC0000
FC0000
FC0000
FC0000
FC0000
FC0000
FC0000
FC0000
FC0000
FC7F00
FFFFC0
FFFFE0
FFFFE0
FFFFF0
FE07F0
FC03F0
FC03F8
FC03F8
FC03F8
FC01F8
FC01F8
FC01F8
FC01F8
FC03F8
FC03F8
FC03F0
FC03F0
FFCFF0
FFFFF0
FFFFE0
FFFFE0
F8FFC0
F83F00
ENDCHAR
STARTCHAR 1E0A
ENCODING 7690
SWIDTH 652 0
DWIDTH 29 0
BBX 25 44 3 -1
BITMAP
00780000
00FC0000
00FC0000
00FC0000
00FC0000
007C0000
00000000
00000000
00000000
FFFF8000
FFFFE000
FFFFF800
FFFFF800
FFFFFC00
FFFFFE00
FC00FE00
FC007F00
FC007F00
FC003F00
FC003F00
FC003F00
FC003F80
FC003F80
FC003F80
FC001F80
FC001F80
FC001F80
FC001F80
FC001F80
FC003F80
FC003F80
FC003F80
FC003F00
FC003F00
FC003F00
FC007F00
FC007E00
FC00FE00
FFFFFE00
FFFFFC00
FFFFF800
FFFFF000
FFFFE000
FFFF8000
ENDCHAR
STARTCHAR 1E0B
ENCODING 7691
SWIDTH 562 0
DWIDTH 25 0
BBX 21 44 2 -1
BITMAP
0000E0
0001F0
0001F0
0001F0
0001F0
0001F0
000000
000000
000000
0001F8
0001F8
0001F8
0001F8
0001F8
0001F8
0001F8
0001F8
0001F8
0001F8
0001F8
0FE1F8
3FFDF8
3FFFF8
7FFFF8
7FFFF8
FE03F8
FE01F8
FC01F8
FC01F8
FC01F8
FC01F8
FC01F8
FC01F8
FC01F8
FC01F8
FC01F8
FC01F8
FE03F8
FF3FF8
7FFFF8
7FFFF8
3FFDF8
1FF9F8
0FC1F8
ENDCHAR
STARTCHAR 1E1E
ENCODING 7710
SWIDTH 562 0
DWIDTH 25 0
BBX 21 44 3 -1
BITMAP
007800
00FC00
00FC00
00FC00
00FC00
00F800
000000
000000
000000
1FFFC0
3FFFF8
7FFFF8
FFFFF8
FFFFF8
FFFFF8
FC0000
FC0000
FC0000
FC0000
FC0000
FC0000
FC0000
FC0000
FFFC00
FFFFE0
FFFFE0
FFFFE0
FFFFE0
FFFFE0
FC0000
FC0000
FC0000
FC0000
FC0000
FC0000
FC0000
FC0000
FC0000
FC0000
FC0000
FC0000
FC0000
FC0000
FC0000
ENDCHAR
STARTCHAR 1E1F
ENCODING 7711
SWIDTH 405 0
DWIDTH 18 0
BBX 16 46 1 -1
BITMAP
01F0
01F8
01F8
01F8
01F8
00F0
0000
0000
0000
01FC
07FF
0FFF
0FFF
0FFF
1FC0
1FC0
1FC0
1FC0
1FC0
1FC0
7FFE
FFFE
FFFE
FFFE
FFFE
1FC0
1FC0
1FC0
1FC0
1FC0
1FC0
1FC0
1FC0
1FC0
1FC0
1FC0
1FC0
1FC0
1FC0
1FC0
1FC0
1FC0
1FC0
1FC0
1FC0
1FC0
ENDCHAR
STARTCHAR 1E40
ENCODING 7744
SWIDTH 855 0
DWIDTH 38 0
BBX 34 44 2 -1
BITMAP
0001C00000
0003E00000
0003E00000
0003E00000
0003E00000
0003E00000
0000000000
0000000000
0000000000
1FE003FE00
1FF003FE00
3FF003FE00
3FF007FE00
3FF007FE00
3FF807FE00
3FF807FE00
3FF80FFE00
3FF80FFF00
3FFC0FFF00
3FFC0FFF00
3FFC0FFF00
3FFC1FBF00
3FFC1FBF00
3F7E1FBF00
7F7E1FBF00
7F7E3F3F00
7E7E3F3F00
7E7F3F3F00
7E3F3F3F00
7E3F3F3F80
7E3F7E3F80
7E3F7E1F80
7E1FFE1F80
7E1FFE1F80
7E1FFC1F80
7E1FFC1F80
FE0FFC1F80
FE0FFC1F80
FC0FFC1F80
FC0FF81F80
FC07F81FC0
FC07F81FC0
FC07F80FC0
FC07F00FC0
ENDCHAR
STARTCHAR 1E41
ENCODING 7745
SWIDTH 877 0
DWIDTH 39 0
BBX 35 35 2 -1
BITMAP
0000700000
0000F80000
0000F80000
0000F80000
0000F80000
0000F80000
0000000000
0000000000
0000000000
F83F80FE00
FCFFC3FF80
FDFFEFFFC0
FFFFFFFFC0
FFFFFFFFE0
FF87FE0FE0
FE03F807E0
FC03F807E0
FC03F807E0
FC03F807E0
FC03F807E0
FC03F807E0
FC03F807E0
FC03F807E0
FC03F807E0
FC03F807E0
FC03F807E0
FC03F807E0
FC03F807E0
FC03F807E0
FC03F807E0
FC03F807E0
FC03F807E0
FC03F807E0
FC03F807E0
FC03F807E0
ENDCHAR
STARTCHAR 1E56
ENCODING 7766
SWIDTH 607 0
DWIDTH 27 0
BBX 23 44 2 -1
BITMAP
007000
00F800
00F800
00F800
00F800
00F800
000000
000000
000000
FFFFC0
FFFFF0
FFFFF8
FFFFFC
FFFFFC
FFFFFE
FC00FE
FC00FE
FC007E
FC007E
FC007E
FC007E
FC007E
FC007E
FC00FE
FC01FE
FFFFFC
FFFFFC
FFFFF8
FFFFF8
FFFFE0
FC0300
FC0000
FC0000
FC0000
FC0000
FC0000
FC0000
FC0000
FC0000
FC0000
FC0000
FC0000
FC0000
FC0000
ENDCHAR
STARTCHAR 1E57
ENCODING 7767
SWIDTH 562 0
DWIDTH 25 0
BBX 21 46 2 -12
BITMAP
007800
00FC00
00FC00
00FC00
00FC00
00F800
000000
000000
000000
F83F00
FCFFC0
FFFFE0
FFFFE0
FFFFF0
FFEFF0
FE03F0
FC03F8
FC03F8
FC01F8
FC01F8
FC01F8
FC01F8
FC01F8
FC01F8
FC01F8
FC01F8
FC03F8
FC03F8
FE07F0
FFFFF0
FFFFF0
FFFFE0
FFFFC0
FC7F00
FC0000
FC0000
FC0000
FC0000
FC0000
FC0000
FC0000
FC0000
FC0000
FC0000
FC0000
FC0000
ENDCHAR
STARTCHAR 1E60
ENCODING 7776
SWIDTH 585 0
DWIDTH 26 0
BBX 23 43 2 0
BITMAP
007800
00FC00
00FC00
00FC00
00FC00
007C00
000000
000000
000000
07FF80
1FFFFC
3FFFFC
7FFFFC
7FFFFC
7FFFFC
FE0000
FE0000
FC0000
FC0000
FC0000
FC0000
FE0000
FE0000
FFFFC0
7FFFF0
7FFFF8
3FFFFC
1FFFFC
0FFFFC
0001FE
0000FE
0000FE
00007E
00007E
00007E
0000FE
0000FE
7FFFFC
7FFFFC
7FFFFC
7FFFF8
7FFFF0
07FFC0
ENDCHAR
STARTCHAR 1E61
ENCODING 7777
SWIDTH 517 0
DWIDTH 23 0
BBX 20 35 1 -1
BITMAP
007000
00F800
00F800
00F800
00F800
00F800
000000
000000
000000
0FFF00
3FFFE0
7FFFE0
7FFFE0
FFFFE0
FE0000
FE0000
FE0000
FE0000
FE0000
FF0000
FFFFC0
7FFFE0
7FFFF0
3FFFF0
0FFFF0
0003F0
0003F0
0003F0
0003F0
0007F0
7FFFF0
7FFFF0
7FFFE0
7FFFE0
07FF80
ENDCHAR
STARTCHAR 1E6A
ENCODING 7786
SWIDTH 585 0
DWIDTH 26 0
BBX 24 44 1 -1
BITMAP
001C00
003E00
003E00
003E00
003E00
003E00
000000
000000
000000
FFFFFF
FFFFFF
FFFFFF
FFFFFF
FFFFFF
FFFFFF
007E00
007E00
007E00
007E00
007E00
007E00
007E00
007E00
007E00
007E00
007E00
007E00
007E00
007E00
007E00
007E00
007E00
007E00
007E00
007E00
007E00
007E00
007E00
007E00
007E00
007E00
007E00
007E00
007E00
ENDCHAR
STARTCHAR 1E6B
ENCODING 7787
SWIDTH 382 0
DWIDTH 17 0
BBX 15 41 1 -1
BITMAP
0700
0F80
0F80
0F80
0F80
0F80
0000
0000
0000
0FC0
0FC0
0FC0
0FC0
0FC0
0FC0
3FFE
FFFE
FFFE
FFFE
FFFE
1FC0
1FC0
1FC0
1FC0
1FC0
1FC0
1FC0
1FC0
1FC0
1FC0
1FC0
1FC0
1FC0
1FC0
0FC0
0FE0
0FF8
0FFE
07FE
07FE
01FE
ENDCHAR
STARTCHAR 1E80
ENCODING 7808
SWIDTH 990 0
DWIDTH 44 0
BBX 41 44 2 -1
BITMAP
0003E0000000
0003F0000000
0001F0000000
0000F8000000
000078000000
00003C000000
000000000000
000000000000
000000000000
FC001FC01F80
FE001F803F80
FE001F803F80
7E003F803F00
7E003F803F00
7F003F007F00
7F003F007F00
3F007F007E00
3F807F007E00
3F807F007E00
1F807F00FE00
1F807F00FC00
1FC0FF80FC00
1FC0FF80FC00
0FC0FF81FC00
0FC0FFC1F800
0FE1FFC1F800
07E1FFC1F800
07E1FFC3F800
07F1FFE3F000
07F1FFE3F000
03F3FFE3F000
03F3F7F3F000
03FBF3F7E000
01FBF3F7E000
01FFE3FFE000
01FFE1FFE000
00FFE1FFC000
00FFE1FFC000
00FFC1FFC000
00FFC0FF8000
007FC0FF8000
007FC0FF8000
007F807F8000
003F807F0000
ENDCHAR
STARTCHAR 1E81
ENCODING 7809
SWIDTH 832 0
DWIDTH 37 0
BBX 35 35 1 -1
BITMAP
003F000000
001F800000
000F800000
0007C00000
0003C00000
0001E00000
0000000000
0000000000
0000000000
FC01F80FE0
FE01F80FE0
FE01F80FC0
7E03F80FC0
7F03F01FC0
7F03F01F80
3F03F01F80
3F07F03F80
3F87F03F80
3F87F83F00
1F87F83F00
1F87F87F00
1FCFFC7E00
0FCFFC7E00
0FCFFE7E00
0FCFFEFE00
0FFFFEFC00
07FFFFFC00
07FF3FFC00
07FF3FF800
03FF3FF800
03FF1FF800
03FE1FF000
03FE0FF000
01FE0FF000
01FC0FF000
ENDCHAR
STARTCHAR 1E82
ENCODING 7810
SWIDTH 990 0
DWIDTH 44 0
BBX 41 44 2 -1
BITMAP
000003F00000
000003E00000
000007C00000
00000F800000
00000F000000
00001E000000
000000000000
000000000000
000000000000
FC001FC01F80
FE001F803F80
FE001F803F80
7E003F803F00
7E003F803F00
7F003F007F00
7F003F007F00
3F007F007E00
3F807F007E00
3F807F007E00
1F807F00FE00
1F807F00FC00
1FC0FF80FC00
1FC0FF80FC00
0FC0FF81FC00
0FC0FFC1F800
0FE1FFC1F800
07E1FFC1F800
07E1FFC3F800
07F1FFE3F000
07F1FFE3F000
03F3FFE3F000
03F3F7F3F000
03FBF3F7E000
01FBF3F7E000
01FFE3FFE000
01FFE1FFE000
00FFE1FFC000
00FFE1FFC000
00FFC1FFC000
00FFC0FF8000
007FC0FF8000
007FC0FF8000
007F807F8000
003F807F0000
ENDCHAR
STARTCHAR 1E83
ENCODING 7811
SWIDTH 832 0
DWIDTH 37 0
BBX 35 35 1 -1
BITMAP
00001F8000
00001F0000
00003E0000
00007C0000
0000780000
0000F00000
0000000000
0000000000
0000000000
FC01F80FE0
FE01F80FE0
FE01F80FC0
7E03F80FC0
7F03F01FC0
7F03F01F80
3F03F01F80
3F07F03F80
3F87F03F80
3F87F83F00
1F87F83F00
1F87F87F00
1FCFFC7E00
0FCFFC7E00
0FCFFE7E00
0FCFFEFE00
0FFFFEFC00
07FFFFFC00
07FF3FFC00
07FF3FF800
03FF3FF800
03FF1FF800
03FE1FF000
03FE0FF000
01FE0FF000
01FC0FF000
ENDCHAR
STARTCHAR 1E84
ENCODING 7812
SWIDTH 990 0
DWIDTH 44 0
BBX 41 43 2 -1
BITMAP
000700700000
000F80F00000
000F81F80000
000F80F80000
000780F00000
000000000000
000000000000
000000000000
FC001FC01F80
FE001F803F80
FE001F803F80
7E003F803F00
7E003F803F00
7F003F007F00
7F003F007F00
3F007F007E00
3F807F007E00
3F807F007E00
1F807F00FE00
1F807F00FC00
1FC0FF80FC00
1FC0FF80FC00
0FC0FF81FC00
0FC0FFC1F800
0FE1FFC1F800
07E1FFC1F800
07E1FFC3F800
07F1FFE3F000
07F1FFE3F000
03F3FFE3F000
03F3F7F3F000
03FBF3F7E000
01FBF3F7E000
01FFE3FFE000
01FFE1FFE000
00FFE1FFC000
00FFE1FFC000
00FFC1FFC000
00FFC0FF8000
007FC0FF8000
007FC0FF8000
007F807F8000
003F807F0000
ENDCHAR
STARTCHAR 1E85
ENCODING 7813
SWIDTH 832 0
DWIDTH 37 0
BBX 35 34 1 -1
BITMAP
0038038000
003C07C000
007C07C000
007C07C000
003C078000
0000000000
0000000000
0000000000
FC01F80FE0
FE01F80FE0
FE01F80FC0
7E03F80FC0
7F03F01FC0
7F03F01F80
3F03F01F80
3F07F03F80
3F87F03F80
3F87F83F00
1F87F83F00
1F87F87F00
1FCFFC7E00
0FCFFC7E00
0FCFFE7E00
0FCFFEFE00
0FFFFEFC00
07FFFFFC00
07FF3FFC00
07FF3FF800
03FF3FF800
03FF1FF800
03FE1FF000
03FE0FF000
01FE0FF000
01FC0FF000
ENDCHAR
STARTCHAR 1EF2
ENCODING 7922
SWIDTH 652 0
DWIDTH 29 0
BBX 26 44 2 -1
BITMAP
03E00000
01F00000
00F80000
00780000
007C0000
003E0000
00000000
00000000
00000000
FC001FC0
FE001FC0
7E001F80
7F003F80
7F003F00
3F007F00
3F807E00
1F80FE00
1F80FE00
0FC0FC00
0FC1FC00
07E1F800
07E3F800
07E3F000
03F3F000
03F7E000
01FFE000
01FFE000
00FFC000
00FFC000
007F8000
007F8000
007F0000
007F0000
007F0000
007F0000
007F0000
007F0000
007F0000
007F0000
007F0000
007F0000
007F0000
007F0000
007F0000
ENDCHAR
STARTCHAR 1EF3
ENCODING 7923
SWIDTH 585 0
DWIDTH 26 0
BBX 24 45 1 -11
BITMAP
07C000
03E000
01F000
00F000
007800
007C00
000000
000000
000000
FC007F
FE007E
FE007E
7E00FE
7E00FE
7F00FC
7F00FC
3F01FC
3F01FC
3F81F8
3F81F8
1F83F8
1F83F8
1FC3F0
1FC3F0
0FC7F0
0FC7F0
0FE7E0
07FFE0
07FFE0
07FFC0
03FFC0
01FFC0
001FC0
001F80
001F80
001F80
003F80
003F00
003F00
007F00
007E00
007E00
007C00
00F800
00F800
ENDCHAR
STARTCHAR 2013
ENCODING 8211
SWIDTH 517 0
DWIDTH 23 0
BBX 21 5 1 10
BITMAP
FFFFF8
FFFFF8
FFFFF8
FFFFF8
FFFFF8
ENDCHAR
STARTCHAR 2014
ENCODING 8212
SWIDTH 742 0
DWIDTH 33 0
BBX 31 5 1 10
BITMAP
FFFFFFFE
FFFFFFFE
FFFFFFFE
FFFFFFFE
FFFFFFFE
ENDCHAR
STARTCHAR 2018
ENCODING 8216
SWIDTH 270 0
DWIDTH 12 0
BBX 6 11 3 23
BITMAP
7C
FC
F8
F0
F0
FC
FC
FC
FC
FC
FC
ENDCHAR
STARTCHAR 2019
ENCODING 8217
SWIDTH 270 0
DWIDTH 12 0
BBX 6 11 3 21
BITMAP
FC
FC
FC
FC
FC
FC
7C
7C
FC
F8
F0
ENDCHAR
STARTCHAR 201A
ENCODING 8218
SWIDTH 270 0
DWIDTH 12 0
BBX 6 11 3 -6
BITMAP
FC
FC
FC
FC
FC
FC
7C
7C
FC
F8
F0
ENDCHAR
STARTCHAR 201C
ENCODING 8220
SWIDTH 427 0
DWIDTH 19 0
BBX 14 11 2 23
BITMAP
3C3C
7C7C
7C7C
F8F8
F8F8
FCFC
FEFC
FEFC
FEFC
FEFC
FEFC
ENDCHAR
STARTCHAR 201D
ENCODING 8221
SWIDTH 427 0
DWIDTH 19 0
BBX 14 12 2 20
BITMAP
7C7C
FEFC
FEFC
FEFC
FEFC
FEFC
3E3C
3E3C
3C3C
7C7C
7878
6060
ENDCHAR
STARTCHAR 201E
ENCODING 8222
SWIDTH 427 0
DWIDTH 19 0
BBX 14 11 2 -7
BITMAP
FEFC
FEFC
FEFC
FEFC
FEFC
7E7C
3E3C
3E3C
7C7C
7C7C
7878
ENDCHAR
STARTCHAR 2020
ENCODING 8224
SWIDTH 450 0
DWIDTH 20 0
BBX 18 37 1 -3
BITMAP
03F000
03F000
03F000
03F000
03F000
03F000
03F000
03F000
07F800
FFFFC0
FFFFC0
FFFFC0
FFFFC0
FFFFC0
03F000
03F000
03F000
03F000
03F000
03F000
03F000
03F000
03F000
03F000
03F000
03F000
03F000
03F000
03F000
03F000
03F000
03F000
03F000
03F000
03F000
03F000
03F000
ENDCHAR
STARTCHAR 2021
ENCODING 8225
SWIDTH 450 0
DWIDTH 20 0
BBX 18 38 1 -4
BITMAP
03F000
03F000
03F000
03F000
03F000
03F000
03F000
03F000
07F800
FFFFC0
FFFFC0
FFFFC0
FFFFC0
FFFFC0
03F000
03F000
03F000
03F000
03F000
03F000
03F000
03F000
0FFC00
FFFFC0
FFFFC0
FFFFC0
FFFFC0
FFFFC0
03F000
03F000
03F000
03F000
03F000
03F000
03F000
03F000
03F000
03E000
ENDCHAR
STARTCHAR 2022
ENCODING 8226
SWIDTH 315 0
DWIDTH 14 0
BBX 8 8 3 13
BITMAP
FF
FF
FF
FF
FF
FF
FF
FF
ENDCHAR
STARTCHAR 2026
ENCODING 8230
SWIDTH 810 0
DWIDTH 36 0
BBX 9 6 13 -1
BITMAP
FF80
FF80
FF80
FF80
FF80
FF00
ENDCHAR
STARTCHAR 2030
ENCODING 8240
SWIDTH 1372 0
DWIDTH 61 0
BBX 59 34 1 0
BITMAP
1FFC000F00000000
3FFE001F00000000
7FFF001E00000000
7FFF803E00000000
FC1F807C00000000
F80F807800000000
F80F80F800000000
F80F80F000000000
F80F81F000000000
F80F81E000000000
F80F83E000000000
F80F87C000000000
F80F878000000000
7FFF8F8000000000
7FFF0F0000000000
7FFF1F0000000000
3FFE3E1FFC07FF00
00003C7FFE0FFFC0
00007C7FFF1FFFC0
000078FFFF1FFFE0
0000F8F83F1F07E0
0000F0F00F1E03E0
0001F0F00F1E01E0
0003E0F00F1E01E0
0003C0F00F1E01E0
0007C0F00F1E01E0
000780F00F1E01E0
000F80F00F1E01E0
000F00F00F1E03E0
001F00F81F1F07E0
003E00FFFF1FFFE0
003C007FFF1FFFC0
007C007FFE0FFFC0
0078001FF807FF00
ENDCHAR
STARTCHAR 2039
ENCODING 8249
SWIDTH 360 0
DWIDTH 16 0
BBX 12 17 2 7
BITMAP
00C0
01E0
03F0
07E0
0FC0
3F80
7F00
FE00
FE00
7F00
3F80
1FC0
0FE0
07F0
03F0
01E0
00C0
ENDCHAR
STARTCHAR 203A
ENCODING 8250
SWIDTH 360 0
DWIDTH 16 0
BBX 12 17 2 7
BITMAP
3000
7800
FC00
7F00
3F80
1FC0
0FE0
07F0
07F0
0FE0
1FC0
3F80
7F00
FE00
FC00
7800
3000
ENDCHAR
STARTCHAR 2044
ENCODING 8260
SWIDTH 315 0
DWIDTH 14 0
BBX 20 33 -3 -1
BITMAP
0001F0
0001E0
0003E0
0003C0
0007C0
0007C0
000780
000F80
000F00
001F00
001E00
003E00
003C00
007C00
007800
00F800
00F000
01F000
01E000
03E000
03C000
07C000
078000
0F8000
0F8000
1F0000
1F0000
1E0000
3E0000
3C0000
7C0000
780000
F80000
ENDCHAR
STARTCHAR 2070
ENCODING 8304
SWIDTH 472 0
DWIDTH 21 0
BBX 17 21 2 17
BITMAP
1FFC00
7FFE00
7FFF00
FFFF00
FE3F80
F80F80
F80F80
F80F80
F80F80
F80F80
F80F80
F80F80
F80F80
F80F80
F80F80
F80F80
FC3F80
FFFF00
7FFF00
7FFE00
1FFC00
ENDCHAR
STARTCHAR 2074
ENCODING 8308
SWIDTH 427 0
DWIDTH 19 0
BBX 18 21 1 17
BITMAP
01F000
03E000
03E000
07C000
07C000
0F8E00
0F9E00
1F1E00
1F1E00
3E1E00
3E1E00
7C1E00
7FFFC0
FFFFC0
FFFFC0
FFFFC0
FFFE00
001E00
001E00
001E00
001E00
ENDCHAR
STARTCHAR 2075
ENCODING 8309
SWIDTH 405 0
DWIDTH 18 0
BBX 15 22 2 16
BITMAP
FFFC
FFFC
FFFC
FFFC
F800
F800
F800
F800
FFF8
FFFC
FFFE
FFFE
F03E
F03E
003E
003E
003E
FFFE
FFFE
FFFC
FFF8
01C0
ENDCHAR
STARTCHAR 2076
ENCODING 8310
SWIDTH 427 0
DWIDTH 19 0
BBX 16 21 2 18
BITMAP
1FFE
3FFE
7FFE
7FFE
FC00
F800
F800
F800
FFFC
FFFE
FFFF
FFFF
F81F
F81F
F81F
F81F
FE3F
7FFF
7FFF
3FFE
1FF8
ENDCHAR
STARTCHAR 2077
ENCODING 8311
SWIDTH 405 0
DWIDTH 18 0
BBX 17 21 0 17
BITMAP
FFFF00
FFFF80
FFFF80
FFFF80
001F00
003F00
003E00
003E00
007C00
007C00
00FC00
00F800
01F800
01F000
01F000
03F000
03E000
07E000
07C000
07C000
0F8000
ENDCHAR
STARTCHAR 2078
ENCODING 8312
SWIDTH 472 0
DWIDTH 21 0
BBX 16 21 2 17
BITMAP
3FFC
7FFF
7FFF
FFFF
F81F
F80F
F80F
F81F
FFFF
7FFC
3FFF
7FFF
F81F
F80F
F80F
F80F
F81F
FFFF
7FFF
7FFF
3FFC
ENDCHAR
STARTCHAR 2079
ENCODING 8313
SWIDTH 427 0
DWIDTH 19 0
BBX 17 22 1 16
BITMAP
3FFC00
7FFE00
7FFE00
7FFF00
FC1F00
F80F00
F80F80
F80F80
FC0F80
7FFF80
7FFF80
3FFF80
1FEF80
000F80
000F80
000F00
001F00
7FFF00
7FFE00
7FFE00
7FFC00
008000
ENDCHAR
STARTCHAR 2080
ENCODING 8320
SWIDTH 472 0
DWIDTH 21 0
BBX 17 21 2 -9
BITMAP
3FFE00
7FFF00
FFFF00
FFFF00
F81F80
F80F80
F80F80
F80F80
F80F80
F80F80
F80F80
F80F80
F80F80
F80F80
F80F80
F80F80
FE3F80
FFFF00
7FFF00
7FFE00
1FFC00
ENDCHAR
STARTCHAR 2081
ENCODING 8321
SWIDTH 270 0
DWIDTH 12 0
BBX 9 22 1 -9
BITMAP
0F80
3F80
FF80
FF80
FF80
8F80
0F80
0F80
0F80
0F80
0F80
0F80
0F80
0F80
0F80
0F80
0F80
0F80
0F80
0F80
0F80
0F80
ENDCHAR
STARTCHAR 2082
ENCODING 8322
SWIDTH 405 0
DWIDTH 18 0
BBX 16 22 1 -9
BITMAP
1FF0
FFFC
FFFE
FFFE
FCFE
003E
001F
001E
003E
003E
007C
00FC
01F8
03F0
07E0
1FC0
3F80
FF00
FFFF
FFFF
FFFF
FFFF
ENDCHAR
STARTCHAR 2083
ENCODING 8323
SWIDTH 405 0
DWIDTH 18 0
BBX 15 22 1 -10
BITMAP
3FF0
FFFC
FFFE
FFFE
A0FE
003E
001E
003E
003E
3FFE
3FFC
3FF8
3FFC
00FE
003E
003E
003E
00FE
FFFE
FFFE
FFFC
3FF0
ENDCHAR
STARTCHAR 2084
ENCODING 8324
SWIDTH 427 0
DWIDTH 19 0
BBX 18 21 1 -9
BITMAP
01F000
03E000
03E000
07C000
07C000
0F8F00
0F9F00
1F1F00
1F1F00
3E1F00
3E1F00
7C1F00
7FFFC0
FFFFC0
FFFFC0
FFFFC0
FFFF00
001F00
001F00
001F00
001F00
ENDCHAR
STARTCHAR 2085
ENCODING 8325
SWIDTH 427 0
DWIDTH 19 0
BBX 15 21 2 -9
BITMAP
FFFC
FFFC
FFFC
FFFC
F800
F800
F800
FFF0
FFFC
FFFE
FFFE
F83E
F03E
003E
003E
003E
FFFE
FFFE
FFFE
FFFC
3FF0
ENDCHAR
STARTCHAR 2086
ENCODING 8326
SWIDTH 427 0
DWIDTH 19 0
BBX 16 22 2 -9
BITMAP
07E0
1FFE
3FFE
7FFE
7FFE
FC00
F800
F800
F800
FFFC
FFFE
FFFF
FFFF
F81F
F81F
F81F
F81F
FE3F
7FFF
7FFF
3FFE
1FF8
ENDCHAR
STARTCHAR 2087
ENCODING 8327
SWIDTH 405 0
DWIDTH 18 0
BBX 17 21 0 -9
BITMAP
FFFF00
FFFF80
FFFF80
FFFF00
001F00
003F00
003E00
007E00
007C00
007C00
00F800
00F800
01F800
01F000
03F000
03E000
03E000
07E000
07C000
0FC000
0F8000
ENDCHAR
STARTCHAR 2088
ENCODING 8328
SWIDTH 472 0
DWIDTH 21 0
BBX 16 22 2 -10
BITMAP
1FFC
7FFE
7FFF
FFFF
FC1F
F80F
F80F
F80F
F81F
7FFF
7FFE
3FFF
7FFF
F81F
F80F
F80F
F80F
FC1F
FFFF
7FFF
7FFE
1FFC
ENDCHAR
STARTCHAR 2089
ENCODING 8329
SWIDTH 427 0
DWIDTH 19 0
BBX 17 22 1 -10
BITMAP
1FF800
3FFE00
7FFE00
7FFF00
7E3F00
F81F00
F80F80
F80F80
FC0F80
7FFF80
7FFF80
7FFF80
1FFF80
000F80
000F80
000F80
001F00
001F00
7FFF00
7FFE00
7FFE00
7FFC00
ENDCHAR
STARTCHAR 20AC
ENCODING 8364
SWIDTH 607 0
DWIDTH 27 0
BBX 26 33 1 -1
BITMAP
003FF000
01FFFF80
03FFFFC0
07FFFFC0
0FFFFFC0
0FFFFFC0
0FE00000
1FC00000
1F800000
1F800000
1F800000
3FF80000
FFFFF000
FFFFF000
FFFFF000
1F800000
1F800000
1F800000
3FF80000
FFFFF000
FFFFF000
FFFFF000
1F800000
1F800000
1FC00000
1FC00000
0FE00000
0FF81FC0
07FFFFC0
07FFFFC0
03FFFFC0
00FFFF80
003FF800
ENDCHAR
STARTCHAR 2113
ENCODING 8467
SWIDTH 450 0
DWIDTH 20 0
BBX 17 33 1 0
BITMAP
00F800
07FE00
0FFF00
1FFF00
1FFF80
1F9F80
1F8F80
1F8F80
1F8F80
1F8F80
1F9F80
1F9F80
1FBF00
1FFF00
1FFE00
1FFC00
1FFC00
1FF800
1FF000
3FE000
7F8000
FF8000
FF8000
7F8000
1F8000
1F8000
1F8000
1FC000
1FF800
1FFF00
0FFF00
0FFF00
03FF00
ENDCHAR
STARTCHAR 2116
ENCODING 8470
SWIDTH 1102 0
DWIDTH 49 0
BBX 46 35 2 -2
BITMAP
0FC0007FFFC0
3FF000FFFFF0
7FF801FFFFF8
7FF803FFFFF8
7FFC03FFFFF8
FFFC07F0007C
FEFC07F1E07C
FEFC07E1E07C
FEFE07E1E07C
FE7E07E1E07C
FE7E07E1F07C
FE7F07E1F0FC
FE3F07E1FFF8
FE3F07E1FFF8
FE3F07E0FFF0
FE3F87E07FE0
FE1F87E00000
FE1F87E00000
FE1F87E00000
FE1FC7E00000
FE0FC7E00000
FE0FC7E00000
FE0FE7E00000
FE07E7E00000
FE07E7E00000
FE07E7E00000
FE07F7E00000
FE03F7E00000
FE03F7E00000
FE03FFE00000
FE03FFE00000
FE01FFE00000
FE01FFC00000
FE00FF800000
FE003F000000
ENDCHAR
STARTCHAR 2122
ENCODING 8482
SWIDTH 697 0
DWIDTH 31 0
BBX 30 16 1 18
BITMAP
FFF1E1F0
FFF3E1F0
FFF3F1F0
FFF3F1F0
0F03F1F8
0F03F3F8
0F03FBF8
0F03FBF8
0F03FBF8
0F03BFF8
0F07BF78
0F079F78
0F079F78
0F079F3C
0F079F3C
0F078E3C
ENDCHAR
STARTCHAR 212E
ENCODING 8494
SWIDTH 697 0
DWIDTH 31 0
BBX 27 26 2 -1
BITMAP
007FC000
01C07000
07001C00
0C000E00
1C000700
38000380
38000380
780003C0
780003C0
F80003C0
F80003C0
F80003E0
F80003E0
FFFFFFE0
F8000000
F8000000
F8000000
78000000
78000000
78000000
38000000
18000700
0C000E00
07001C00
03C07000
007FC000
ENDCHAR
STARTCHAR 2202
ENCODING 8706
SWIDTH 630 0
DWIDTH 28 0
BBX 23 33 2 -1
BITMAP
00FE00
07FF80
1FFFE0
3FFFF0
3FFFF8
3FFFF8
3C03FC
1001FC
0000FE
0000FE
00007E
00007E
01FC7E
0FFF7E
1FFFFE
3FFFFE
7FFFFE
7FFFFE
FF00FE
FE007E
FC007E
FC00FE
FC00FE
FC00FC
FC01FC
FE01FC
7F03F8
7FFFF8
3FFFF0
3FFFE0
1FFFC0
07FF80
01FE00
ENDCHAR
STARTCHAR 2206
ENCODING 8710
SWIDTH 720 0
DWIDTH 32 0
BBX 30 35 1 -1
BITMAP
00078000
00078000
000FC000
000FC000
000FC000
001FE000
001FE000
001FF000
003FF000
003FF000
007EF800
007EF800
007EFC00
00FC7C00
00FC7C00
01FC3E00
01F83E00
01F83E00
03F01F00
03F01F00
07F01F80
07E00F80
07E00F80
0FC007C0
0FC007C0
1FC007C0
1F8003E0
1F8003E0
3F8003F0
3FFFFFF0
7FFFFFF0
7FFFFFF8
7FFFFFF8
FFFFFFF8
FFFFFFFC
ENDCHAR
STARTCHAR 220F
ENCODING 8719
SWIDTH 652 0
DWIDTH 29 0
BBX 27 35 1 -1
BITMAP
FFFFFFE0
FFFFFFE0
FFFFFFE0
FFFFFFE0
FFFFFFE0
FFFFFFE0
1F803F00
1F803F00
1F803F00
1F803F00
1F803F00
1F803F00
1F803F00
1F803F00
1F803F00
1F803F00
1F803F00
1F803F00
1F803F00
1F803F00
1F803F00
1F803F00
1F803F00
1F803F00
1F803F00
1F803F00
1F803F00
1F803F00
1F803F00
1F803F00
1F803F00
1F803F00
1F803F00
1F803F00
1F803F00
ENDCHAR
STARTCHAR 2211
ENCODING 8721
SWIDTH 562 0
DWIDTH 25 0
BBX 24 43 1 -9
BITMAP
FFFFFF
FFFFFF
FFFFFF
FFFFFF
FFFFFF
FFFFFF
7F0000
7F8000
3FC000
1FC000
1FE000
0FF000
0FF000
07F800
03F800
03FC00
01FE00
00FE00
00FF00
007F00
007F80
003F80
007F80
00FF00
00FE00
01FE00
01FC00
03FC00
07F800
07F000
0FF000
0FE000
1FE000
3FC000
3F8000
7F8000
7F0000
FFFFFF
FFFFFF
FFFFFF
FFFFFF
FFFFFF
FFFFFF
ENDCHAR
STARTCHAR 2212
ENCODING 8722
SWIDTH 450 0
DWIDTH 20 0
BBX 18 5 1 13
BITMAP
FFFFC0
FFFFC0
FFFFC0
FFFFC0
FFFFC0
ENDCHAR
STARTCHAR 221A
ENCODING 8730
SWIDTH 652 0
DWIDTH 29 0
BBX 27 36 1 -1
BITMAP
000007E0
00000FE0
00000FE0
00000FC0
00001FC0
00001FC0
00001F80
00003F80
00003F00
00007F00
00007F00
00007E00
0000FE00
0000FE00
0000FC00
0001FC00
0001FC00
0003F800
0003F800
FE03F000
FF07F000
FF07F000
FF07E000
FF8FE000
FF8FE000
1FDFC000
1FDFC000
0FFF8000
0FFF8000
07FF8000
07FF0000
03FF0000
03FF0000
01FE0000
01FE0000
00FC0000
ENDCHAR
STARTCHAR 221E
ENCODING 8734
SWIDTH 765 0
DWIDTH 34 0
BBX 30 16 2 7
BITMAP
0FC00FC0
3FF07FF0
7FF8FFF8
FFFDFFF8
FFFFFFFC
F83FF07C
F01FE07C
F00FC07C
F00FC07C
F81FE07C
F87FF0FC
FFFFFFFC
7FFCFFF8
3FF87FF0
1FF03FE0
03000300
ENDCHAR
STARTCHAR 222B
ENCODING 8747
SWIDTH 450 0
DWIDTH 20 0
BBX 18 45 1 -9
BITMAP
003F00
007FC0
00FFC0
01FFC0
01FFC0
01FC00
03F800
03F000
03F000
03F000
03F000
03F000
03F000
03F000
03F000
03F000
03F000
03F000
03F000
03F000
03F000
03F000
03F000
03F000
03F000
03F000
03F000
03F000
03F000
03F000
03F000
03F000
03F000
03F000
03F000
03F000
07F000
07F000
07E000
0FE000
FFE000
FFC000
FFC000
FF8000
7F0000
ENDCHAR
STARTCHAR 2248
ENCODING 8776
SWIDTH 517 0
DWIDTH 23 0
BBX 19 14 2 9
BITMAP
0F8040
3FE1C0
FFFFE0
FFFFE0
F1FF80
C03F00
000000
000000
0F8040
3FE1C0
FFFFE0
FFFFC0
F1FF80
C03F00
ENDCHAR
STARTCHAR 2260
ENCODING 8800
SWIDTH 450 0
DWIDTH 20 0
BBX 19 21 1 5
BITMAP
000780
000700
000E00
FFFFE0
FFFFE0
FFFFE0
FFFFE0
FFFFE0
007000
00E000
00E000
01C000
03C000
FFFFE0
FFFFE0
FFFFE0
FFFFE0
FFFFE0
1C0000
3C0000
380000
ENDCHAR
STARTCHAR 2264
ENCODING 8804
SWIDTH 450 0
DWIDTH 20 0
BBX 16 24 2 4
BITMAP
0007
003F
01FF
07FF
3FFF
FFFE
FFF0
FF00
FE00
FFC0
FFF8
7FFF
0FFF
03FF
007F
000F
0003
0000
0000
FFFF
FFFF
FFFF
FFFF
FFFF
ENDCHAR
STARTCHAR 2265
ENCODING 8805
SWIDTH 450 0
DWIDTH 20 0
BBX 16 24 2 4
BITMAP
E000
FC00
FF80
FFE0
FFFC
7FFF
0FFF
00FF
007F
03FF
1FFF
FFFE
FFF0
FFC0
FE00
F800
C000
0000
0000
FFFF
FFFF
FFFF
FFFF
FFFF
ENDCHAR
STARTCHAR 25CA
ENCODING 9674
SWIDTH 517 0
DWIDTH 23 0
BBX 21 35 1 -1
BITMAP
007000
00F800
01F800
01FC00
03FE00
03FE00
07FF00
07FF00
0FDF80
1FDF80
1F8FC0
3F07C0
3F07E0
7E03E0
7E03F0
FC01F0
FC01F8
FE03F8
7E03F0
7F07F0
3F07E0
3F8FE0
1F8FC0
1FDFC0
0FDF80
0FFF80
07FF00
07FF00
03FE00
03FE00
01FC00
01FC00
00F800
00F800
007000
ENDCHAR
STARTCHAR FB00
ENCODING 64256
SWIDTH 787 0
DWIDTH 35 0
BBX 34 37 1 -1
BITMAP
00FE00FF00
03FF81FFC0
07FF83FFC0
07FF87FFC0
0FFF87FFC0
0FE007E000
0FC007E000
0FC007E000
0FC007E000
0FC007E000
0FC007E000
3FFFFFFF00
FFFFFFFF00
FFFFFFFF00
FFFFFFFF00
FFFFFFFF00
0FC007E000
0FC007E000
0FC007E000
0FC007E000
0FC007E000
0FC007E000
0FC007E000
0FC007E000
0FC007E000
0FC007E000
0FC007E000
0FC007E000
0FC007E000
0FC007E000
0FC007E000
0FC007E000
0FC007E000
0FC007E000
0FC007E000
0FC007E000
0FC007E000
ENDCHAR
STARTCHAR FB01
ENCODING 64257
SWIDTH 630 0
DWIDTH 28 0
BBX 25 37 1 -1
BITMAP
003FF000
00FFFE00
03FFFE00
07FFFE00
07FFFE00
0FF00000
0FC00000
0FC00000
1FC00000
1FC00000
1FC00000
7FFFF800
FFFFFF80
FFFFFF80
FFFFFF80
FFFFFF80
1FC01F80
1FC01F80
1FC01F80
1FC01F80
1FC01F80
1FC01F80
1FC01F80
1FC01F80
1FC01F80
1FC01F80
1FC01F80
1FC01F80
1FC01F80
1FC01F80
1FC01F80
1FC01F80
1FC01F80
1FC01F80
1FC01F80
1FC01F80
1FC01F80
ENDCHAR
STARTCHAR FB02
ENCODING 64258
SWIDTH 720 0
DWIDTH 32 0
BBX 30 37 1 -1
BITMAP
007FFF80
03FFFF80
07FFFF80
07FFFF80
0FFFFF80
0FE01F80
0FC01F80
1FC01F80
1FC01F80
1FC01F80
1FC01F80
7FFE1F80
FFFE1F80
FFFE1F80
FFFE1F80
FFFE1F80
1FC01F80
1FC01F80
1FC01F80
1FC01F80
1FC01F80
1FC01F80
1FC01F80
1FC01F80
1FC01F80
1FC01F80
1FC01F80
1FC01F80
1FC01F80
1FC01FC0
1FC01FC0
1FC01FC0
1FC00FF0
1FC00FFC
1FC00FFC
1FC007FC
1FC003FC
ENDCHAR
STARTCHAR FB03
ENCODING 64259
SWIDTH 1012 0
DWIDTH 45 0
BBX 42 37 1 -1
BITMAP
00FE003FF000
03FF80FFFF00
07FF81FFFF00
07FF83FFFF00
0FFF87FFFF00
0FE007F00000
0FC007E00000
0FC00FE00000
0FC00FC00000
0FC00FC00000
0FC00FC00000
3FFFFFFFF800
FFFFFFFFFFC0
FFFFFFFFFFC0
FFFFFFFFFFC0
FFFFFFFFFFC0
0FC00FC00FC0
0FC00FC00FC0
0FC00FC00FC0
0FC00FC00FC0
0FC00FC00FC0
0FC00FC00FC0
0FC00FC00FC0
0FC00FC00FC0
0FC00FC00FC0
0FC00FC00FC0
0FC00FC00FC0
0FC00FC00FC0
0FC00FC00FC0
0FC00FC00FC0
0FC00FC00FC0
0FC00FC00FC0
0FC00FC00FC0
0FC00FC00FC0
0FC00FC00FC0
0FC00FC00FC0
0FC00FC00FC0
ENDCHAR
STARTCHAR FB04
ENCODING 64260
SWIDTH 1102 0
DWIDTH 49 0
BBX 47 37 1 -1
BITMAP
00FE007FFFC0
03FF81FFFFC0
07FF83FFFFC0
07FF83FFFFC0
0FFF87FFFFC0
0FE007F00FC0
0FC00FE00FC0
0FC00FE00FC0
0FC00FE00FC0
0FC00FE00FC0
0FC00FE00FC0
3FFFFFFF0FC0
FFFFFFFF0FC0
FFFFFFFF0FC0
FFFFFFFF0FC0
FFFFFFFF0FC0
0FC00FC00FC0
0FC00FC00FC0
0FC00FC00FC0
0FC00FC00FC0
0FC00FC00FC0
0FC00FC00FC0
0FC00FC00FC0
0FC00FC00FC0
0FC00FC00FC0
0FC00FC00FC0
0FC00FC00FC0
0FC00FC00FC0
0FC00FC00FC0
0FC00FC00FC0
0FC00FC00FE0
0FC00FC00FE0
0FC00FC00FF8
0FC00FC007FE
0FC00FC007FE
0FC00FC003FE
0FC00FC001FE
ENDCHAR
STARTCHAR FB06
ENCODING 64262
SWIDTH 877 0
DWIDTH 39 0
BBX 38 33 1 -1
BITMAP
0000001F00
0000001F00
0000001F00
0000001F00
0000003F00
0000003F00
0000003F00
0FFFFFFFFC
3FFFFFFFFC
7FFFFFFFFC
7FFFFFFFFC
7FFFFFFFFC
FE00003F00
FE00003F00
FE00003F00
FE00003F00
FE00003F00
FF00003F00
FFFFC03F00
7FFFE03F00
7FFFF03F00
3FFFF03F00
0FFFF03F00
0003F03F00
0003F03F00
0003F03F00
0003F03F80
0007F03F80
7FFFF01FE0
7FFFF01FF8
7FFFE01FF8
7FFFE00FF8
07FF8007F8
ENDCHAR
ENDFONT
